<?xml version="1.0" encoding="UTF-8" standalone="no"?>
<svg
   xmlns:dc="http://purl.org/dc/elements/1.1/"
   xmlns:cc="http://creativecommons.org/ns#"
   xmlns:rdf="http://www.w3.org/1999/02/22-rdf-syntax-ns#"
   xmlns:svg="http://www.w3.org/2000/svg"
   xmlns="http://www.w3.org/2000/svg"
   xmlns:sodipodi="http://sodipodi.sourceforge.net/DTD/sodipodi-0.dtd"
   xmlns:inkscape="http://www.inkscape.org/namespaces/inkscape"
   viewBox="0 0 1052.5 745"
   width="100%"
   xml:space="preserve"
   version="1.1"
   id="svg2"
   inkscape:version="0.91 r13725"
   sodipodi:docname="presto_logo.svg"><sodipodi:namedview
     pagecolor="#ffffff"
     bordercolor="#666666"
     borderopacity="1"
     objecttolerance="10"
     gridtolerance="10"
     guidetolerance="10"
     inkscape:pageopacity="0"
     inkscape:pageshadow="2"
     inkscape:window-width="1280"
     inkscape:window-height="755"
     id="namedview3427"
     showgrid="false"
     inkscape:zoom="0.74228188"
     inkscape:cx="526.25"
     inkscape:cy="426.38789"
     inkscape:window-x="0"
     inkscape:window-y="1"
     inkscape:window-maximized="1"
     inkscape:current-layer="svg2" /><metadata
     id="metadata8"><rdf:RDF><cc:Work
         rdf:about=""><dc:format>image/svg+xml</dc:format><dc:type
           rdf:resource="http://purl.org/dc/dcmitype/StillImage" /></cc:Work></rdf:RDF></metadata><defs
     id="defs6" /><g
     transform="matrix(1.25,0,0,-1.25,2.6943942,740.95841)"
     id="g10"><g
       transform="scale(0.1,0.1)"
       id="g12"><path
         id="path14"
         style="fill:#212e3a;fill-opacity:1;fill-rule:evenodd;stroke:none"
         d="m 0,0 8418.9,0 0,5952.76 L 0,5952.76 0,0 Z"
         inkscape:connector-curvature="0" /><path
         id="path16"
         style="fill:#ffffff;fill-opacity:1;fill-rule:evenodd;stroke:none"
         d="m 4365.07,3040.88 c -45.98,0 -90.07,-8.13 -130.9,-23.04 l 62.51,-96.48 c 21.84,5.69 44.76,8.72 68.39,8.72 149.61,0 270.94,-121.33 270.94,-270.95 0,-149.62 -121.33,-270.94 -270.94,-270.94 -149.62,0 -270.95,121.32 -270.95,270.94 0,59.83 19.42,115.13 52.27,159.96 l -63.16,97.5 c -62.05,-67.89 -99.91,-158.25 -99.91,-257.46 0,-210.81 170.94,-381.75 381.75,-381.75 210.81,0 381.75,170.94 381.75,381.75 0,210.81 -170.94,381.75 -381.75,381.75"
         inkscape:connector-curvature="0" /><path
         id="path18"
         style="fill:#ffffff;fill-opacity:1;fill-rule:nonzero;stroke:none"
         d="m 928.215,2681.79 293.155,0 c 50.75,0.23 95.59,7.55 134.77,22.18 39.18,14.64 72.23,35.17 99.13,61.84 26.91,26.44 47.21,57.83 61.14,93.94 13.68,36.35 20.77,76 20.77,119.43 0,43.67 -7.09,83.79 -20.77,119.91 -13.93,36.35 -34.23,67.74 -61.14,94.17 -26.9,26.44 -59.95,46.97 -99.13,61.37 -39.18,14.4 -84.02,21.71 -134.77,21.95 l -413.526,0 0,-982.83 120.371,0 0,388.04 z m 293.155,480.08 c 38.47,0.24 72.46,-6.14 101.96,-18.64 29.51,-12.75 52.63,-32.34 69.39,-59.49 16.76,-26.9 25.26,-61.6 25.49,-104.56 -0.23,-42.72 -8.73,-77.65 -25.49,-104.56 -16.76,-26.91 -39.88,-46.73 -69.39,-59.48 -29.5,-12.51 -63.49,-18.88 -101.96,-18.64 l -293.155,0 0,365.37 293.155,0"
         inkscape:connector-curvature="0" /><path
         id="path20"
         style="fill:#ffffff;fill-opacity:1;fill-rule:nonzero;stroke:none"
         d="m 1984.74,3040.08 c -28.33,3.3 -57.12,1.88 -86.63,-4.02 -29.5,-5.9 -57.35,-16.75 -83.56,-32.57 -26.43,-15.81 -48.85,-36.58 -67.73,-62.54 l 0,82.14 -116.13,0 0,-729.34 120.37,0 0,422.02 c 0.24,36.35 6.38,67.98 18.89,94.65 12.27,26.67 29.03,48.39 50.75,65.38 21.48,17 46.26,29.27 74.35,36.82 28.08,7.32 57.82,10.39 89.69,8.5 l 0,118.96"
         inkscape:connector-curvature="0" /><path
         id="path22"
         style="fill:#ffffff;fill-opacity:1;fill-rule:nonzero;stroke:none"
         d="m 2608.09,2520.34 c -19.83,-42.72 -48.15,-75.77 -84.5,-99.13 -36.35,-23.37 -80.49,-35.17 -132.18,-35.41 -30.45,0 -59.71,5.43 -88.03,16.29 -28.33,10.86 -54.06,26.67 -77.19,47.21 -23.37,20.77 -42.72,46.02 -57.83,75.76 -15.1,29.74 -24.78,63.49 -29.03,101.49 l 613.21,0 c 0,51.93 -6.61,99.37 -19.59,142.8 -13.22,43.2 -31.63,81.67 -55.24,115.19 -23.6,33.75 -50.74,62.31 -81.9,85.44 -31.15,23.36 -64.9,41.07 -100.78,53.34 -35.88,12.04 -72.7,18.17 -110.7,18.17 -50.98,-0.23 -98.42,-10.38 -142.8,-30.21 -44.14,-19.82 -83.08,-47.44 -116.6,-82.6 -33.52,-35.18 -59.71,-75.77 -78.6,-122.04 -18.88,-46.26 -28.55,-95.82 -28.79,-148.93 0.24,-53.82 9.91,-103.62 29.03,-149.64 18.89,-46.03 45.32,-86.39 79.31,-121.09 33.99,-34.46 73.4,-61.37 118.72,-80.72 45.08,-19.35 94.18,-29.26 146.81,-29.5 56.41,0.24 107.39,9.67 152.71,28.56 45.56,18.88 84.5,46.49 117.08,82.61 32.33,36.35 57.12,80.25 74.34,132.41 l -127.45,0 z m -461.68,213.84 c 8.03,31.16 20.06,59.01 36.11,83.56 16.29,24.55 35.18,45.32 56.89,62.31 21.71,16.99 44.85,29.97 69.63,38.95 24.78,8.96 50.03,13.45 75.29,13.45 35.88,-0.24 69.63,-8.5 101.49,-25.02 31.87,-16.29 59.72,-39.42 83.09,-68.92 23.36,-29.74 40.12,-64.44 50.51,-104.33 l -473.01,0"
         inkscape:connector-curvature="0" /><path
         id="path24"
         style="fill:#ffffff;fill-opacity:1;fill-rule:nonzero;stroke:none"
         d="m 3464.88,2513.26 c -0.24,41.07 -8.03,74.82 -23.37,101.02 -15.11,26.43 -36.35,47.2 -63.26,62.78 -27.14,15.58 -58.3,27.62 -93.7,36.35 -35.64,8.74 -73.64,16.29 -114.24,22.19 -47.2,7.32 -84.49,14.87 -111.41,22.66 -26.9,7.79 -45.79,17.23 -56.64,28.32 -11.1,11.09 -16.53,25.26 -16.05,42.49 0.24,19.12 7.55,36.35 21.48,51.69 14.16,15.34 33.75,27.38 58.53,36.35 24.78,9.2 53.35,13.69 85.68,13.92 29.98,0 57.12,-4.24 81.43,-13.21 24.31,-8.74 44.61,-21.72 60.9,-39.19 16.28,-17.46 27.38,-39.18 33.27,-65.14 l 121.8,0 c -5.43,47.91 -21.01,88.74 -46.5,122.74 -25.73,33.98 -59.71,59.95 -102.44,77.89 -42.48,18.17 -92.05,27.14 -148.46,27.37 -48.86,-0.23 -91.11,-6.6 -127.22,-19.11 -35.88,-12.51 -65.62,-29.04 -88.98,-49.81 -23.61,-21 -41.08,-44.13 -52.64,-69.62 -11.56,-25.5 -17.23,-51.7 -17.23,-78.13 0,-34.23 6.61,-63.02 19.59,-86.39 12.98,-23.6 31.63,-42.96 56.41,-58.3 24.55,-15.1 54.53,-27.61 89.46,-37.06 35.17,-9.67 74.82,-17.46 119.19,-23.6 44.38,-5.9 79.78,-12.98 106.22,-20.77 26.67,-7.79 46.5,-16.28 59.95,-25.73 13.22,-9.43 21.95,-19.83 26.2,-30.92 4.25,-11.09 6.37,-23.13 5.9,-35.87 -0.23,-21.48 -7.55,-41.31 -22.19,-59.25 -14.63,-17.93 -35.64,-32.09 -62.78,-42.95 -27.14,-10.86 -59.71,-16.53 -97.72,-16.77 -35.17,0 -67.27,5.67 -96.06,16.77 -28.8,11.09 -52.4,26.67 -71.29,47.2 -18.87,20.54 -31.15,44.85 -36.58,73.41 l -121.79,0 c 7.08,-51.69 25.02,-96.07 53.81,-133.13 29.04,-37.29 66.8,-65.85 113.3,-85.91 46.26,-19.82 99.13,-29.97 158.61,-30.21 43.67,0 83.79,5.66 120.14,16.76 36.35,10.85 67.98,26.67 94.65,47.44 26.67,20.77 47.2,45.79 61.84,75.06 14.63,29.27 21.95,62.07 22.19,98.66"
         inkscape:connector-curvature="0" /><path
         id="path26"
         style="fill:#ffffff;fill-opacity:1;fill-rule:nonzero;stroke:none"
         d="m 3916.14,2405.39 c -22.42,-1.65 -43.9,-0.23 -63.96,3.78 -20.07,4.25 -38,12.04 -53.82,23.6 -15.57,11.57 -27.85,27.85 -37.06,48.86 -8.96,20.77 -13.45,47.21 -13.69,79.3 l 0,347.45 165.7,0 0,114.71 -165.7,0 0,155.77 -118.95,0 0,-155.77 -99.14,0 0,-114.71 99.14,0 0,-347.45 c 0.23,-46.49 7.08,-87.32 21,-122.49 13.93,-35.17 33.52,-64.2 59.01,-87.33 25.49,-22.9 55.7,-39.19 90.87,-48.86 35.17,-9.45 73.88,-12.04 116.6,-7.08 l 0,110.22"
         inkscape:connector-curvature="0" /><path
         id="path28"
         style="fill:#ec711e;fill-opacity:1;fill-rule:nonzero;stroke:none"
         d="m 4820.87,3276.23 0,-982.48 605.42,0 0,51.38 c -0.24,0 -7.64,0 -21.76,0 -14.35,0 -33.79,0 -58.09,0 -24.53,0 -52.07,0 -83.08,0 -30.78,0 -62.95,0 -96.27,0 -33.56,0 -66.42,0 -98.82,0 -32.4,0 -62.26,0 -89.57,0 -27.31,0 -50.45,0 -69.19,0 -18.51,0 -31.01,0 -37.26,0 0,6.02 0,20.83 0,44.43 0,23.61 0,53.92 0,90.95 0,36.8 0,77.99 0,123.36 0,45.35 0,92.8 0,142.33 0,49.28 0,98.35 0,147.18 0,48.83 0,95.12 0,138.62 0,43.51 0,82.16 0,115.95 0,49.28 0,78.99 0,128.28 l -51.38,0"
         inkscape:connector-curvature="0" /><path
         id="path30"
         style="fill:#ec711e;fill-opacity:1;fill-rule:nonzero;stroke:none"
         d="m 6120.48,2310.41 c -3.7,9.49 -7.18,21.06 -10.41,34.48 -3.01,13.66 -5.55,27.55 -7.41,42.13 -2.09,14.35 -3.01,27.77 -3.01,40.03 l 0,404.07 c -0.23,45.13 -11.35,83.32 -33.32,115.02 -21.99,31.48 -53.93,55.55 -95.82,72.21 -41.89,16.66 -92.8,25 -152.74,25.22 -53.92,-0.22 -101.13,-8.09 -142.32,-23.83 -40.97,-15.74 -74.76,-38.65 -101.37,-68.51 -26.85,-30.08 -45.37,-66.18 -56.24,-109 l 52.77,0 c 15.5,48.83 44.2,86.32 86.09,112.25 41.89,25.91 95.58,38.88 161.07,39.11 26.85,0.23 53.69,-2.09 80.53,-6.95 26.85,-4.62 51.62,-12.96 74.3,-24.76 22.68,-12.03 40.73,-28.46 54.62,-49.75 13.65,-21.29 20.59,-48.14 21.06,-81.01 -0.23,-21.75 -6.48,-39.57 -18.98,-53.46 -12.5,-13.88 -30.32,-24.99 -53.47,-33.32 -23.36,-8.33 -51.14,-15.04 -83.31,-19.91 -32.4,-4.85 -68.26,-9.02 -108.07,-12.72 -30.78,-2.55 -60.88,-6.71 -90.26,-12.03 -29.39,-5.33 -56.93,-12.73 -82.85,-22.46 -25.7,-9.72 -48.38,-22.21 -68.04,-37.95 -19.44,-15.51 -34.95,-34.94 -46.06,-58.08 -11.1,-23.15 -16.66,-50.92 -16.89,-83.32 0.47,-34.25 8.1,-64.11 22.91,-89.33 15.04,-24.99 34.95,-45.83 60.17,-62.25 25,-16.21 52.77,-28.47 83.32,-36.57 30.54,-7.87 61.55,-11.81 93.27,-11.81 47.44,0.23 90.71,5.33 130.28,15.97 39.35,10.41 74.06,25.46 104.15,44.9 30.09,19.44 54.62,42.59 73.83,69.66 l 0,-13.89 c 0,-22.21 1.61,-41.65 5.09,-58.78 3.24,-17.13 8.09,-32.16 14.34,-45.36 l 52.77,0 z m -72.2,259.67 c -0.23,-30.32 -6.02,-57.4 -17.37,-81 -11.11,-23.84 -26.84,-44.67 -46.74,-62.03 -19.9,-17.59 -43.05,-32.17 -68.96,-43.74 -26.16,-11.34 -54.16,-19.9 -84.02,-25.69 -29.62,-5.55 -60.17,-8.33 -91.17,-8.33 -14.36,0 -30.56,1.39 -48.38,4.17 -17.82,3.01 -35.86,7.86 -54.15,14.58 -18.05,6.71 -34.72,15.96 -50.22,27.54 -15.27,11.34 -27.54,25.69 -37.03,42.81 -9.26,17.13 -14.12,37.26 -14.35,60.87 -0.23,32.63 8.11,60.4 25.23,82.62 16.89,22.45 44.2,40.27 81.47,53.69 37.48,13.43 86.54,23.14 147.41,28.93 33.09,2.55 65.96,6.02 98.36,10.18 32.4,4.39 62.48,11.11 90.25,20.37 27.55,9.02 50.92,21.98 69.67,38.88 l 0,-163.85"
         inkscape:connector-curvature="0" /><path
         id="path32"
         style="fill:#ec711e;fill-opacity:1;fill-rule:nonzero;stroke:none"
         d="m 6928.19,2665.89 c -0.23,52.3 -9.72,101.36 -28.24,146.95 -18.51,45.36 -44.2,85.4 -76.83,120.11 -32.86,34.48 -70.82,61.33 -114.09,81 -43.05,19.44 -89.57,29.39 -139.09,29.62 -44.21,-0.23 -85.63,-8.32 -124.51,-24.3 -38.88,-15.97 -73.82,-38.41 -104.61,-67.11 -30.77,-28.46 -56.23,-62.02 -76.37,-100.21 l 0,424.2 -51.38,0 0,-965.74 51.38,0 0,172.18 c 20.14,-37.71 45.6,-70.81 76.37,-99.04 30.79,-28.24 65.73,-49.99 104.61,-65.73 38.88,-15.74 80.3,-23.84 124.51,-24.07 49.52,0.23 96.04,10.18 139.09,29.16 43.27,19.21 81.23,45.82 114.09,79.84 32.63,34.02 58.32,73.36 76.83,118.26 18.52,44.9 28.01,93.26 28.24,144.88 z m -52.77,0 c -0.23,-44.44 -8.33,-85.86 -23.83,-124.51 -15.74,-38.65 -37.5,-72.67 -65.27,-102.06 -28,-29.39 -60.4,-52.3 -97.2,-68.97 -36.79,-16.42 -76.6,-24.99 -119.18,-25.22 -42.35,0.23 -81.93,8.8 -118.72,25.22 -36.8,16.67 -68.97,39.58 -96.98,68.97 -27.99,29.39 -49.98,63.41 -65.72,102.06 -15.73,38.65 -23.84,80.07 -24.07,124.51 0.23,45.13 8.34,87.24 24.07,126.36 15.74,39.11 37.73,73.59 65.72,103.21 28.01,29.86 60.18,53 96.98,69.66 36.79,16.9 76.37,25.46 118.72,25.68 42.58,-0.22 82.39,-8.78 119.18,-25.68 36.8,-16.66 69.2,-39.8 97.2,-69.66 27.77,-29.62 49.53,-64.1 65.27,-103.21 15.5,-39.12 23.6,-81.23 23.83,-126.36"
         inkscape:connector-curvature="0" /><path
         id="path34"
         style="fill:#ec711e;fill-opacity:1;fill-rule:nonzero;stroke:none"
         d="m 7610.98,2513.14 c -2.09,35.88 -11.35,65.96 -27.77,90.03 -16.44,24.06 -38.43,43.51 -65.51,58.55 -27.31,15.04 -58.08,27.07 -92.33,35.87 -34.01,8.79 -69.89,15.74 -107.38,21.06 -52.77,7.18 -96.28,15.51 -130.99,25.46 -34.48,9.95 -60.17,23.14 -77.3,39.8 -17.13,16.43 -25.92,38.19 -26.38,65.27 -0.23,28 9.03,52.99 27.54,74.75 18.51,21.98 44.2,39.1 77.29,51.84 32.87,12.5 71.28,18.97 114.56,19.21 64.11,-0.24 116.18,-13.66 156.45,-39.8 40.27,-26.16 67.57,-63.42 82.39,-111.56 l 52.76,0 c -10.41,43.05 -28.47,79.61 -54.38,109.23 -25.93,29.63 -59.02,52.31 -99.05,67.58 -40.27,15.28 -86.56,23.14 -139.56,23.14 -44.89,-0.22 -84.01,-5.78 -117.8,-16.66 -33.79,-10.87 -62.02,-25.69 -84.7,-43.97 -22.68,-18.51 -39.8,-39.34 -51.14,-62.49 -11.34,-22.9 -17.13,-46.74 -17.13,-71.27 0.7,-28.24 6.95,-52.08 18.29,-71.52 11.33,-19.44 26.61,-35.4 45.59,-47.91 18.97,-12.72 40.5,-22.9 64.34,-30.54 23.84,-7.64 48.82,-13.89 74.75,-18.51 25.68,-4.63 51.14,-8.57 76.14,-12.04 58.09,-8.1 105.29,-18.98 141.63,-32.4 36.33,-13.43 62.94,-30.08 80.07,-50.44 17.12,-20.37 26.15,-45.14 26.85,-74.07 1.38,-18.75 -0.92,-36.56 -6.94,-53.45 -6.02,-16.67 -15.28,-31.71 -27.78,-45.13 -21.06,-21.76 -48.83,-38.88 -83.31,-51.61 -34.25,-12.5 -73.13,-18.98 -116.64,-19.21 -50.68,0 -95.35,6.71 -133.99,20.14 -38.89,13.42 -70.59,33.09 -95.35,59.24 -24.54,26.15 -41.2,58.55 -49.76,96.97 l -51.38,0 c 8.1,-48.6 27.08,-89.8 56.47,-123.12 29.4,-33.33 67.58,-58.78 114.32,-75.91 46.99,-17.12 100.68,-25.92 161.08,-25.92 50.45,0.23 95.81,7.41 136.31,21.98 40.5,14.35 73.6,34.72 99.74,61.34 17.36,18.28 30.32,39.34 38.65,62.95 8.33,23.37 12.04,47.89 11.35,73.12"
         inkscape:connector-curvature="0" /><path
         id="path36"
         style="fill:#ec711e;fill-opacity:1;fill-rule:evenodd;stroke:none"
         d="m 4417.09,3677.41 c 63.03,0 114.1,-51.1 114.1,-114.05 0,-63.02 -51.07,-114.09 -114.1,-114.09 -32.35,0 -61.54,13.48 -82.32,35.12 l -232.06,-150.35 c 6.91,-16.8 10.74,-35.17 10.74,-54.47 0,-45.87 -21.56,-86.7 -55.17,-112.88 l 222.6,-343.61 c 25.64,13.52 54.82,21.18 85.77,21.18 101.75,0 184.19,-82.49 184.19,-184.15 0,-101.75 -82.44,-184.2 -184.19,-184.2 -101.67,0 -184.15,82.45 -184.15,184.2 0,53.33 22.7,101.35 58.92,134.96 l -225.88,348.68 c -14.19,-4.73 -29.39,-7.26 -45.17,-7.26 -78.97,0 -143.05,64.04 -143.05,143.08 0,78.97 64.08,143.05 143.05,143.05 42.35,0 80.41,-18.41 106.59,-47.63 l 232.49,150.59 c -4.15,11.84 -6.41,24.54 -6.41,37.78 0,62.95 51.1,114.05 114.05,114.05"
         inkscape:connector-curvature="0" /></g></g></svg>