<?xml version="1.0" encoding="UTF-8" standalone="no"?>
<!-- Created with Inkscape (http://www.inkscape.org/) -->

<svg
   xmlns:dc="http://purl.org/dc/elements/1.1/"
   xmlns:cc="http://creativecommons.org/ns#"
   xmlns:rdf="http://www.w3.org/1999/02/22-rdf-syntax-ns#"
   xmlns:svg="http://www.w3.org/2000/svg"
   xmlns="http://www.w3.org/2000/svg"
   xmlns:sodipodi="http://sodipodi.sourceforge.net/DTD/sodipodi-0.dtd"
   xmlns:inkscape="http://www.inkscape.org/namespaces/inkscape"
   width="210mm"
   height="297mm"
   viewBox="0 0 210 297"
   version="1.1"
   id="svg8"
   inkscape:version="0.92.2 (5c3e80d, 2017-08-06)"
   sodipodi:docname="drawing-1.svg"
   inkscape:export-filename="/Users/xguo/bitmap.png"
   inkscape:export-xdpi="96"
   inkscape:export-ydpi="96">
  <defs
     id="defs2" />
  <sodipodi:namedview
     id="base"
     pagecolor="#ffffff"
     bordercolor="#666666"
     borderopacity="1.0"
     inkscape:pageopacity="0.0"
     inkscape:pageshadow="2"
     inkscape:zoom="0.49497475"
     inkscape:cx="247.21975"
     inkscape:cy="867.84186"
     inkscape:document-units="mm"
     inkscape:current-layer="layer1"
     showgrid="false"
     inkscape:window-width="1920"
     inkscape:window-height="1080"
     inkscape:window-x="0"
     inkscape:window-y="23"
     inkscape:window-maximized="0" />
  <metadata
     id="metadata5">
    <rdf:RDF>
      <cc:Work
         rdf:about="">
        <dc:format>image/svg+xml</dc:format>
        <dc:type
           rdf:resource="http://purl.org/dc/dcmitype/StillImage" />
        <dc:title></dc:title>
      </cc:Work>
    </rdf:RDF>
  </metadata>
  <g
     inkscape:label="Layer 1"
     inkscape:groupmode="layer"
     id="layer1">
    <g
       id="g4615"
       transform="translate(32.050594,42.251944)">
      <g
         id="g4572">
        <g
           id="g4536">
          <rect
             style="fill:#ff2a2a;stroke:#000000;stroke-width:0.26458332"
             id="rect3701"
             width="80.886909"
             height="121.70833"
             x="45.357143"
             y="58.874996" />
          <rect
             y="72.48214"
             x="19.654762"
             height="121.70833"
             width="80.886909"
             id="rect3699"
             style="fill:#ff6600;fill-opacity:1;stroke:#000000;stroke-width:0.26458332" />
          <path
             inkscape:connector-curvature="0"
             id="path4508"
             d="M 19.654762,72.482138 C 45.357142,58.874995 45.357142,58.874995 45.357142,58.874995"
             style="fill:none;stroke:#000000;stroke-width:1;stroke-linecap:butt;stroke-linejoin:miter;stroke-miterlimit:4;stroke-dasharray:none;stroke-opacity:1" />
          <path
             style="fill:none;stroke:#000000;stroke-width:1;stroke-linecap:butt;stroke-linejoin:miter;stroke-miterlimit:4;stroke-dasharray:none;stroke-opacity:1"
             d="M 100.54167,72.482139 C 126.24405,58.874996 126.24405,58.874996 126.24405,58.874996"
             id="path4510"
             inkscape:connector-curvature="0" />
          <path
             inkscape:connector-curvature="0"
             id="path4512"
             d="M 100.54167,72.482139 C 126.24405,58.874996 126.24405,58.874996 126.24405,58.874996"
             style="fill:none;stroke:#000000;stroke-width:1;stroke-linecap:butt;stroke-linejoin:miter;stroke-miterlimit:4;stroke-dasharray:none;stroke-opacity:1" />
          <path
             style="fill:none;stroke:#000000;stroke-width:1;stroke-linecap:butt;stroke-linejoin:miter;stroke-miterlimit:4;stroke-dasharray:none;stroke-opacity:1"
             d="m 100.54167,194.19046 c 25.70238,-13.60714 25.70238,-13.60714 25.70238,-13.60714"
             id="path4514"
             inkscape:connector-curvature="0" />
          <path
             inkscape:connector-curvature="0"
             id="path4518"
             d="m 34.210499,64.475511 -14.55574,8.006628 h 80.886911 l 11.71153,-5.868472 z"
             style="fill:#ff6600;stroke:#000000;stroke-width:0.26458332px;stroke-linecap:butt;stroke-linejoin:miter;stroke-opacity:1" />
          <path
             style="fill:#ff2a2a;stroke:#000000;stroke-width:0.26458332px;stroke-linecap:butt;stroke-linejoin:miter;stroke-opacity:1"
             d="m 45.922033,58.607039 -14.55574,8.006628 H 112.2532 l 11.71153,-5.868472 z"
             id="path4520"
             inkscape:connector-curvature="0" />
          <path
             inkscape:connector-curvature="0"
             id="path4522"
             d="m 112.2532,66.613666 -11.71153,5.868472 V 194.19046 l 13.84969,-7.84005 z"
             style="fill:#ff6600;stroke:#000000;stroke-width:0.26458332px;stroke-linecap:butt;stroke-linejoin:miter;stroke-opacity:1" />
          <path
             style="fill:#ff0000;stroke:#000000;stroke-width:0.26458332px;stroke-linecap:butt;stroke-linejoin:miter;stroke-opacity:1"
             d="m 124.10589,60.846576 -11.71153,5.868472 V 188.42337 l 13.84969,-7.84005 z"
             id="path4524"
             inkscape:connector-curvature="0" />
        </g>
        <path
           style="fill:#483737;fill-opacity:1;stroke:#000000;stroke-width:1;stroke-miterlimit:4;stroke-dasharray:none"
           id="path4538"
           d="m 56.985053,63.863156 c 1.264462,-0.514879 2.400551,-1.287833 3.627853,-1.869903 0.655436,-0.54342 1.501261,-0.662088 2.240298,-1.007116 0.605107,-0.293216 1.299371,-0.408043 1.967759,-0.449561 0.08688,-0.0052 0.181406,0.02045 0.260628,-0.01556 0.157938,-0.07183 0.229661,-0.266461 0.375483,-0.360484 0.160632,-0.103574 0.371769,-0.170391 0.550577,-0.239884 0.490101,0.136866 0.43538,-0.182796 0.90946,-0.301384 0.394719,-0.163285 0.784839,-0.183325 1.204635,-0.1709 0.530934,-0.01201 1.06145,0.0114 1.592239,0.02093 1.502812,-0.05083 2.981616,0.05888 4.463843,0.297376 0.679583,0.157427 1.367782,0.212977 2.06247,0.229272 0.871177,0.109043 1.735333,0.333989 2.616221,0.444622 0.69419,0.187857 1.255342,0.59064 1.864572,0.945107 0.301246,0.335302 0.678817,0.590495 1.056983,0.831469 0.248296,0.11869 0.309404,0.435216 0.348314,0.683565 0.200988,0.283133 0.341355,0.584012 0.442769,0.916037 0.07064,0.379429 0.260546,0.705046 0.461746,1.0281 0,0 -6.884969,4.003384 -6.884969,4.003384 v 0 c -0.235863,-0.382895 -0.499816,-0.780627 -0.605435,-1.221685 -0.06074,-0.300479 -0.192704,-0.535921 -0.368734,-0.789376 -0.0458,-0.08717 -0.100727,-0.170127 -0.137412,-0.261512 -0.09807,-0.244318 0.279911,0.17272 -0.0021,-0.06192 -0.339064,-0.259995 -0.666536,-0.534106 -1.002803,-0.797036 -0.519586,-0.319231 -1.049692,-0.620027 -1.666769,-0.700852 -0.858539,-0.14327 -1.709301,-0.363207 -2.583553,-0.372309 -0.703681,-0.04952 -1.392746,-0.179821 -2.083398,-0.321331 -1.458378,-0.227766 -2.923156,-0.239506 -4.396949,-0.192646 -0.53326,0.0084 -1.068192,0.01119 -1.599676,0.05966 -0.367834,0.07153 -0.708134,0.215405 -1.052581,0.362751 -0.319625,0.185934 -0.645742,0.09806 -0.899888,0.341318 -0.428829,0.230338 -0.805979,0.446495 -1.311587,0.413552 -0.635786,0.134831 -1.248844,0.315947 -1.839463,0.592703 -0.773001,0.250024 -1.454385,0.68075 -2.171663,1.055225 -1.188445,0.659887 -2.414309,1.244301 -3.605929,1.897912 0,0 6.167136,-4.989502 6.167136,-4.989502 z"
           inkscape:connector-curvature="0" />
        <rect
           style="fill:#cccccc;fill-opacity:1;stroke:#000000;stroke-width:1;stroke-miterlimit:4;stroke-dasharray:none"
           id="rect4551"
           width="5.6047378"
           height="44.622726"
           x="60.402912"
           y="15.297917" />
        <rect
           y="15.297917"
           x="94.078873"
           height="44.622726"
           width="5.6047378"
           id="rect4553"
           style="fill:#cccccc;fill-opacity:1;stroke:#000000;stroke-width:1;stroke-miterlimit:4;stroke-dasharray:none" />
        <rect
           style="fill:#483737;fill-opacity:1;stroke:#000000;stroke-width:0.79219425;stroke-miterlimit:4;stroke-dasharray:none"
           id="rect4555"
           width="63.137112"
           height="7.4468079"
           x="47.528847"
           y="8.4020243" />
      </g>
      <ellipse
         ry="5.0781207"
         rx="4.8108511"
         cy="198.91206"
         cx="38.486813"
         id="path4593"
         style="fill:#cccccc;fill-opacity:1;stroke:#000000;stroke-width:1;stroke-miterlimit:4;stroke-dasharray:none" />
      <ellipse
         style="fill:#cccccc;fill-opacity:1;stroke:#000000;stroke-width:1;stroke-miterlimit:4;stroke-dasharray:none"
         id="ellipse4595"
         cx="81.249939"
         cy="198.91206"
         rx="4.8108511"
         ry="5.0781207" />
    </g>
  </g>
</svg>
