<?xml version="1.0" encoding="UTF-8" standalone="no"?>
<!-- Created with Inkscape (http://www.inkscape.org/) -->

<svg
   xmlns:dc="http://purl.org/dc/elements/1.1/"
   xmlns:cc="http://creativecommons.org/ns#"
   xmlns:rdf="http://www.w3.org/1999/02/22-rdf-syntax-ns#"
   xmlns:svg="http://www.w3.org/2000/svg"
   xmlns="http://www.w3.org/2000/svg"
   xmlns:sodipodi="http://sodipodi.sourceforge.net/DTD/sodipodi-0.dtd"
   xmlns:inkscape="http://www.inkscape.org/namespaces/inkscape"
   width="480"
   height="360"
   viewBox="0 0 480.00001 360.00001"
   id="svg2"
   version="1.1"
   inkscape:version="0.91 r13725"
   sodipodi:docname="start_page.svg"
   inkscape:export-filename="/Users/xguo/first.png"
   inkscape:export-xdpi="600"
   inkscape:export-ydpi="600">
  <defs
     id="defs4" />
  <sodipodi:namedview
     id="base"
     pagecolor="#ffffff"
     bordercolor="#666666"
     borderopacity="1.0"
     inkscape:pageopacity="0.0"
     inkscape:pageshadow="2"
     inkscape:zoom="0.7"
     inkscape:cx="640.88126"
     inkscape:cy="271.82023"
     inkscape:document-units="px"
     inkscape:current-layer="layer1"
     showgrid="false"
     units="px"
     inkscape:window-width="1280"
     inkscape:window-height="755"
     inkscape:window-x="0"
     inkscape:window-y="1"
     inkscape:window-maximized="1"
     fit-margin-top="0"
     fit-margin-left="0"
     fit-margin-right="0"
     fit-margin-bottom="0" />
  <metadata
     id="metadata7">
    <rdf:RDF>
      <cc:Work
         rdf:about="">
        <dc:format>image/svg+xml</dc:format>
        <dc:type
           rdf:resource="http://purl.org/dc/dcmitype/StillImage" />
        <dc:title></dc:title>
      </cc:Work>
    </rdf:RDF>
  </metadata>
  <g
     inkscape:label="Layer 1"
     inkscape:groupmode="layer"
     id="layer1"
     transform="translate(-4.7683715e-7,-692.36215)">
    <rect
       style="opacity:1;fill:#ffdd55;fill-opacity:1;stroke:#ffd5d5;stroke-width:5.99999952;stroke-linejoin:round;stroke-miterlimit:4;stroke-dasharray:none;stroke-opacity:1"
       id="rect4323"
       width="474"
       height="354"
       x="3.0000002"
       y="695.36212" />
    <text
       xml:space="preserve"
       style="font-style:normal;font-weight:normal;font-size:24px;line-height:125%;font-family:sans-serif;letter-spacing:0px;word-spacing:0px;fill:#000000;fill-opacity:1;stroke:none;stroke-width:1px;stroke-linecap:butt;stroke-linejoin:miter;stroke-opacity:1"
       x="36.882378"
       y="771.89368"
       id="text4136"
       sodipodi:linespacing="125%"><tspan
         sodipodi:role="line"
         id="tspan4138"
         x="36.882378"
         y="771.89368"
         style="font-style:normal;font-variant:normal;font-weight:normal;font-stretch:normal;font-size:36px;font-family:'.Al Bayan PUA';-inkscape-font-specification:'.Al Bayan PUA'">Jim Guo</tspan><tspan
         sodipodi:role="line"
         x="36.882378"
         y="821.97498"
         style="font-style:normal;font-variant:normal;font-weight:normal;font-stretch:normal;font-size:21px;font-family:'.Al Bayan PUA';-inkscape-font-specification:'.Al Bayan PUA'"
         id="tspan4311">FDIS G2 Kangaroo</tspan></text>
    <path
       sodipodi:type="star"
       style="opacity:1;fill:#ffff00;fill-opacity:1;stroke:#999999;stroke-width:6;stroke-linejoin:round;stroke-miterlimit:4;stroke-dasharray:none;stroke-opacity:1"
       id="path4315"
       sodipodi:sides="5"
       sodipodi:cx="384.24557"
       sodipodi:cy="769.75061"
       sodipodi:r1="20.064571"
       sodipodi:r2="42.690578"
       sodipodi:arg1="0.78539816"
       sodipodi:arg2="1.4137167"
       inkscape:flatsided="false"
       inkscape:rounded="0"
       inkscape:randomized="0"
       d="m 398.43337,783.9384 -7.50952,27.9772 -15.7874,-24.28733 -28.92846,1.50346 18.22004,-22.51991 -10.36925,-27.04801 27.048,10.36926 22.51991,-18.22004 -1.50345,28.92846 24.28732,15.7874 z"
       inkscape:transform-center-x="0.12033852"
       inkscape:transform-center-y="-0.12032128" />
    <path
       sodipodi:type="spiral"
       style="fill:none;fill-rule:evenodd;stroke:#b3b3b3;stroke-width:6;stroke-linecap:butt;stroke-linejoin:miter;stroke-miterlimit:4;stroke-dasharray:none;stroke-opacity:1"
       id="path4317"
       sodipodi:cx="116.57143"
       sodipodi:cy="886.07642"
       sodipodi:expansion="1"
       sodipodi:revolution="3"
       sodipodi:radius="41.285469"
       sodipodi:argument="-18.064157"
       sodipodi:t0="0"
       d="m 116.57143,886.07642 c 1.4637,1.4637 -1.25091,2.69518 -2.43277,2.43276 -3.20279,-0.71111 -3.71766,-4.81348 -2.43277,-7.2983 2.29836,-4.44476 8.2667,-4.96547 12.16385,-2.43277 5.71922,3.71683 6.25025,11.76676 2.43276,17.02939 -5.08811,7.01425 -15.28344,7.5508 -21.89492,2.43276 -8.319881,-6.44053 -8.859505,-18.80806 -2.43277,-26.76047 7.78364,-9.63143 22.33714,-10.17292 31.62601,-2.43276 10.94661,9.12151 11.4893,25.869 2.43276,36.49155 -10.45614,12.26415 -29.40271,12.80766 -41.357086,2.43276 -13.583319,-11.78863 -14.127408,-32.93774 -2.432757,-46.22263 13.119633,-14.90364 36.473703,-15.44815 51.088163,-2.43275 16.22482,14.44956 16.76965,40.01039 2.43275,55.9537" />
    <path
       d="m 337.14285,880.93359 c 2.43951,2.43951 -2.08484,4.49197 -4.05461,4.05462 -5.33798,-1.1852 -6.19609,-8.02248 -4.05462,-12.16385 3.8306,-7.40793 13.77784,-8.27577 20.27308,-4.05461 9.53204,6.19472 10.41709,19.61126 4.05461,28.38231 -8.48018,11.69043 -25.47241,12.58467 -36.49154,4.05461 -13.86646,-10.73421 -14.76584,-31.34676 -4.05461,-44.60078 12.97274,-16.05239 37.22856,-16.95487 52.71001,-4.0546 18.24436,15.20252 19.14884,43.11499 4.0546,60.81924 -17.4269,20.44026 -49.00451,21.34611 -68.92847,4.0546 -22.63886,-19.64772 -23.54568,-54.89622 -4.05459,-77.03771 21.86605,-24.83939 60.7895,-25.74692 85.14693,-4.05459 27.04136,24.0826 27.94942,66.68399 4.05459,93.25617"
       sodipodi:t0="0"
       sodipodi:argument="-18.064157"
       sodipodi:radius="68.809113"
       sodipodi:revolution="3"
       sodipodi:expansion="1"
       sodipodi:cy="880.93359"
       sodipodi:cx="337.14285"
       id="path4319"
       style="fill:none;fill-rule:evenodd;stroke:#ff7f2a;stroke-width:7.16145372;stroke-linecap:butt;stroke-linejoin:miter;stroke-miterlimit:4;stroke-dasharray:none;stroke-opacity:1"
       sodipodi:type="spiral"
       transform="matrix(0.59182092,-0.59303432,0.59182092,0.59303432,-501.56234,643.51574)" />
    <path
       inkscape:transform-center-y="0.16124346"
       inkscape:transform-center-x="3.6735272"
       d="m 186.91279,967.8464 -12.51586,46.6286 -26.31234,-40.47882 -48.214098,2.50575 30.366738,-37.53317 -17.28209,-45.08002 45.08001,17.28209 37.53318,-30.36673 -2.50576,48.2141 40.47887,26.31234 z"
       inkscape:randomized="0"
       inkscape:rounded="0"
       inkscape:flatsided="false"
       sodipodi:arg2="1.4137167"
       sodipodi:arg1="0.78539816"
       sodipodi:r2="71.150963"
       sodipodi:r1="33.440952"
       sodipodi:cy="944.20007"
       sodipodi:cx="163.26646"
       sodipodi:sides="5"
       id="path4321"
       style="opacity:1;fill:#ccff00;fill-opacity:1;stroke:#999999;stroke-width:13.11088467;stroke-linejoin:round;stroke-miterlimit:4;stroke-dasharray:none;stroke-opacity:1"
       sodipodi:type="star"
       transform="matrix(0.44212103,0.11842334,-0.11846597,0.44196194,128.35519,560.42955)" />
    <path
       transform="matrix(0.09839674,-0.25846687,0.25859954,0.09832474,35.187009,847.32314)"
       sodipodi:type="star"
       style="opacity:1;fill:#ff80e5;fill-opacity:1;stroke:#999999;stroke-width:10.84551299;stroke-linejoin:round;stroke-miterlimit:4;stroke-dasharray:none;stroke-opacity:1"
       id="path4325"
       sodipodi:sides="5"
       sodipodi:cx="163.26646"
       sodipodi:cy="944.20007"
       sodipodi:r1="33.440952"
       sodipodi:r2="71.150963"
       sodipodi:arg1="0.78539816"
       sodipodi:arg2="1.4137167"
       inkscape:flatsided="false"
       inkscape:rounded="0"
       inkscape:randomized="0"
       d="m 186.91279,967.8464 -12.51586,46.6286 -26.31234,-40.47882 -48.214098,2.50575 30.366738,-37.53317 -17.28209,-45.08002 45.08001,17.28209 37.53318,-30.36673 -2.50576,48.2141 40.47887,26.31234 z"
       inkscape:transform-center-x="1.0286417"
       inkscape:transform-center-y="3.0272082" />
    <path
       inkscape:transform-center-y="-6.4487675"
       inkscape:transform-center-x="-3.1778081"
       d="m 186.91279,967.8464 -12.51586,46.6286 -26.31234,-40.47882 -48.214098,2.50575 30.366738,-37.53317 -17.28209,-45.08002 45.08001,17.28209 37.53318,-30.36673 -2.50576,48.2141 40.47887,26.31234 z"
       inkscape:randomized="0"
       inkscape:rounded="0"
       inkscape:flatsided="false"
       sodipodi:arg2="1.4137167"
       sodipodi:arg1="0.78539816"
       sodipodi:r2="71.150963"
       sodipodi:r1="33.440952"
       sodipodi:cy="944.20007"
       sodipodi:cx="163.26646"
       sodipodi:sides="5"
       id="path4327"
       style="opacity:1;fill:#ffaaaa;fill-opacity:1;stroke:#999999;stroke-width:13.11088467;stroke-linejoin:round;stroke-miterlimit:4;stroke-dasharray:none;stroke-opacity:1"
       sodipodi:type="star"
       transform="matrix(0.26984409,0.36970158,-0.36963491,0.26969348,580.28622,460.636)" />
    <g
       id="g3553"
       transform="translate(-24.285714,22.857143)">
      <path
         style="fill:#f9d0a4"
         d="m 394.24657,1007.2472 c -3.61532,-0.4965 -6.61464,-2.3039 -8.4392,-5.0855 -0.64432,-0.9822 -6.27435,-12.26384 -7.72433,-15.47811 -2.56328,-5.68226 -3.85318,-9.25013 -4.01054,-11.09318 -0.0815,-0.95474 0.0709,-1.66776 0.5924,-2.77086 0.73373,-1.55208 1.84483,-3.11795 5.74773,-8.10024 5.30342,-6.77013 7.45469,-10.80031 7.88159,-14.76528 0.46205,-4.2915 -1.7278,-9.9034 -6.21761,-15.93379 -1.56146,-2.09723 -4.1098,-5.08563 -4.23334,-4.96435 -0.0385,0.0378 -0.25497,0.90565 -0.48105,1.92857 -1.30676,5.91269 -3.63891,14.25335 -5.25348,18.78842 -3.12491,8.77739 -7.09241,16.0614 -11.90533,21.85714 -1.11734,1.34551 -3.93092,4.17396 -5.13198,5.15909 -4.8107,3.94582 -9.68615,5.86495 -13.95741,5.49407 -5.4216,-0.47076 -10.61068,-5.16237 -15.16013,-13.70673 -0.53558,-1.00589 -1.42684,-2.93455 -1.572,-3.40179 -0.17312,-0.5572 0.20033,-0.15884 1.10483,1.17857 3.21353,4.75157 6.94814,7.64029 10.82941,8.37655 1.12161,0.21278 2.95569,0.21398 3.86244,0.003 0.91771,-0.21399 2.65531,-1.07746 3.57778,-1.77792 5.38289,-4.08737 10.76012,-15.14145 14.35533,-29.51053 1.08615,-4.34108 1.48017,-6.49311 2.26434,-12.36745 0.90974,-6.8149 1.60871,-10.88395 2.63024,-15.3119 2.91037,-12.61526 7.46624,-21.99179 13.69733,-28.19072 0.86035,-0.85591 2.0223,-1.92156 2.58213,-2.36812 4.72177,-3.76646 9.97336,-5.86497 16.31606,-6.51979 1.75785,-0.18148 4.95909,-0.15683 6.34465,0.0489 6.73351,0.99955 16.07651,5.01064 27.21428,11.68349 2.62989,1.57561 6.22803,3.85968 8.1188,5.15375 1.28955,0.88258 1.34012,0.89421 2.93595,0.67506 2.50735,-0.34433 4.5592,-1.66078 6.04074,-3.87572 0.73051,-1.09212 1.14305,-1.91584 2.33081,-4.65405 0.46485,-1.07164 1.05731,-2.32348 1.31658,-2.78186 0.56051,-0.99094 1.72466,-2.26245 2.39893,-2.62014 0.26576,-0.14099 0.48319,-0.28318 0.48319,-0.31599 0,-0.0328 -0.36144,-0.12038 -0.8032,-0.19461 -1.89144,-0.31782 -3.98953,-1.16198 -5.71134,-2.29796 -2.73249,-1.80278 -4.7637,-4.19296 -6.44052,-7.57875 -0.7276,-1.46916 -1.57206,-3.77032 -1.45381,-3.96166 0.20654,-0.33419 3.912,0.14871 7.10821,0.92637 0.84625,0.2059 1.56262,0.35037 1.59193,0.32106 0.0293,-0.0293 -0.32142,-1.12117 -0.7794,-2.42635 -0.90705,-2.58493 -0.90961,-2.62636 -0.15472,-2.50356 0.84934,0.13817 2.90626,0.72943 4.22229,1.21369 4.90386,1.80448 8.62575,4.24573 10.29029,6.74955 0.6776,1.01925 1.4314,2.65479 2.05061,4.44923 0.2837,0.82218 0.59477,1.57381 0.69125,1.67029 0.1195,0.1195 0.45436,0.19694 1.05034,0.24289 2.33997,0.18045 5.21605,1.6676 8.84531,4.57371 2.1813,1.74667 3.50183,3.24796 5.37365,6.10927 1.00036,1.52919 1.45865,2.08413 3.84215,4.65245 1.99693,2.15178 4.07447,4.49197 4.57197,5.14998 0.22302,0.29498 0.59989,0.92471 0.83748,1.39941 1.32399,2.64524 0.94153,5.37271 -1.21188,8.64245 -0.67858,1.03034 -1.23903,1.48224 -2.17623,1.75469 -0.54765,0.15921 -0.68097,0.14684 -4.76996,-0.44249 l -4.20656,-0.60628 -1.39286,0.27142 c -0.76607,0.14928 -1.73035,0.31967 -2.14285,0.37864 -3.84877,0.55019 -7.04358,-0.0661 -9.29076,-1.79231 -0.39563,-0.30391 -0.73971,-0.55256 -0.76463,-0.55256 -0.0987,0 -1.26087,1.4951 -1.6002,2.05861 -0.33764,0.56072 -0.36914,0.6965 -0.49514,2.13468 -0.48778,5.56749 -1.90262,10.57289 -3.70579,13.11028 -1.26282,1.77701 -3.75463,3.71073 -9.02741,7.00553 l -1.41964,0.88709 0,7.92539 c 0,6.89791 -0.0223,8.02367 -0.1724,8.68335 -0.44413,1.95267 -1.65871,3.93597 -3.13695,5.12233 -1.80503,1.44865 -4.787,2.33524 -7.49977,2.22983 -1.44223,-0.056 -2.04229,-0.29703 -2.79771,-1.12357 -1.33609,-1.4619 -1.25364,-3.96034 0.17503,-5.30425 0.57829,-0.54396 1.41979,-0.83808 2.6942,-0.94166 1.22134,-0.0993 2.30075,-0.4002 2.60232,-0.72551 0.26658,-0.28756 0.64595,-1.28005 0.65777,-1.7208 0.008,-0.29812 -0.44192,-1.37935 -1.83613,-4.41273 -1.01571,-2.20982 -1.90305,-4.07414 -1.9719,-4.14293 -0.0954,-0.0953 -0.3035,-0.0907 -0.87518,0.0193 -1.47069,0.2831 -3.77637,0.49433 -5.46428,0.50059 -1.36401,0.005 -2.07552,-0.0519 -3.48215,-0.27852 -0.97232,-0.15668 -1.86316,-0.29516 -1.97965,-0.30773 -0.16907,-0.0182 -0.34604,0.23183 -0.87732,1.23974 -2.28658,4.338 -6.5684,9.37893 -11.0716,13.03444 -0.82497,0.66967 -1.61074,1.48485 -6.25817,6.49237 -8.14951,8.78092 -13.71005,15.26262 -15.39106,17.94072 -0.75859,1.20855 -0.48381,2.10385 2.43407,7.93059 1.79796,3.59036 3.21568,6.24906 6.22759,11.67856 2.41498,4.35354 2.56155,4.64954 2.8322,5.71984 0.53814,2.128 -0.16253,3.5477 -2.04853,4.1506 -0.81976,0.262 -3.00113,0.3617 -4.22809,0.1932 z"
         id="path3541"
         inkscape:connector-curvature="0" />
      <path
         style="fill:#f7ac5c"
         d="m 394.48341,1007.133 c -3.45969,-0.3966 -6.51991,-2.1276 -8.33782,-4.7162 -0.28682,-0.4085 -1.44682,-2.58474 -2.57777,-4.83614 -1.13094,-2.2514 -2.14327,-4.2381 -2.24962,-4.4149 -0.3065,-0.5096 -2.61406,-5.3727 -3.6096,-7.60717 -2.27574,-5.10794 -3.56575,-8.89794 -3.56575,-10.47603 0,-1.6907 1.22524,-3.72636 5.62489,-9.3454 3.85658,-4.92547 5.41735,-7.20266 6.75599,-9.85714 1.95033,-3.86744 2.395,-6.76788 1.58511,-10.33929 -0.69056,-3.0452 -2.62767,-6.98285 -5.27087,-10.71428 -1.52313,-2.15022 -4.66161,-5.8934 -5.01423,-5.98033 -0.0756,-0.0186 -0.1622,0.0778 -0.19237,0.21428 -0.0302,0.13651 -0.22825,1.04373 -0.44018,2.01605 -0.69619,3.19396 -1.72215,7.14502 -3.16285,12.18029 -3.26168,11.39968 -7.61354,20.38121 -13.37617,27.60618 -1.37916,1.72915 -4.5969,4.9824 -6.11646,6.18396 -2.53081,2.0012 -5.12821,3.46974 -7.55358,4.27072 -2.09411,0.69157 -2.84609,0.81328 -4.98214,0.80628 -1.73018,-0.006 -1.94947,-0.0289 -2.83928,-0.30064 -3.90885,-1.1938 -7.40008,-4.21749 -10.71781,-9.28251 -1.46006,-2.22902 -3.11492,-5.2459 -3.54288,-6.45885 -0.19703,-0.55846 -0.0262,-0.41516 0.58795,0.49302 2.90502,4.29623 6.49857,7.18971 10.07415,8.11157 3.25221,0.8385 5.88239,0.25288 8.60356,-1.91564 5.18945,-4.1355 10.39812,-14.9153 13.95969,-28.89081 1.13451,-4.45177 1.5922,-6.9063 2.35747,-12.64286 1.18091,-8.85222 2.21182,-14.30085 3.74935,-19.81624 5.10996,-18.33025 14.31326,-29.10162 27.32137,-31.97644 2.48092,-0.54829 3.92767,-0.69262 7.01786,-0.70014 2.6401,-0.006 3.0801,0.0183 4.23214,0.23748 6.76948,1.28812 15.36023,5.03308 25.82143,11.2563 2.60715,1.55096 6.34288,3.91063 8.38712,5.29772 l 1.42284,0.96545 1.04145,-0.0643 c 2.3852,-0.14732 4.5703,-1.18018 6.00173,-2.83692 1.04753,-1.21241 1.76745,-2.49208 2.98686,-5.30915 0.96441,-2.22801 1.63607,-3.53941 2.21468,-4.32413 0.52391,-0.71053 1.40115,-1.47001 1.97952,-1.71378 0.1956,-0.0824 0.33794,-0.20296 0.31633,-0.26781 -0.0216,-0.0649 -0.56738,-0.22589 -1.21278,-0.35783 -5.11763,-1.04626 -9.21778,-4.42407 -11.83179,-9.74732 -0.62782,-1.27851 -1.39525,-3.31736 -1.39525,-3.7068 0,-0.16449 0.0783,-0.20391 0.40499,-0.20391 1.24647,0 4.9501,0.61494 7.04144,1.16915 0.64822,0.17177 1.21408,0.27857 1.25747,0.23733 0.0434,-0.0412 -0.0937,-0.55538 -0.30457,-1.14252 -1.12584,-3.13417 -1.29923,-3.69003 -1.18048,-3.7842 0.29044,-0.23032 3.8825,0.81026 6.2286,1.80435 3.7386,1.58412 6.78952,3.65475 8.25368,5.60169 0.70275,0.93446 1.58485,2.74245 2.25997,4.63205 0.75646,2.11728 0.76152,2.12353 1.79884,2.21883 2.4076,0.2212 4.96898,1.49938 8.54335,4.26332 2.31223,1.78797 3.77267,3.40566 5.65857,6.26785 1.22166,1.8541 1.28058,1.92618 3.84394,4.70229 4.47196,4.84314 5.33848,5.968 5.8693,7.61914 0.51929,1.61532 0.4434,3.22223 -0.23346,4.94305 -0.34158,0.86843 -1.44731,2.77485 -1.95017,3.36231 -0.48642,0.56827 -1.33643,0.96864 -2.07181,0.97584 -0.3192,0.003 -2.34019,-0.24697 -4.49108,-0.55578 l -3.91072,-0.56147 -1.5,0.28621 c -2.297,0.43828 -2.9784,0.51407 -4.66071,0.51842 -2.89472,0.007 -4.99935,-0.62663 -6.71335,-2.0227 -0.31313,-0.25505 -0.61377,-0.46373 -0.66807,-0.46373 -0.16279,0 -1.08263,1.0728 -1.61385,1.88221 l -0.49695,0.75722 -0.18817,1.91975 c -0.53317,5.43944 -1.75373,9.88391 -3.41643,12.44038 -1.24184,1.90936 -3.2624,3.54993 -8.22461,6.67789 -1.14911,0.72435 -2.17366,1.39 -2.27679,1.47923 -0.17534,0.15172 -0.1875,0.66413 -0.1875,7.90407 0,8.36076 -0.0104,8.54147 -0.58061,10.0531 -1.03664,2.74825 -3.1016,4.62999 -6.00368,5.47098 -1.29868,0.37634 -3.14792,0.62592 -4.24801,0.57332 -2.16068,-0.1033 -3.45934,-1.44309 -3.45934,-3.56887 0,-1.11364 0.27096,-1.80004 0.99736,-2.52643 0.73697,-0.73697 1.25774,-0.92926 2.87196,-1.06046 0.78883,-0.0641 1.37993,-0.17709 1.80634,-0.34524 0.60233,-0.23751 0.65195,-0.28592 0.9981,-0.97368 0.62602,-1.2438 0.65123,-1.14705 -1.50917,-5.79178 -1.03729,-2.2301 -1.93334,-4.10208 -1.99121,-4.15996 -0.0689,-0.0689 -0.56318,-0.029 -1.43098,0.11557 -3.25962,0.5429 -6.10995,0.56685 -8.92519,0.075 -0.87969,-0.15369 -1.63504,-0.27944 -1.67854,-0.27944 -0.0435,0 -0.37618,0.56652 -0.73927,1.25893 -2.20969,4.21388 -5.97475,8.71684 -10.60776,12.68673 -1.50779,1.29199 -2.86981,2.69018 -7.3451,7.54015 -6.86225,7.43677 -11.2345,12.44973 -13.54689,15.53205 -1.31562,1.75367 -1.74211,2.50207 -1.73463,3.04397 0.0193,1.39693 3.4204,8.28816 9.49663,19.2417 2.03131,3.66184 2.37298,4.41544 2.54613,5.61584 0.0996,0.6903 0.0897,0.9068 -0.0655,1.437 -0.51065,1.7441 -2.60808,2.4789 -5.97432,2.093 z"
         id="path3539"
         inkscape:connector-curvature="0" />
      <path
         style="fill:#fda525"
         d="m 394.39285,1007.0785 c -2.91568,-0.4379 -4.96542,-1.3528 -6.77857,-3.0257 -1.23627,-1.1407 -1.75043,-1.9872 -4.32088,-7.11434 -5.51515,-11.00074 -8.0745,-16.88764 -8.83686,-20.3263 -0.27539,-1.24217 -0.25972,-1.89288 0.0692,-2.87396 0.57636,-1.71913 1.43241,-2.97585 6.15043,-9.02901 3.46945,-4.45125 4.73967,-6.33387 6.06557,-8.98988 0.72473,-1.45179 1.29487,-2.98735 1.61113,-4.33929 0.30047,-1.28442 0.27607,-4.00263 -0.0494,-5.50249 -0.9483,-4.37032 -3.69192,-9.34648 -8.01293,-14.53322 -1.50077,-1.80145 -2.47671,-2.80313 -2.60557,-2.67428 -0.0578,0.0578 -0.27768,0.90013 -0.48861,1.87183 -1.07433,4.94918 -3.23584,12.87598 -4.76192,17.46316 -5.82765,17.51708 -15.61408,30.10839 -25.93556,33.36894 -2.09065,0.66044 -4.71115,0.88729 -6.42747,0.55642 -3.98284,-0.7678 -7.83401,-3.85776 -11.34351,-9.10142 -1.29788,-1.9392 -3.07907,-5.12293 -3.45035,-6.16722 -0.1,-0.28116 -0.0998,-0.28127 0.0879,-0.0535 0.10344,0.12552 0.48424,0.63341 0.8462,1.12865 2.42828,3.32236 5.63197,5.86168 8.60974,6.82427 2.45821,0.79466 4.90862,0.74618 6.90178,-0.13652 1.63718,-0.72505 3.73681,-2.49489 5.34907,-4.50889 4.30739,-5.3807 8.4237,-15.07896 11.27791,-26.57142 1.0829,-4.36028 1.51381,-6.68578 2.18386,-11.78572 1.39946,-10.65164 2.76495,-17.28255 4.89814,-23.78571 2.23424,-6.81122 5.01781,-12.29962 8.55855,-16.875 1.10745,-1.43106 4.18896,-4.57111 5.50926,-5.61391 3.19012,-2.51963 7.16221,-4.5004 10.98039,-5.47562 5.00953,-1.2795 9.97655,-1.37009 14.48365,-0.26414 7.77053,1.90673 19.05026,7.51326 30.99147,15.40416 l 2.50909,1.65803 0.97305,-0.065 c 3.07244,-0.20514 5.36707,-1.5646 7.08431,-4.19713 0.71362,-1.09396 1.04119,-1.75132 2.21367,-4.44219 0.52535,-1.20571 1.18145,-2.574 1.45799,-3.04066 0.62552,-1.05553 1.49131,-1.96749 2.3021,-2.42485 0.89768,-0.50638 0.80594,-0.6207 -0.72786,-0.90704 -5.64563,-1.05397 -10.32757,-5.45478 -12.7402,-11.97523 -0.51313,-1.38679 -0.50851,-1.47789 0.075,-1.47789 1.20541,0 5.1596,0.67863 7.19683,1.23515 0.53073,0.14498 1.00112,0.22137 1.05171,0.17079 0.0506,-0.0506 -0.27107,-1.11795 -0.71913,-2.3864 -0.44585,-1.26219 -0.81064,-2.36012 -0.81064,-2.43983 0,-0.55097 4.6319,0.92431 7.875,2.50822 2.89998,1.41634 5.08507,2.99359 6.30209,4.54898 0.77847,0.99492 1.74003,2.90533 2.42313,4.81423 0.81654,2.28177 0.79805,2.2584 1.78783,2.26168 1.45949,0.005 4.36935,1.22472 6.52266,2.73445 3.80359,2.66678 5.27509,4.15588 7.72817,7.82059 0.6997,1.04528 1.64134,2.28383 2.20981,2.9066 0.54483,0.59684 2.14774,2.34876 3.56201,3.89316 2.67017,2.91582 3.05652,3.41074 3.64127,4.66452 0.47949,1.02806 0.63948,1.75914 0.63309,2.89286 -0.0111,1.96984 -0.98013,4.28765 -2.49192,5.96048 -1.1633,1.28722 -1.18201,1.28893 -6.17528,0.56413 -2.23929,-0.32505 -4.24018,-0.56837 -4.44643,-0.54072 -0.20626,0.0276 -1.03141,0.17338 -1.83369,0.32383 -0.80228,0.15046 -2.12169,0.32878 -2.93206,0.39627 -3.21179,0.26749 -5.98069,-0.41271 -7.85086,-1.92862 -0.3686,-0.29877 -0.71332,-0.54323 -0.76604,-0.54323 -0.16564,0 -1.20418,1.19972 -1.71786,1.98447 l -0.49247,0.75233 -0.18883,1.96496 c -0.51832,5.39328 -1.73709,9.80406 -3.43376,12.42684 -1.19313,1.8444 -3.50371,3.68019 -8.8364,7.02069 l -1.85557,1.16234 0.022,8.04954 c 0.0245,8.95833 0.0437,8.68055 -0.71228,10.33253 -1.27726,2.79133 -3.28003,4.37245 -6.57508,5.19079 -0.74582,0.18523 -1.25547,0.2288 -2.73784,0.23405 -1.77253,0.006 -1.8358,-10e-4 -2.35714,-0.27861 -0.68254,-0.36321 -1.15578,-0.85859 -1.46773,-1.53636 -0.20517,-0.44577 -0.24656,-0.71559 -0.24656,-1.60714 0,-0.95568 0.0323,-1.13719 0.29894,-1.68017 0.57801,-1.17702 1.43533,-1.67118 3.13543,-1.80726 1.20051,-0.0961 1.78679,-0.22594 2.46996,-0.54707 0.37334,-0.17549 0.49508,-0.31724 0.73868,-0.86004 0.37631,-0.83852 0.43609,-1.32568 0.23502,-1.915 -0.25641,-0.7515 -3.59024,-7.94859 -3.76107,-8.11942 -0.13341,-0.13341 -0.33453,-0.124 -1.52816,0.0715 -3.34098,0.54733 -5.94511,0.56931 -8.80546,0.0743 -0.90488,-0.1566 -1.70642,-0.26124 -1.78121,-0.23254 -0.0748,0.0287 -0.43445,0.62253 -0.79926,1.31962 -0.90849,1.73596 -2.62643,4.27995 -4.14798,6.14245 -1.51241,1.85132 -4.62028,4.99553 -6.41925,6.49432 -1.29979,1.0829 -2.88928,2.71617 -7.55107,7.75903 -8.05984,8.7187 -13.21262,14.7661 -14.70752,17.26103 -0.36721,0.61285 -0.40445,0.74182 -0.36711,1.27133 0.0259,0.36734 0.21963,1.03318 0.51434,1.76786 0.77499,1.93198 4.47747,9.30612 5.99817,11.94642 0.86169,1.4961 4.34774,7.80954 4.71371,8.53684 0.56339,1.1196 0.76533,1.7998 0.82532,2.7801 0.0641,1.0477 -0.0685,1.5162 -0.59388,2.0977 -0.76064,0.8419 -1.84346,1.1604 -3.87831,1.1406 -0.73661,-0.01 -1.45982,-0.031 -1.60714,-0.053 z"
         id="path3537"
         inkscape:connector-curvature="0" />
      <path
         style="fill:#f68b11"
         d="m 394.39285,1007.0785 c -2.91568,-0.4379 -4.96542,-1.3528 -6.77857,-3.0257 -1.18056,-1.0893 -1.76786,-2.0287 -3.80712,-6.08984 -6.74327,-13.42905 -9.86679,-21.09662 -9.49863,-23.31703 0.20063,-1.20993 1.07144,-2.85357 2.67771,-5.05414 1.12956,-1.54748 6.08994,-7.89299 7.82954,-10.01583 5.3912,-6.57894 7.92273,-11.56484 8.89421,-17.51737 0.2681,-1.64269 0.27003,-5.2005 0.004,-6.91071 -0.89894,-5.77397 -3.18063,-10.27525 -7.30901,-14.41908 -4.19826,-4.21397 -9.53863,-6.9144 -12.5906,-6.36659 -0.94253,0.16918 -1.49686,0.43265 -2.02821,0.96401 -0.87238,0.87237 -0.98389,1.31388 -1.55606,6.16094 -2.05391,17.39934 -6.00623,32.43858 -11.31057,43.03862 -4.13745,8.26817 -9.41829,14.35061 -14.67828,16.90638 -0.96128,0.46706 -1.2569,0.56027 -1.94122,0.61203 -2.25425,0.17048 -5.10192,-0.81933 -7.53197,-2.61803 -1.20679,-0.89326 -3.175,-2.84801 -4.31598,-4.28648 -1.00158,-1.26272 -2.40801,-3.35561 -3.28799,-4.8928 -0.86991,-1.51961 -1.83764,-3.51577 -1.51103,-3.11686 0.14475,0.17679 0.64675,0.80521 1.11555,1.39651 1.11503,1.40638 3.1527,3.36191 4.37555,4.19918 2.57373,1.76221 5.23326,2.60673 7.72511,2.4531 4.42263,-0.27269 8.66104,-4.40369 12.60022,-12.28093 3.26401,-6.52709 6.17579,-15.33402 7.93497,-24 0.53052,-2.61339 0.65598,-3.39953 1.18837,-7.44643 0.48103,-3.6565 0.92751,-6.6674 1.33783,-9.02187 2.80478,-16.09408 7.76629,-27.5711 15.04381,-34.79956 2.4646,-2.44799 4.90475,-4.19451 7.93644,-5.68046 4.40965,-2.16135 8.4711,-3.07834 13.71429,-3.0964 2.85835,-0.01 3.91562,0.12363 6.78486,0.85653 7.77725,1.98658 19.50756,7.89206 31.03657,15.62498 l 1.92857,1.29356 0.69643,-0.0238 c 2.69365,-0.0919 4.90128,-1.09824 6.5626,-2.99137 1.04284,-1.18834 1.69313,-2.36084 3.08064,-5.55449 1.52396,-3.50768 2.3511,-4.72907 3.73816,-5.51991 0.4868,-0.27755 0.6473,-0.42639 0.62743,-0.58188 -0.0221,-0.17313 -0.19195,-0.24119 -0.99097,-0.39715 -3.15901,-0.61657 -5.73533,-1.95186 -8.01456,-4.15388 -1.75297,-1.69359 -3.11828,-3.6227 -4.19567,-5.92824 -0.54281,-1.16157 -1.29612,-3.26974 -1.202,-3.36385 0.0869,-0.0869 2.87626,0.23846 4.30508,0.50212 0.64822,0.11961 1.88892,0.39354 2.75711,0.60874 0.8682,0.21519 1.6134,0.35641 1.65599,0.31381 0.0426,-0.0426 -0.10569,-0.59386 -0.32953,-1.22503 -0.98895,-2.7886 -1.27334,-3.67209 -1.20427,-3.74116 0.23228,-0.23228 3.85889,0.82653 6.1207,1.78699 3.61065,1.53322 6.57605,3.51341 8.01447,5.35178 0.79029,1.01002 1.68354,2.78756 2.37912,4.73438 0.84364,2.36125 0.75585,2.25671 2.0295,2.41666 2.58296,0.32439 5.18426,1.67376 8.7912,4.56028 2.13277,1.70679 3.50734,3.28775 5.44913,6.26734 0.97732,1.49963 0.94491,1.46151 4.56824,5.37407 3.52848,3.81013 3.74771,4.06548 4.26118,4.96321 1.57484,2.75337 1.39402,5.41075 -0.57631,8.46939 -0.97416,1.51224 -1.91002,2.21979 -2.93899,2.222 -0.26772,5.4e-4 -2.13643,-0.24002 -4.15269,-0.53467 -2.01626,-0.29464 -3.87719,-0.53571 -4.13538,-0.53571 -0.2582,0 -0.93823,0.0965 -1.51118,0.21434 -5.1434,1.0583 -8.80285,0.5873 -11.42909,-1.471 -0.33606,-0.26338 -0.69335,-0.46002 -0.7989,-0.43969 -0.23465,0.0452 -1.31913,1.32107 -1.81068,2.13024 -0.34495,0.56787 -0.3702,0.68124 -0.533,2.3942 -0.42057,4.42516 -1.34366,8.33953 -2.59768,11.01556 -0.83378,1.77924 -1.82076,2.9755 -3.71355,4.50097 -1.02908,0.82938 -4.20614,2.97635 -6.47998,4.37901 -0.61223,0.37766 -1.1814,0.79082 -1.2648,0.91811 -0.1285,0.19613 -0.14178,1.27521 -0.087,7.07164 0.0356,3.7621 0.0683,7.32233 0.0726,7.91162 0.0257,3.48379 -2.28608,6.77987 -5.63772,8.03817 -1.56508,0.58758 -2.43484,0.73412 -4.39855,0.74108 -1.77253,0.006 -1.8358,-10e-4 -2.35714,-0.27861 -0.68254,-0.36321 -1.15578,-0.85859 -1.46773,-1.53636 -0.20517,-0.44577 -0.24656,-0.71559 -0.24656,-1.60714 0,-0.95568 0.0323,-1.13719 0.29894,-1.68017 0.57801,-1.17702 1.43533,-1.67118 3.13543,-1.80726 1.20051,-0.0961 1.78679,-0.22594 2.46996,-0.54707 0.37179,-0.17476 0.49527,-0.31767 0.73385,-0.84928 0.37157,-0.82797 0.44095,-1.29241 0.27573,-1.84579 -0.2147,-0.71914 -3.56885,-8.02174 -3.82342,-8.32426 -0.12721,-0.15118 -0.89858,-1.93663 -1.71415,-3.96767 l -1.48285,-3.69278 10e-4,-0.96429 c 0.001,-0.8004 0.0442,-1.04623 0.25231,-1.44643 0.39146,-0.7526 0.7486,-1.06829 3.49554,-3.08979 l 2.57143,-1.89235 -0.53572,-0.0267 c -1.81659,-0.0905 -3.95557,-0.68719 -5.83921,-1.62893 -1.81878,-0.90932 -3.12347,-1.82943 -5.06342,-3.57092 -2.29646,-2.06156 -4.35109,-3.59171 -6.40091,-4.76699 -3.05131,-1.7495 -6.34162,-2.76638 -8.67857,-2.68215 l -0.91071,0.0328 1.23214,0.84953 c 6.29818,4.3424 10.02596,8.55523 11.77007,13.30155 1.14998,3.12948 1.28723,6.81634 0.38326,10.29549 -0.34372,1.32294 -0.99437,3.06469 -1.18646,3.17607 -0.0824,0.0478 -0.36829,0.52178 -0.63522,1.05327 -1.04589,2.08248 -2.61989,4.43073 -4.47285,6.67297 -1.32443,1.60269 -4.86621,5.1489 -6.45994,6.46803 -1.13257,0.93742 -3.68512,3.59248 -8.67488,9.02324 -8.2912,9.02401 -13.31394,15.07621 -13.76713,16.58886 -0.1096,0.36577 -0.0949,0.53067 0.1067,1.19425 0.12862,0.42344 0.47843,1.33233 0.77737,2.01974 1.01563,2.33542 4.90529,9.96149 5.71981,11.21419 0.40891,0.6289 4.09375,7.2557 4.65757,8.37614 0.56339,1.1196 0.76533,1.7998 0.82532,2.78 0.0641,1.0477 -0.0685,1.5163 -0.59388,2.0978 -0.76065,0.8419 -1.84346,1.1604 -3.87831,1.1405 -0.73661,-0.01 -1.45982,-0.031 -1.60715,-0.053 z"
         id="path3535"
         inkscape:connector-curvature="0" />
      <path
         style="fill:#785447"
         d="m 394.39285,1007.0785 c -3.63697,-0.5462 -6.19187,-1.9611 -8.04669,-4.4562 -0.70715,-0.9513 -4.97018,-9.32574 -4.87438,-9.57534 0.049,-0.1277 1.09814,-0.1465 6.87187,-0.1231 l 6.81405,0.028 1.99059,3.5893 c 3.13667,5.65584 3.23311,5.86914 3.3239,7.35264 0.0641,1.0477 -0.0685,1.5162 -0.59389,2.0977 -0.76064,0.8419 -1.84345,1.1604 -3.8783,1.1406 -0.73661,-0.01 -1.45982,-0.031 -1.60715,-0.053 z m 39.32144,-50.05919 c -0.96531,-0.32113 -1.66267,-0.9253 -2.05703,-1.78215 -0.34534,-0.75035 -0.35653,-2.44088 -0.0209,-3.16615 0.57838,-1.25005 1.47074,-1.78931 3.18841,-1.92679 1.22018,-0.0977 1.8048,-0.22648 2.49031,-0.5487 0.37329,-0.17547 0.49703,-0.31951 0.75036,-0.87352 0.3091,-0.67595 0.39216,-1.46006 0.20934,-1.97591 l -0.0854,-0.24107 3.64621,0 3.64622,0 0.0744,0.79371 c 0.3001,3.20239 -1.45789,6.67359 -4.2046,8.30214 -0.8509,0.50451 -1.86814,0.90252 -3.07533,1.20325 -0.94231,0.23475 -4.06088,0.38185 -4.56187,0.21519 z m 51,-47.38478 c -0.96394,-0.55272 -2.12662,-1.81624 -2.65605,-2.8864 -1.2338,-2.49391 -0.96637,-5.0387 0.7726,-7.35206 0.63799,-0.84868 2.04143,-2.06962 2.37899,-2.06962 0.22236,0 1.79175,1.87005 2.26514,2.69909 1.18916,2.08254 1.36314,3.96192 0.57335,6.19377 -0.56062,1.58422 -1.94813,3.66761 -2.48067,3.72477 -0.14524,0.0156 -0.52927,-0.1237 -0.85336,-0.30955 z M 466.8602,892.7213 c -1.47467,-0.38661 -2.5788,-1.10845 -3.05718,-1.99868 -0.36996,-0.68849 -0.46407,-1.14664 -0.26878,-1.30871 0.11161,-0.0926 1.50099,-0.118 5.33513,-0.0974 l 5.18419,0.0278 0.0371,0.26315 c 0.17013,1.20577 -1.56585,2.74357 -3.57285,3.16495 -1.04771,0.21997 -2.71236,0.1967 -3.65765,-0.0511 z"
         id="path3531"
         inkscape:connector-curvature="0" />
      <path
         style="fill:#4e332c"
         d="m 467.4107,892.7109 c -2.07312,-0.35021 -3.80356,-1.68531 -3.80356,-2.93458 l 0,-0.2713 5.19643,0 5.19643,0 -0.002,0.24107 c -10e-4,0.13259 -0.0935,0.44172 -0.20479,0.68695 -0.76942,1.69459 -3.68176,2.73403 -6.38214,2.27786 z"
         id="path3529"
         inkscape:connector-curvature="0" />
    </g>
  </g>
</svg>
