<?xml version="1.0" encoding="UTF-8" standalone="no"?>
<!-- Created with Inkscape (http://www.inkscape.org/) -->

<svg
   xmlns:dc="http://purl.org/dc/elements/1.1/"
   xmlns:cc="http://creativecommons.org/ns#"
   xmlns:rdf="http://www.w3.org/1999/02/22-rdf-syntax-ns#"
   xmlns:svg="http://www.w3.org/2000/svg"
   xmlns="http://www.w3.org/2000/svg"
   xmlns:xlink="http://www.w3.org/1999/xlink"
   xmlns:sodipodi="http://sodipodi.sourceforge.net/DTD/sodipodi-0.dtd"
   xmlns:inkscape="http://www.inkscape.org/namespaces/inkscape"
   width="964.1875"
   height="465.84375"
   id="svg8112"
   version="1.1"
   inkscape:version="0.48.1 "
   sodipodi:docname="Chinese Coins.svg">
  <defs
     id="defs8114">
    <linearGradient
       id="linearGradient3870">
      <stop
         style="stop-color:#958355;stop-opacity:1;"
         offset="0"
         id="stop3872" />
      <stop
         id="stop3878"
         offset="0.33000001"
         style="stop-color:#7f6934;stop-opacity:1;" />
      <stop
         style="stop-color:#ceb572;stop-opacity:1;"
         offset="0.66000003"
         id="stop3880" />
      <stop
         style="stop-color:#a78b43;stop-opacity:1;"
         offset="1"
         id="stop3874" />
    </linearGradient>
    <linearGradient
       inkscape:collect="always"
       xlink:href="#linearGradient3870"
       id="linearGradient3876"
       x1="49.911419"
       y1="133.46228"
       x2="512.83344"
       y2="597.89722"
       gradientUnits="userSpaceOnUse" />
    <linearGradient
       inkscape:collect="always"
       xlink:href="#linearGradient3870"
       id="linearGradient3883"
       x1="49.911419"
       y1="134.09245"
       x2="514.72394"
       y2="598.5274"
       gradientUnits="userSpaceOnUse" />
    <linearGradient
       inkscape:collect="always"
       xlink:href="#linearGradient3870"
       id="linearGradient3886"
       x1="50.541588"
       y1="134.09245"
       x2="514.09375"
       y2="366.625"
       gradientUnits="userSpaceOnUse" />
    <linearGradient
       inkscape:collect="always"
       xlink:href="#linearGradient3870"
       id="linearGradient3889"
       gradientUnits="userSpaceOnUse"
       x1="50.541588"
       y1="134.09245"
       x2="514.09375"
       y2="597.89722" />
    <linearGradient
       inkscape:collect="always"
       xlink:href="#linearGradient3870"
       id="linearGradient4004"
       gradientUnits="userSpaceOnUse"
       x1="50.541588"
       y1="134.09245"
       x2="514.09375"
       y2="597.89722"
       gradientTransform="translate(497.09077,308.1489)" />
    <linearGradient
       inkscape:collect="always"
       xlink:href="#linearGradient3870"
       id="linearGradient4052"
       gradientUnits="userSpaceOnUse"
       gradientTransform="translate(392.56376,183.84651)"
       x1="50.541588"
       y1="134.09245"
       x2="514.09375"
       y2="597.89722" />
    <linearGradient
       inkscape:collect="always"
       xlink:href="#linearGradient3870"
       id="linearGradient4061"
       gradientUnits="userSpaceOnUse"
       x1="50.541588"
       y1="134.09245"
       x2="514.09375"
       y2="597.89722"
       gradientTransform="translate(0,308.26769)" />
    <linearGradient
       inkscape:collect="always"
       xlink:href="#linearGradient3870"
       id="linearGradient4065"
       gradientUnits="userSpaceOnUse"
       gradientTransform="translate(497.20956,1.29374)"
       x1="50.541588"
       y1="134.09245"
       x2="514.09375"
       y2="597.89722" />
    <linearGradient
       inkscape:collect="always"
       xlink:href="#linearGradient3870"
       id="linearGradient4076"
       gradientUnits="userSpaceOnUse"
       gradientTransform="translate(497.20956,1.29374)"
       x1="50.541588"
       y1="134.09245"
       x2="514.09375"
       y2="597.89722" />
    <linearGradient
       inkscape:collect="always"
       xlink:href="#linearGradient3870"
       id="linearGradient4083"
       gradientUnits="userSpaceOnUse"
       gradientTransform="translate(497.20956,1.29374)"
       x1="50.541588"
       y1="134.09245"
       x2="514.09375"
       y2="597.89722" />
    <linearGradient
       inkscape:collect="always"
       xlink:href="#linearGradient3870"
       id="linearGradient4090"
       gradientUnits="userSpaceOnUse"
       gradientTransform="translate(497.20956,1.29374)"
       x1="50.541588"
       y1="134.09245"
       x2="514.09375"
       y2="597.89722" />
    <linearGradient
       inkscape:collect="always"
       xlink:href="#linearGradient3870"
       id="linearGradient4190"
       gradientUnits="userSpaceOnUse"
       gradientTransform="translate(497.20956,1.29374)"
       x1="50.541588"
       y1="134.09245"
       x2="514.09375"
       y2="597.89722" />
    <linearGradient
       inkscape:collect="always"
       xlink:href="#linearGradient3870"
       id="linearGradient4247"
       x1="545.79376"
       y1="134.83926"
       x2="1010.6063"
       y2="600.26697"
       gradientUnits="userSpaceOnUse" />
    <linearGradient
       inkscape:collect="always"
       xlink:href="#linearGradient3870"
       id="linearGradient4316"
       gradientUnits="userSpaceOnUse"
       x1="545.79376"
       y1="134.83926"
       x2="1010.6063"
       y2="600.26697" />
    <linearGradient
       inkscape:collect="always"
       xlink:href="#linearGradient3870"
       id="linearGradient4319"
       gradientUnits="userSpaceOnUse"
       x1="545.79376"
       y1="134.83926"
       x2="1010.6063"
       y2="600.26697"
       gradientTransform="translate(2.15555,305.98014)" />
  </defs>
  <sodipodi:namedview
     id="base"
     pagecolor="#ffffff"
     bordercolor="#666666"
     borderopacity="1.0"
     inkscape:pageopacity="0.0"
     inkscape:pageshadow="2"
     inkscape:zoom="1.0737884"
     inkscape:cx="464.79317"
     inkscape:cy="226.99757"
     inkscape:document-units="px"
     inkscape:current-layer="layer1"
     showgrid="false"
     inkscape:window-width="1920"
     inkscape:window-height="1018"
     inkscape:window-x="-8"
     inkscape:window-y="-8"
     inkscape:window-maximized="1"
     fit-margin-top="0"
     fit-margin-left="0"
     fit-margin-right="0"
     fit-margin-bottom="0" />
  <metadata
     id="metadata8117">
    <rdf:RDF>
      <cc:Work
         rdf:about="">
        <dc:format>image/svg+xml</dc:format>
        <dc:type
           rdf:resource="http://purl.org/dc/dcmitype/StillImage" />
        <dc:title />
      </cc:Work>
    </rdf:RDF>
  </metadata>
  <g
     inkscape:label="Camada 1"
     inkscape:groupmode="layer"
     id="layer1"
     transform="translate(-49.28125,-441.46875)">
    <g
       id="g4332">
      <path
         inkscape:connector-curvature="0"
         style="fill:#736445;fill-opacity:1;stroke:none"
         d="m 780.93382,492.1426 c -99.59884,0 -180.34375,81.53544 -180.34375,182.10941 0,100.57396 80.74491,182.10941 180.34375,182.10941 99.59884,0 180.34375,-81.53545 180.34375,-182.10941 0,-100.57397 -80.74491,-182.10941 -180.34375,-182.10941 z m -51.6875,131.20966 102.71875,0 0,103.72442 -102.71875,0 0,-103.72442 z"
         id="path3998" />
      <path
         style="fill:#000000;fill-opacity:0.5;stroke:none"
         d="m 724.0663,620.7834 0,112.8125 113.4375,0 0,-112.8125 -113.4375,0 z m 10.0625,10 93.3125,0 0,92.8125 -93.3125,0 0,-92.8125 z"
         id="path4254"
         inkscape:connector-curvature="0" />
      <path
         inkscape:connector-curvature="0"
         style="fill:#000000;fill-opacity:0.5;stroke:none"
         d="m 780.78505,492.53341 c -99.59884,0 -180.34375,80.7449 -180.34375,180.34374 0,0.66847 0.024,1.33325 0.0312,2 1.07381,-98.67622 81.38213,-178.34374 180.3125,-178.34374 98.93037,0 179.23869,79.66752 180.3125,178.34374 0.007,-0.66675 0.0312,-1.33153 0.0312,-2 0,-99.59884 -80.74491,-180.34374 -180.34375,-180.34374 z"
         id="path4296" />
      <path
         inkscape:connector-curvature="0"
         style="fill:#000000;fill-opacity:0.5;stroke:none"
         d="m 832.59305,749.07389 c -11.71417,-0.0355 -45.26189,1.27932 -54.34375,2.1875 -10.37926,1.03793 -42.01403,1.8125 -45.90625,1.8125 -3.89222,0 -6.24894,-3.90064 -8.84375,-2.34375 -2.59482,1.55689 1.05476,4.68924 4.6875,8.0625 3.63275,3.37326 4.92975,7.25 8.5625,7.25 3.63274,0 32.69311,-5.97262 34.25,-4.15625 1.55689,1.81637 0.51335,5.72997 -1.5625,8.84375 -2.07585,3.11378 -1.82372,5.44978 -4.9375,5.96875 -3.11378,0.51896 -7.78018,-3.125 -10.375,-3.125 -2.59482,0 -4.92802,-1.56637 -5.1875,0.25 -0.25948,1.81637 2.09655,2.87674 2.875,6.25 0.77844,3.37326 2.32866,34.48945 1.03125,37.34375 -1.29741,2.8543 -0.80128,6.48945 2.3125,9.34375 3.11377,2.85429 7.81143,5.72823 10.40625,5.46875 2.59481,-0.25948 10.36058,-5.1875 15.03125,-5.1875 4.67067,0 11.6875,-0.53125 11.6875,-0.53125 0,0 3.09549,8.04353 6.46875,8.5625 3.37326,0.51896 8.04635,-5.43924 9.34375,-8.8125 1.29741,-3.37326 2.07479,-17.40412 2.59375,-22.59375 0.51896,-5.18963 0.52457,-15.29914 1.5625,-17.375 1.03793,-2.07585 3.62887,-6.22436 1.8125,-7.78125 -1.81637,-1.55689 -6.73558,-5.70927 -11.40625,-5.96875 -4.67067,-0.25948 -19.96875,0.78125 -19.96875,0.78125 0,0 5.69311,-2.87393 7.25,-5.46875 1.55688,-2.59481 -0.78125,-8.03125 -0.78125,-8.03125 0,0 21.29808,-0.78793 25.96875,0.25 4.67066,1.03792 16.07652,5.72156 19.96875,6.5 0,0 12.19137,-6.49225 10.375,-10.125 -1.81637,-3.63274 -4.15412,-6.73104 -9.34375,-7.25 -0.6487,-0.0649 -1.8578,-0.11993 -3.53125,-0.125 z m -47.3125,34.34375 c 3.09307,0 6.10311,0.25874 7.59375,0.65625 2.98127,0.795 2.5019,3.56623 0.8125,5.15625 -1.68939,1.59001 -12.03125,3.1875 -12.03125,3.1875 -4.37254,0.0994 -12.81562,-1.48997 -13.3125,-3.875 -0.49688,-2.38502 5.45934,-3.08874 8.9375,-4.28125 1.73908,-0.59626 4.90693,-0.84375 8,-0.84375 z m 8,19.625 c 1.78877,1.49064 0.51064,11.14249 -0.78125,11.9375 -1.29188,0.795 -9.55559,1.96875 -12.4375,1.96875 -2.8819,0 -12.11749,0.61876 -13.90625,-0.375 -1.78877,-0.99376 0.20812,-9.64561 1.5,-10.9375 1.29189,-1.29191 9.41935,-1.0881 12.5,-1.1875 3.08065,-0.0994 13.125,-1.40625 13.125,-1.40625 z"
         id="path4237" />
      <path
         style="fill:#000000;fill-opacity:0.5;stroke:none"
         d="m 913.19531,718.30548 c 0,0 7.52496,-9.08185 6.74652,-13.49304 -0.77845,-4.41118 -5.7086,-23.09386 -8.30341,-23.09386 -2.59482,0 -7.78445,13.49305 -7.52497,18.4232 0.25948,4.93014 0.25948,15.56889 2.59482,17.64474 2.33533,2.07585 3.37326,2.59482 6.48704,0.51896 z"
         id="path4233"
         inkscape:connector-curvature="0" />
      <path
         style="fill:#000000;fill-opacity:0.5;stroke:none"
         d="m 883.34305,621.26139 c -3.63275,0.51896 -2.05302,6.49893 -2.3125,9.09375 -0.25948,2.59481 -1.84095,6.20539 -1.0625,8.28125 0.77844,2.07585 14.29073,7.5179 14.03125,9.59375 -0.25948,2.07586 -4.16079,4.42415 -8.3125,6.5 -4.1517,2.07585 -13.24052,3.36165 -13.5,5.4375 -0.25948,2.07586 11.67802,8.33039 11.9375,10.40625 0.25948,2.07585 2.07585,12.45259 0,13.75 -2.07585,1.29741 -16.5832,3.34829 -19.4375,7.5 -2.85429,4.1517 -8.84482,18.96662 -6.25,24.15625 2.59481,5.18963 9.34723,18.16467 16.09375,20.5 6.74652,2.33534 18.15625,4.40625 18.15625,4.40625 0,0 3.13729,-25.44098 3.65625,-32.1875 0.51897,-6.74652 -0.0228,-41.49893 2.3125,-44.09375 2.33533,-2.59481 11.68363,-6.7707 13.5,-9.625 1.81637,-2.85429 2.58921,-8.0207 -1.5625,-10.875 -4.1517,-2.8543 -16.35217,-12.46488 -18.6875,-14.28125 -2.33534,-1.81637 -4.92976,-9.08146 -8.5625,-8.5625 z m -0.65625,76.90625 c 0.61576,-0.007 1.19979,0.11433 1.71875,0.40625 4.15171,2.33533 -0.80302,21.27457 -1.0625,22.3125 0,0 -1.54247,5.21594 -4.65625,4.4375 -3.11378,-0.77845 -4.9403,-10.14463 -5.71875,-15.59375 -0.68114,-4.76797 5.40842,-11.51284 9.71875,-11.5625 z"
         id="path4235"
         inkscape:connector-curvature="0" />
      <path
         style="fill:#000000;fill-opacity:0.5;stroke:none"
         d="m 743.23488,548.86403 c 0,0 -0.25948,17.38526 -5.18963,19.20163 -4.93015,1.81637 -7.78444,-1.03793 -9.60081,-4.67067 -1.81638,-3.63274 0.51896,-12.45511 1.55688,-17.12578 1.03793,-4.67067 2.8543,-19.46112 5.44912,-19.7206 2.59481,-0.25948 3.63274,9.34134 4.93015,11.41719 1.29741,2.07585 1.55689,4.67067 4.67067,4.67067 3.11377,0 11.1577,0.77844 12.19563,-1.03793 1.03792,-1.81637 2.33533,-6.22756 1.03792,-9.08185 -1.2974,-2.8543 -7.006,-10.11978 -5.44911,-11.15771 1.55689,-1.03793 9.60082,5.70859 12.97408,5.18963 3.37326,-0.51896 8.30341,-6.48704 9.8603,-5.44911 1.55689,1.03793 -4.15171,9.34134 -5.18963,10.89822 -1.03793,1.55689 -4.15171,4.15171 -2.8543,4.93015 1.29741,0.77845 10.63874,0.25949 10.63874,0.25949 0,0 0.77845,-13.75253 -0.77844,-17.90423 -1.55689,-4.15171 -3.89222,-10.37926 -1.03793,-12.7146 2.8543,-2.33533 9.08186,-1.55689 12.45512,1.55689 3.37326,3.11378 7.006,3.11378 5.18963,6.48704 -1.81637,3.37326 -7.006,10.63874 -6.74652,13.23356 0.25948,2.59482 0.51896,9.8603 0.51896,9.8603 0,0 27.24557,-1.03793 31.39727,-1.03793 4.15171,0 13.23356,-1.55689 16.8663,0 3.63274,1.55689 9.34134,2.33534 8.30341,7.006 -1.03792,4.67067 -7.52496,7.26549 -10.89822,7.26549 -3.37326,0 -11.41719,4.93015 -13.49304,5.96807 -2.07586,1.03793 -5.7086,5.44912 -8.5629,3.89223 -2.85429,-1.55689 0,-8.04393 2.33534,-10.63875 2.33533,-2.59481 8.30341,-6.48704 8.30341,-6.48704 0,0 -19.98008,-0.51896 -25.68868,0 -5.70859,0.51897 -18.42319,1.29741 -24.39126,2.33534 -5.96808,1.03792 -20.23956,2.33533 -22.5749,2.33533 -2.33533,0 -6.22756,0.51897 -6.22756,0.51897 z"
         id="path4215"
         inkscape:connector-curvature="0" />
      <path
         inkscape:connector-curvature="0"
         style="fill:#000000;fill-opacity:0.5;stroke:none"
         d="m 661.3118,611.79264 c -10.51677,0.28801 -19.88346,6.57743 -24.46875,19.84375 -0.77844,3.63275 4.1429,10.38623 6.21875,13.5 2.07585,3.11378 7.03125,3.62113 7.03125,5.4375 0,1.81637 -5.7082,3.89009 -8.5625,5.1875 -11.00885,4.90746 -6.68362,20.74951 4.125,25.6875 2.8543,1.81637 14.29073,1.83039 14.03125,3.90625 -0.25948,2.07585 -4.66748,2.08708 -7.78125,3.125 -14.6044,5.44301 -20.9733,12.57624 -13.75,28.28125 4.74383,11.02614 20.69944,13.76371 29.3125,4.90625 3.11378,-2.59481 2.0625,-25.40625 2.0625,-25.40625 0,0 11.96207,6.2261 13,11.15625 1.03793,4.93015 -3.91147,15.82546 -14.03125,22.3125 -10.11979,6.48704 -36.59375,3.625 -36.59375,3.625 -1.55689,5.18964 5.73452,5.70259 13,7 7.26549,1.2974 16.31878,1.57586 23.84375,-0.5 28.32099,-12.49576 33.12222,-36.16693 10.40625,-49.3125 -4.15171,-2.07586 -9.88448,-4.40238 -9.625,-6.21875 0.25948,-1.81637 9.09549,-4.42415 12.46875,-6.5 22.02102,-24.90066 15.81328,-52.68737 -5.96875,-62.78125 -4.91429,-2.25299 -9.9384,-3.38092 -14.71875,-3.25 z m -5.4375,8.78125 c 2.04342,-0.0973 4.21014,0.4403 6.15625,1.21875 1.55689,2.33534 0.76896,11.91467 0.25,14.25 -0.51897,2.33533 -2.86726,5.70926 -6.5,5.96875 -3.63274,0.25948 -8.5653,-5.68924 -9.34375,-9.0625 -0.77844,-3.37326 0.79247,-6.50174 3.90625,-9.875 1.55688,-1.68663 3.48783,-2.40269 5.53125,-2.5 z m 16.65625,3.78125 c 2.2711,0.21096 8.50243,5.39333 9.71875,8.3125 1.29741,3.11378 3.62713,21.81598 -1.5625,28.5625 -5.18963,6.74652 -8.28686,8.30021 -9.84375,7.78125 -1.55689,-0.51897 1.03232,-10.37112 -1.5625,-12.1875 -2.59482,-1.81637 -10.90625,-6.25 -10.90625,-6.25 4.93015,0.25948 10.90906,-7.00173 11.6875,-10.375 0.77845,-3.37326 0.24613,-15.29354 2.0625,-15.8125 0.11352,-0.0324 0.25484,-0.0453 0.40625,-0.0312 z m -16.9375,35.53125 c 1.10685,-0.0365 3.51272,-0.0213 4.875,0.5625 1.81637,0.77844 0.77844,9.60497 0,12.71875 -0.77845,3.11378 -5.18643,2.85043 -7.78125,1.8125 -2.59482,-1.03792 -7.00948,-4.93257 -6.75,-9.34375 0.25948,-4.41119 9.0625,-5.71875 9.0625,-5.71875 0,0 0.2248,-0.0191 0.59375,-0.0312 z m -1.625,37.65625 c 3.11378,-0.25948 4.14957,3.90238 5.1875,5.71875 1.03793,1.81637 -0.52457,10.37113 -1.5625,12.1875 -1.03793,1.81637 -5.96875,0.25 -5.96875,0.25 0,0 -3.63342,-2.05863 -5.96875,-3.875 -2.33534,-1.81638 -1.79073,-7.01122 -1.53125,-10.125 0.25948,-3.11377 6.72997,-3.89677 9.84375,-4.15625 z"
         id="path4213" />
      <path
         inkscape:connector-curvature="0"
         style="fill:#000000;fill-opacity:0.5;stroke:none"
         d="m 807.6243,546.23014 c -2.22586,0.10947 -4.71875,0.5625 -4.71875,0.5625 0,0 -17.38796,4.41854 -23.875,4.9375 -6.48704,0.51897 -21.00561,-2.09762 -22.5625,-0.28125 -1.55689,1.81637 5.72156,8.04915 6.5,10.125 0.77845,2.07585 -1.0625,8.3153 -1.0625,9.09375 0,0.77844 1.57092,2.84375 3.90625,2.84375 2.33533,0 13.4761,-1.28405 18.40625,-2.0625 4.93015,-0.77844 16.88061,-0.27738 18.4375,-2.09375 1.55689,-1.81637 2.08707,-6.22997 3.125,-9.34375 1.03793,-3.11378 3.36832,-9.32759 4.40625,-10.625 1.03792,-1.29741 1.80409,-2.86552 -0.53125,-3.125 -0.58383,-0.0649 -1.2893,-0.0677 -2.03125,-0.0312 z m -20.53125,9.375 c 5.96807,0.25948 5.17908,5.98384 2.84375,7.28125 -2.33534,1.29741 -9.85777,2.3125 -13.75,2.3125 -3.89222,0 -5.17241,-3.87394 -3.875,-6.46875 1.29741,-2.59482 14.78125,-3.125 14.78125,-3.125 z"
         id="path4217" />
      <path
         style="fill:#000000;fill-opacity:0.5;stroke:none"
         d="m 811.21805,573.51139 c 0,0 -21.53473,5.4375 -28.28125,5.4375 -6.74652,0 -18.69485,2.08146 -23.625,1.5625 -4.93015,-0.51897 -5.42415,-3.36939 -7.5,-1.8125 -2.07586,1.55688 2.05302,13.76683 2.3125,18.4375 0.25948,4.67066 0.2707,16.59936 3.125,18.15625 2.8543,1.55688 7.53299,3.64397 10.90625,3.125 3.37326,-0.51896 10.63235,-3.125 15.5625,-3.125 4.93015,0 16.875,1.28125 16.875,1.28125 0,0 -1.82024,3.65625 1.8125,3.65625 3.63274,0 11.65238,-3.12006 13.46875,-7.53125 1.81637,-4.41119 5.1903,-21.02071 5.96875,-23.875 0.77844,-2.8543 1.31076,-10.65238 -2.0625,-12.46875 -3.37326,-1.81637 -8.5625,-2.84375 -8.5625,-2.84375 z m -13.0625,10.0625 c 2.75699,0 5.52458,0.18275 6.5625,0.3125 2.07586,0.25948 1.0446,6.50562 -1.03125,8.0625 -2.07585,1.55689 -13.75,-0.28125 -13.75,-0.28125 0,0 -0.004,-5.95259 1.8125,-7.25 0.90819,-0.64871 3.64926,-0.84375 6.40625,-0.84375 z m -22,1.5 c 0.84743,0.0124 1.50318,0.13174 1.84375,0.375 1.81637,1.2974 1.03793,4.39957 0,5.4375 -1.03792,1.03792 -11.16186,3.89116 -12.71875,2.59375 -1.55689,-1.2974 0,-6.71875 0,-6.71875 0,0 7.20279,-1.74103 10.875,-1.6875 z m 17.59375,12.5625 c 3.77566,-0.0253 8.65625,0.28125 8.65625,0.28125 1.55689,1.29741 -0.0179,8.03686 -2.09375,9.59375 -2.07585,1.55689 -10.11832,0.007 -11.15625,-1.03125 -1.03793,-1.03792 -0.23771,-7.27457 0.28125,-8.3125 0.19461,-0.38922 2.0471,-0.51605 4.3125,-0.53125 z m -25,1.65625 c 3.81367,-0.0634 8.46875,0.4375 8.46875,0.4375 1.81637,1.55689 2.09762,8.30302 0.28125,8.5625 -1.81637,0.25948 -12.20259,0.77845 -13.5,0 -1.29741,-0.77844 -1.29741,-6.24612 0,-8.0625 0.48653,-0.68114 2.4618,-0.89949 4.75,-0.9375 z"
         id="path4219"
         inkscape:connector-curvature="0" />
      <path
         style="fill:#000000;fill-opacity:0.5;stroke:none"
         d="m 792.01742,535.63047 c 0,0 11.1577,-11.41719 11.1577,-14.01201 0,-2.59481 -0.77844,-8.30341 1.29741,-9.08185 2.07585,-0.77845 8.56289,2.33533 10.37926,4.1517 1.81638,1.81637 4.15171,5.7086 3.63275,7.78445 -0.51897,2.07585 -7.78445,3.37326 -11.15771,4.93015 -3.37326,1.55689 -13.49304,8.56289 -15.30941,6.22756 z"
         id="path4221"
         inkscape:connector-curvature="0" />
      <path
         id="path3048"
         d="m 781.0618,441.98014 c -128.07614,0 -231.90625,103.83011 -231.90625,231.90625 0,128.07614 103.83011,231.90625 231.90625,231.90625 128.07614,0 231.9062,-103.83011 231.9062,-231.90625 0,-128.07614 -103.83006,-231.90625 -231.9062,-231.90625 z m 0,51.5625 c 99.59884,0 180.34375,80.74491 180.34375,180.34375 0,99.59884 -83.75787,180.34375 -180.34375,180.34375 -96.58588,0 -179.62233,-83.60537 -180.34375,-180.34375 -0.72142,-96.73838 80.74491,-180.34375 180.34375,-180.34375 z m -0.3125,7.65625 c -1.69069,0.0411 -3.24214,0.49925 -4.3125,1.375 -2.85429,2.33534 -0.49439,8.56704 1.0625,12.71875 1.55689,4.1517 0.75,17.90625 0.75,17.90625 0,0 -9.32759,0.4972 -10.625,-0.28125 -1.29741,-0.77844 1.80582,-3.34936 2.84375,-4.90625 1.03792,-1.55688 6.74439,-9.86832 5.1875,-10.90625 -1.55689,-1.03793 -6.47049,4.91854 -9.84375,5.4375 -3.37326,0.51896 -11.41186,-6.22543 -12.96875,-5.1875 -1.55689,1.03793 4.1401,8.30195 5.4375,11.15625 1.29741,2.85429 0.007,7.27738 -1.03125,9.09375 -1.03793,1.81637 -9.07373,1.03125 -12.1875,1.03125 -3.11378,0 -3.39009,-2.5804 -4.6875,-4.65625 -1.29741,-2.07585 -2.34269,-11.69698 -4.9375,-11.4375 -2.59482,0.25948 -4.39957,15.04808 -5.4375,19.71875 -1.03792,4.67067 -3.37888,13.49226 -1.5625,17.125 1.81637,3.63274 4.6636,6.50387 9.59375,4.6875 4.93015,-1.81637 5.21875,-19.21875 5.21875,-19.21875 0,0 3.88342,-0.5 6.21875,-0.5 2.33534,0 16.59442,-1.30583 22.5625,-2.34375 5.96807,-1.03793 18.69766,-1.82478 24.40625,-2.34375 5.7086,-0.51896 25.6875,0 25.6875,0 0,0 -5.97717,3.90519 -8.3125,6.5 -2.33534,2.59482 -5.19804,9.06811 -2.34375,10.625 2.8543,1.55689 6.48664,-2.83707 8.5625,-3.875 2.07585,-1.03792 10.12674,-5.96875 13.5,-5.96875 3.37326,0 9.86833,-2.61058 10.90625,-7.28125 1.03793,-4.67066 -4.67976,-5.44311 -8.3125,-7 -3.63274,-1.55689 -12.72329,0 -16.875,0 -4.1517,0 -31.375,1.03125 -31.375,1.03125 0,0 -0.27177,-7.24893 -0.53125,-9.84375 -0.25948,-2.59482 4.93363,-9.87674 6.75,-13.25 1.81637,-3.37326 -1.81424,-3.35497 -5.1875,-6.46875 -2.10829,-1.94611 -5.33844,-3.00592 -8.15625,-2.9375 z m 24.6875,7.21875 c -0.37959,-0.0142 -0.70927,0.0277 -0.96875,0.125 -2.07585,0.77844 -1.28125,6.46769 -1.28125,9.0625 0,2.59482 -11.15625,14.03125 -11.15625,14.03125 1.81637,2.33533 11.90799,-4.66186 15.28125,-6.21875 3.37326,-1.55689 10.66853,-2.86165 11.1875,-4.9375 0.51896,-2.07585 -1.83987,-5.96488 -3.65625,-7.78125 -1.58932,-1.58932 -6.7491,-4.18192 -9.40625,-4.28125 z m 3.25,33.78125 c -0.34209,-0.004 -0.69152,0.013 -1.0625,0.0312 -2.22586,0.10947 -4.71875,0.5625 -4.71875,0.5625 0,0 -17.38796,4.41854 -23.875,4.9375 -6.48704,0.51897 -21.00561,-2.09762 -22.5625,-0.28125 -1.55689,1.81637 5.72156,8.04915 6.5,10.125 0.77845,2.07585 -1.0625,8.3153 -1.0625,9.09375 0,0.77844 1.57092,2.84375 3.90625,2.84375 2.33533,0 13.4761,-1.28405 18.40625,-2.0625 4.93015,-0.77844 16.88061,-0.27738 18.4375,-2.09375 1.55689,-1.81637 2.08707,-6.22997 3.125,-9.34375 1.03793,-3.11378 3.36832,-9.32759 4.40625,-10.625 1.03792,-1.29741 1.80409,-2.86552 -0.53125,-3.125 -0.29192,-0.0324 -0.62666,-0.0582 -0.96875,-0.0625 z m -21.59375,9.40625 c 5.96807,0.25948 5.17908,5.98384 2.84375,7.28125 -2.33534,1.29741 -9.85777,2.3125 -13.75,2.3125 -3.89222,0 -5.17241,-3.87394 -3.875,-6.46875 1.29741,-2.59482 14.78125,-3.125 14.78125,-3.125 z m 24.125,17.90625 c 0,0 -21.53473,5.4375 -28.28125,5.4375 -6.74652,0 -18.69485,2.08146 -23.625,1.5625 -4.93015,-0.51897 -5.42415,-3.36939 -7.5,-1.8125 -2.07586,1.55688 2.05302,13.76683 2.3125,18.4375 0.25948,4.67066 0.2707,16.59936 3.125,18.15625 2.8543,1.55688 7.53299,3.64397 10.90625,3.125 3.37326,-0.51896 10.63235,-3.125 15.5625,-3.125 4.93015,0 16.875,1.28125 16.875,1.28125 0,0 -1.82024,3.65625 1.8125,3.65625 3.63274,0 11.65238,-3.12006 13.46875,-7.53125 1.81637,-4.41119 5.1903,-21.02071 5.96875,-23.875 0.77844,-2.8543 1.31076,-10.65238 -2.0625,-12.46875 -3.37326,-1.81637 -8.5625,-2.84375 -8.5625,-2.84375 z m -13.0625,10.0625 c 2.75699,0 5.52458,0.18275 6.5625,0.3125 2.07586,0.25948 1.0446,6.50562 -1.03125,8.0625 -2.07585,1.55689 -13.75,-0.28125 -13.75,-0.28125 0,0 -0.004,-5.95259 1.8125,-7.25 0.90819,-0.64871 3.64926,-0.84375 6.40625,-0.84375 z m -22,1.5 c 0.84743,0.0124 1.50318,0.13174 1.84375,0.375 1.81637,1.2974 1.03793,4.39957 0,5.4375 -1.03792,1.03792 -11.16186,3.89116 -12.71875,2.59375 -1.55689,-1.2974 0,-6.71875 0,-6.71875 0,0 7.20279,-1.74103 10.875,-1.6875 z m 17.59375,12.5625 c 3.77566,-0.0253 8.65625,0.28125 8.65625,0.28125 1.55689,1.29741 -0.0179,8.03686 -2.09375,9.59375 -2.07585,1.55689 -10.11832,0.007 -11.15625,-1.03125 -1.03793,-1.03792 -0.23771,-7.27457 0.28125,-8.3125 0.19461,-0.38922 2.0471,-0.51605 4.3125,-0.53125 z m -25,1.65625 c 3.81367,-0.0634 8.46875,0.4375 8.46875,0.4375 1.81637,1.55689 2.09762,8.30302 0.28125,8.5625 -1.81637,0.25948 -12.20259,0.77845 -13.5,0 -1.29741,-0.77844 -1.29741,-6.24612 0,-8.0625 0.48653,-0.68114 2.4618,-0.89949 4.75,-0.9375 z m -107.4375,12.5 c -10.51677,0.28801 -19.88346,6.57743 -24.46875,19.84375 -0.77844,3.63275 4.1429,10.38623 6.21875,13.5 2.07585,3.11378 7.03125,3.62113 7.03125,5.4375 0,1.81637 -5.7082,3.89009 -8.5625,5.1875 -11.00885,4.90746 -6.68362,20.74951 4.125,25.6875 2.8543,1.81637 14.29073,1.83039 14.03125,3.90625 -0.25948,2.07585 -4.66748,2.08708 -7.78125,3.125 -14.6044,5.44301 -20.9733,12.57624 -13.75,28.28125 4.74383,11.02614 20.69944,13.76371 29.3125,4.90625 3.11378,-2.59481 2.0625,-25.40625 2.0625,-25.40625 0,0 11.96207,6.2261 13,11.15625 1.03793,4.93015 -3.91147,15.82546 -14.03125,22.3125 -10.11979,6.48704 -36.59375,3.625 -36.59375,3.625 -1.55689,5.18964 5.73452,5.70259 13,7 7.26549,1.2974 16.31878,1.57586 23.84375,-0.5 28.32099,-12.49576 33.12222,-36.16693 10.40625,-49.3125 -4.15171,-2.07586 -9.88448,-4.40238 -9.625,-6.21875 0.25948,-1.81637 9.09549,-4.42415 12.46875,-6.5 22.02102,-24.90066 15.81328,-52.68737 -5.96875,-62.78125 -4.91429,-2.25299 -9.9384,-3.38092 -14.71875,-3.25 z m -5.4375,8.78125 c 2.04342,-0.0973 4.21014,0.4403 6.15625,1.21875 1.55689,2.33534 0.76896,11.91467 0.25,14.25 -0.51897,2.33533 -2.86726,5.70926 -6.5,5.96875 -3.63274,0.25948 -8.5653,-5.68924 -9.34375,-9.0625 -0.77844,-3.37326 0.79247,-6.50174 3.90625,-9.875 1.55688,-1.68663 3.48783,-2.40269 5.53125,-2.5 z m 227.46875,0.6875 c -3.63275,0.51896 -2.05302,6.49893 -2.3125,9.09375 -0.25948,2.59481 -1.84095,6.20539 -1.0625,8.28125 0.77844,2.07585 14.29073,7.5179 14.03125,9.59375 -0.25948,2.07586 -4.16079,4.42415 -8.3125,6.5 -4.1517,2.07585 -13.24052,3.36165 -13.5,5.4375 -0.25948,2.07586 11.67802,8.33039 11.9375,10.40625 0.25948,2.07585 2.07585,12.45259 0,13.75 -2.07585,1.29741 -16.5832,3.34829 -19.4375,7.5 -2.85429,4.1517 -8.84482,18.96662 -6.25,24.15625 2.59481,5.18963 9.34723,18.16467 16.09375,20.5 6.74652,2.33534 18.15625,4.40625 18.15625,4.40625 0,0 3.13729,-25.44098 3.65625,-32.1875 0.51897,-6.74652 -0.0228,-41.49893 2.3125,-44.09375 2.33533,-2.59481 11.68363,-6.7707 13.5,-9.625 1.81637,-2.85429 2.58921,-8.0207 -1.5625,-10.875 -4.1517,-2.8543 -16.35217,-12.46488 -18.6875,-14.28125 -2.33534,-1.81637 -4.92976,-9.08146 -8.5625,-8.5625 z m -159,0.53125 0,112.8125 113.4375,0 0,-112.8125 -113.4375,0 z m -51.8125,2.5625 c 2.2711,0.21096 8.50243,5.39333 9.71875,8.3125 1.29741,3.11378 3.62713,21.81598 -1.5625,28.5625 -5.18963,6.74652 -8.28686,8.30021 -9.84375,7.78125 -1.55689,-0.51897 1.03232,-10.37112 -1.5625,-12.1875 -2.59482,-1.81637 -10.90625,-6.25 -10.90625,-6.25 4.93015,0.25948 10.90906,-7.00173 11.6875,-10.375 0.77845,-3.37326 0.24613,-15.29354 2.0625,-15.8125 0.11352,-0.0324 0.25484,-0.0453 0.40625,-0.0312 z m 61.875,7.4375 93.3125,0 0,92.8125 -93.3125,0 0,-92.8125 z m -78.8125,28.09375 c 1.10685,-0.0365 3.51272,-0.0213 4.875,0.5625 1.81637,0.77844 0.77844,9.60497 0,12.71875 -0.77845,3.11378 -5.18643,2.85043 -7.78125,1.8125 -2.59482,-1.03792 -7.00948,-4.93257 -6.75,-9.34375 0.25948,-4.41119 9.0625,-5.71875 9.0625,-5.71875 0,0 0.2248,-0.0192 0.59375,-0.0312 z m 256.03125,21.84375 c -2.59482,0 -7.75948,13.4761 -7.5,18.40625 0.25948,4.93014 0.25841,15.5804 2.59375,17.65625 2.33533,2.07585 3.35497,2.57586 6.46875,0.5 0,0 7.52844,-9.05756 6.75,-13.46875 -0.77845,-4.41118 -5.71769,-23.09375 -8.3125,-23.09375 z m -257.65625,15.8125 c 3.11378,-0.25948 4.14957,3.90238 5.1875,5.71875 1.03793,1.81637 -0.52457,10.37113 -1.5625,12.1875 -1.03793,1.81637 -5.96875,0.25 -5.96875,0.25 0,0 -3.63342,-2.05863 -5.96875,-3.875 -2.33534,-1.81638 -1.79073,-7.01122 -1.53125,-10.125 0.25948,-3.11377 6.72997,-3.89677 9.84375,-4.15625 z m 228.71875,0.625 c 0.61576,-0.007 1.19979,0.11433 1.71875,0.40625 4.15171,2.33533 -0.80302,21.27457 -1.0625,22.3125 0,0 -1.54247,5.21594 -4.65625,4.4375 -3.11378,-0.77845 -4.9403,-10.14463 -5.71875,-15.59375 -0.68114,-4.76797 5.40842,-11.51284 9.71875,-11.5625 z m -50.09375,50.90625 c -11.71417,-0.0355 -45.26189,1.27932 -54.34375,2.1875 -10.37926,1.03793 -42.01403,1.8125 -45.90625,1.8125 -3.89222,0 -6.24894,-3.90064 -8.84375,-2.34375 -2.59482,1.55689 1.05476,4.68924 4.6875,8.0625 3.63275,3.37326 4.92975,7.25 8.5625,7.25 3.63274,0 32.69311,-5.97262 34.25,-4.15625 1.55689,1.81637 0.51335,5.72997 -1.5625,8.84375 -2.07585,3.11378 -1.82372,5.44978 -4.9375,5.96875 -3.11378,0.51896 -7.78018,-3.125 -10.375,-3.125 -2.59482,0 -4.92802,-1.56637 -5.1875,0.25 -0.25948,1.81637 2.09655,2.87674 2.875,6.25 0.77844,3.37326 2.32866,34.48945 1.03125,37.34375 -1.29741,2.8543 -0.80128,6.48945 2.3125,9.34375 3.11377,2.85429 7.81143,5.72823 10.40625,5.46875 2.59481,-0.25948 10.36058,-5.1875 15.03125,-5.1875 4.67067,0 11.6875,-0.53125 11.6875,-0.53125 0,0 3.09549,8.04353 6.46875,8.5625 3.37326,0.51896 8.04635,-5.43924 9.34375,-8.8125 1.29741,-3.37326 2.07479,-17.40412 2.59375,-22.59375 0.51896,-5.18963 0.52457,-15.29914 1.5625,-17.375 1.03793,-2.07585 3.62887,-6.22436 1.8125,-7.78125 -1.81637,-1.55689 -6.73558,-5.70927 -11.40625,-5.96875 -4.67067,-0.25948 -19.96875,0.78125 -19.96875,0.78125 0,0 5.69311,-2.87393 7.25,-5.46875 1.55688,-2.59481 -0.78125,-8.03125 -0.78125,-8.03125 0,0 21.29808,-0.78793 25.96875,0.25 4.67066,1.03792 16.07652,5.72156 19.96875,6.5 0,0 12.19137,-6.49225 10.375,-10.125 -1.81637,-3.63274 -4.15412,-6.73104 -9.34375,-7.25 -0.6487,-0.0649 -1.8578,-0.11993 -3.53125,-0.125 z m -47.3125,34.34375 c 3.09307,0 6.10311,0.25874 7.59375,0.65625 2.98127,0.795 2.5019,3.56623 0.8125,5.15625 -1.68939,1.59001 -12.03125,3.1875 -12.03125,3.1875 -4.37254,0.0994 -12.81562,-1.48997 -13.3125,-3.875 -0.49688,-2.38502 5.45934,-3.08874 8.9375,-4.28125 1.73908,-0.59626 4.90693,-0.84375 8,-0.84375 z m 8,19.625 c 1.78877,1.49064 0.51064,11.14249 -0.78125,11.9375 -1.29188,0.795 -9.55559,1.96875 -12.4375,1.96875 -2.8819,0 -12.11749,0.61876 -13.90625,-0.375 -1.78877,-0.99376 0.20812,-9.64561 1.5,-10.9375 1.29189,-1.29191 9.41935,-1.0881 12.5,-1.1875 3.08065,-0.0994 13.125,-1.40625 13.125,-1.40625 z"
         style="fill:url(#linearGradient4319);stroke:none"
         inkscape:connector-curvature="0" />
      <path
         inkscape:connector-curvature="0"
         style="fill:none;stroke:#000000;stroke-width:1px;stroke-linecap:butt;stroke-linejoin:miter;stroke-opacity:1"
         d="m 781.06179,441.98013 c -128.07614,0 -231.90625,103.83011 -231.90625,231.90625 0,128.07617 103.83011,231.90627 231.90625,231.90627 128.07614,0 231.90631,-103.8301 231.90631,-231.90627 0,-128.07614 -103.83017,-231.90625 -231.90631,-231.90625 z"
         id="path4298" />
    </g>
    <g
       id="g4386">
      <path
         transform="translate(0,308.26769)"
         id="path3860"
         d="m 281.6875,186.28125 c -99.59884,0 -180.34375,80.74491 -180.34375,180.34375 0,99.59884 80.74491,180.34375 180.34375,180.34375 99.59884,0 180.34375,-80.74491 180.34375,-180.34375 0,-99.59884 -80.74491,-180.34375 -180.34375,-180.34375 z M 230,316.21875 l 102.71875,0 0,102.71875 -102.71875,0 0,-102.71875 z"
         style="fill:#736445;fill-opacity:1;stroke:none"
         inkscape:connector-curvature="0" />
      <path
         inkscape:connector-curvature="0"
         id="path3924"
         d="m 224.96875,622.79894 0,112.8125 113.4375,0 0,-112.8125 -113.4375,0 z m 10.0625,10 93.3125,0 0,92.8125 -93.3125,0 0,-92.8125 z"
         style="fill:#000000;fill-opacity:0.5;stroke:none" />
      <path
         id="path3934"
         d="m 301.71875,514.70519 c -1.81085,0 -4.7424,2.25925 -4.96875,3.84375 -0.22636,1.58449 2.25248,3.6174 4.96875,3.84375 2.71628,0.22636 12.91633,4.07093 15.40625,4.75 2.48992,0.67906 2.93915,1.35053 4.75,0.21875 1.81085,-1.13178 4.75,-2.92394 4.75,-5.1875 0,0 -6.09705,-4.97718 -9.71875,-5.65625 -3.6217,-0.67907 -13.37665,-1.8125 -15.1875,-1.8125 z"
         style="fill:#000000;fill-opacity:0.5;stroke:none"
         inkscape:connector-curvature="0" />
      <path
         id="path3932"
         d="m 281.0625,553.39269 c -3.07607,0.21637 -9.77543,2.63045 -12.375,3.1875 -3.16899,0.67907 -12.89947,0.21196 -14.03125,1.34375 -1.13178,1.13178 -0.45106,6.35218 1.8125,7.03125 2.26357,0.67907 9.05819,-1.375 12.90625,-1.375 3.84806,0 13.34458,-0.9079 14.25,-2.71875 0,0 0.23314,-6.11822 -1.125,-7.25 -0.16977,-0.14147 -0.48507,-0.2046 -0.875,-0.21875 -0.1706,-0.006 -0.35743,-0.0144 -0.5625,0 z"
         style="fill:#000000;fill-opacity:0.5;stroke:none"
         inkscape:connector-curvature="0" />
      <path
         id="path3930"
         d="m 279.5625,570.54894 c -0.3864,0.0102 -0.78842,0.0342 -1.15625,0.0625 -2.94263,0.22635 -13.79215,3.625 -17.1875,3.625 -3.39534,0 -5.43915,-1.83531 -7.25,-1.15625 -1.81085,0.67907 -2.71032,3.16633 -2.03125,5.65625 0.67907,2.48992 2.5,9.75248 2.5,12.46875 0,2.71628 -0.022,9.71279 1.5625,11.75 1.58449,2.03721 5.2204,5.43668 7.03125,4.53125 1.81085,-0.90542 1.12665,-5.18072 2.9375,-6.3125 1.81085,-1.13178 11.32176,-1.59375 12.90625,-1.59375 1.5845,0 4.51687,-1.57936 5.875,-2.9375 1.35814,-1.35813 -1.36657,-6.35383 -0.6875,-8.84375 0.67906,-2.48992 4.53125,-7.00165 4.53125,-8.8125 0,-1.81085 -0.65625,-5.65625 -0.65625,-5.65625 -2.5748,-2.37674 -5.67022,-2.85243 -8.375,-2.78125 z m -3.78125,8.9375 c 0.55528,-0.0495 0.99831,0.0667 1.28125,0.40625 1.13178,1.35814 -1.82093,5.63426 -2.5,7.21875 -0.67907,1.5845 -0.67312,4.32854 -2.03125,4.78125 -1.35814,0.45272 -6.55571,0.65542 -7.6875,-0.25 -1.13178,-0.90543 -1.125,-5.20437 -1.125,-6.5625 0,-1.35814 0.4375,-3.625 0.4375,-3.625 0,0 3.39269,0.45271 5.65625,0 1.69767,-0.33954 4.30291,-1.8202 5.96875,-1.96875 z"
         style="fill:#000000;fill-opacity:0.5;stroke:none"
         inkscape:connector-curvature="0" />
      <path
         id="path3922"
         d="m 420.625,626.26769 c -0.26441,-10e-4 -0.53592,0.0159 -0.84375,0.0312 -5.33568,0.26581 -16.6675,2.67418 -23.65625,3.59375 -8.60154,1.13178 -35.78125,3.1875 -35.78125,3.1875 0.67907,1.13178 9.53373,9.0405 12.25,10.625 2.71628,1.58449 9.02777,-0.68072 13.78125,-1.8125 4.75348,-1.13179 27.87069,-4.07772 31.71875,-3.625 3.84805,0.45271 8.58861,1.13096 11.53125,-0.90625 2.94263,-2.03721 -4.76009,-9.71197 -7.25,-10.84375 -0.35014,-0.15916 -0.95678,-0.24684 -1.75,-0.25 z"
         style="fill:#000000;fill-opacity:0.5;stroke:none"
         inkscape:connector-curvature="0" />
      <path
         id="path3914"
         d="m 431.3125,647.67394 c -2.30247,0.0849 -5.64012,1.30741 -9.375,2.15625 -4.97983,1.13179 -19.48973,2.50082 -25.375,3.40625 -5.88526,0.90542 -31.91716,4.04729 -35.3125,4.5 -3.39535,0.45272 -13.34375,-1.125 -13.34375,-1.125 -0.90543,1.13178 7.70436,11.78208 9.0625,12.6875 1.35814,0.90543 10.19162,-0.45436 14.71875,-1.8125 4.52712,-1.35814 11.32176,-2.48397 12.90625,-2.03125 1.5845,0.45271 -0.69593,2.93072 -1.375,4.0625 -0.67906,1.13178 -9.4957,12.22288 -13.34375,16.75 -3.84806,4.52713 -17.89434,15.61144 -21.96875,17.875 -4.07441,2.26357 -6.5625,2.04051 -6.5625,3.625 0,1.5845 2.25412,2.49157 6.78125,1.8125 4.52712,-0.67906 13.81067,-5.43402 20.375,-10.1875 6.56433,-4.75348 16.5438,-15.82505 21.75,-21.03125 5.20619,-5.20619 18.5625,-17.65625 18.5625,-17.65625 0,0 8.80223,-0.90625 14.6875,-0.90625 5.88526,0 14.04894,0.67064 16.3125,-0.6875 2.26356,-1.35814 -4.5253,-9.96196 -6.5625,-11.09375 -0.5093,-0.28294 -1.17001,-0.37204 -1.9375,-0.34375 z"
         style="fill:#000000;fill-opacity:0.5;stroke:none"
         inkscape:connector-curvature="0" />
      <path
         id="path3912"
         d="m 404.53125,667.29894 c -0.71842,0.0442 -1.15625,0.40625 -1.15625,0.40625 -1.58449,1.13178 -7.46958,19.46445 -8.375,23.3125 -0.90543,3.84806 2.71279,18.33101 4.75,21.5 2.03721,3.16898 18.32671,6.35218 25.34375,7.03125 7.01704,0.67907 20.82258,-3.4155 23.3125,-5 2.48991,-1.58449 2.03042,-6.55654 1.125,-8.59375 -0.90543,-2.0372 -2.25083,-10.17477 -3.15625,-13.34375 -0.90543,-3.16899 -0.46279,-13.8125 -2.5,-13.8125 -2.03721,0 -0.90625,2.26769 -0.90625,4.53125 0,2.26356 -0.20436,16.29894 -1.5625,18.5625 -1.35814,2.26356 -13.83266,4.28207 -18.8125,5.1875 -4.97984,0.90542 -12.90029,-2.47122 -14.9375,-5.1875 -2.03721,-2.71627 4.9924,-24.45436 5.21875,-25.8125 0.22636,-1.35814 -5.19676,-7.46958 -6.78125,-8.375 -0.59419,-0.33954 -1.13145,-0.43278 -1.5625,-0.40625 z"
         style="fill:#000000;fill-opacity:0.5;stroke:none"
         inkscape:connector-curvature="0" />
      <path
         id="path3926"
         d="m 158.9375,610.04894 c -1.39793,0.0119 -2.44637,0.1516 -2.53125,0.40625 -0.22635,0.67907 1.14947,5.87665 2.28125,7.6875 1.13179,1.81085 3.15542,4.97718 2.25,5.65625 -0.90543,0.67907 -6.10383,2.92989 -8.59375,3.15625 -2.48992,0.22635 -20.15873,1.59375 -22.875,1.59375 -2.71628,0 -6.103,-2.03125 -7.6875,-2.03125 -1.58449,0 -4.08697,8.5954 -5.21875,10.40625 -1.13178,1.81085 -3.60136,7.91633 -3.375,10.40625 0.22635,2.48992 0.6579,4.30489 2.46875,4.53125 1.81085,0.22635 3.40625,-0.6875 3.40625,-0.6875 0,0 5.22205,-13.55655 8.84375,-15.59375 3.6217,-2.03721 23.97123,-3.85896 26.6875,-3.40625 2.71628,0.45271 5.66038,1.79646 10.1875,1.34375 4.52713,-0.45271 10.65625,-3.375 10.65625,-3.375 0,0 28.05572,-0.91303 29.1875,0.21875 1.13179,1.13178 -0.45189,8.81333 0.90625,9.71875 1.35814,0.90543 9.7204,-4.51686 11.53125,-5.875 1.81085,-1.35814 6.5625,-5.20437 6.5625,-6.5625 0,-1.35814 -6.08697,-7.6799 -7.21875,-7.90625 -1.13178,-0.22636 -7.02446,-0.0152 -8.15625,0.4375 -1.13178,0.45271 -3.61062,2.27364 -4.96875,2.5 -1.35814,0.22636 -13.14352,1.34375 -16.3125,1.34375 -3.16899,0 -13.125,0.90625 -13.125,0.90625 0,0 3.40543,-3.85383 2.5,-6.34375 -0.90542,-2.48992 -7.69758,-6.78207 -10.1875,-7.6875 -1.5562,-0.56589 -4.88887,-0.86364 -7.21875,-0.84375 z"
         style="fill:#000000;fill-opacity:0.5;stroke:none"
         inkscape:connector-curvature="0" />
      <path
         id="path3918"
         d="m 178.15625,636.76769 c -1.72597,0 -3.62583,0.27786 -4.53125,0.84375 -1.81085,1.13178 -6.13178,12.67229 -5,13.125 1.13178,0.45272 4.76851,-2.27447 7.9375,-3.40625 3.16899,-1.13178 9.0625,0.46875 9.0625,0.46875 0,0 -0.70436,4.9704 -2.0625,6.78125 -1.35814,1.81085 -16.05572,2.02365 -17.1875,2.25 -1.13178,0.22636 0.21875,5 0.21875,5 l 17.875,-2.5 1.59375,8.375 -7,0.21875 c 0,0 -0.22718,-3.39864 -0.90625,-3.625 -0.67907,-0.22636 -8.61822,-0.43667 -9.75,0.46875 -1.13178,0.90543 -0.20949,9.27447 1.375,10.40625 1.58449,1.13178 21.03968,-2.02447 21.71875,-3.15625 0.003,-0.006 -0.003,-0.0251 0,-0.0312 2.04944,-0.23087 4.99764,-0.51121 5.875,-0.21875 1.35814,0.45271 -0.67907,7.25083 0,8.15625 0.67907,0.90543 5.67311,1.13178 7.03125,0 1.35814,-1.13178 4.06167,-13.79051 3.15625,-15.375 -0.90543,-1.5845 -6.57258,-6.11657 -9.0625,-5.4375 -2.48991,0.67907 0.6875,7.6875 0.6875,7.6875 l -7.3125,0.40625 c 0.0821,-3.49744 0.1478,-7.62838 0.96875,-8.3125 1.35814,-1.13178 5.00248,-2.50761 7.71875,-2.28125 2.71628,0.22635 12.21279,1.58532 14.25,0.90625 2.0372,-0.67907 4.07771,-4.2829 3.625,-6.09375 -0.45272,-1.81085 -6.80737,-1.14865 -9.75,-1.375 -2.94263,-0.22641 -14.6875,2.7187 -14.6875,2.7187 l -0.25,-7.25 c 0,0 9.50843,-0.68072 10.1875,-1.8125 0.67906,-1.13178 -2.03372,-3.85301 -4.75,-5.4375 -2.71627,-1.58449 -16.96875,2.28125 -16.96875,2.28125 0,0 -0.46115,-1.80572 -0.6875,-2.9375 -0.11318,-0.56589 -1.64903,-0.84375 -3.375,-0.84375 z"
         style="fill:#000000;fill-opacity:0.5;stroke:none"
         inkscape:connector-curvature="0" />
      <path
         id="path3916"
         d="m 156.84375,640.92394 c -2.84095,0.0526 -10.12282,1.53081 -13.09375,2.125 -3.39534,0.67907 -14.5,0.4375 -14.5,0.4375 0,0 -1.59292,6.57854 -0.6875,7.03125 0.90543,0.45271 7.92394,-1.59375 10.1875,-1.59375 2.26357,0 5.22718,1.353 5.90625,2.9375 0.67907,1.58449 -2.05654,3.17311 -4.09375,4.53125 -2.0372,1.35814 -8.5954,1.125 -10.40625,1.125 -1.81085,0 -4.52447,-1.35813 -5.65625,0 -1.13178,1.35814 3.38425,4.3125 4.96875,4.3125 1.58449,0 6.58019,-0.90625 8.84375,-0.90625 2.26356,0 5.66386,3.17311 5.4375,4.53125 -0.22635,1.35814 -3.39351,4.50843 -6.5625,5.1875 -3.16899,0.67906 -12.00165,1.60136 -13.8125,1.375 -1.81085,-0.22635 -4.30572,-3.17146 -5.4375,-2.71875 -1.13178,0.45271 2.01686,5.42311 3.375,6.78125 1.35814,1.35813 7.92476,3.60979 11.09375,4.0625 3.16899,0.45271 24.44758,-8.36061 26.9375,-9.71875 2.48992,-1.35814 5.21875,-7.25 5.21875,-7.25 0,0 -2.72883,2.50083 -5.21875,3.40625 -2.48992,0.90543 -7.44675,0.67064 -9.03125,-0.6875 -1.58449,-1.35813 0,-6.34375 0,-6.34375 0,0 10.63426,0.90625 12.21875,0.90625 1.58449,0 0.45271,-2.7204 0,-4.53125 -0.45271,-1.81085 -5.00248,-1.10896 -7.71875,-0.65625 -2.71628,0.45271 -4.75,-3.1875 -4.75,-3.1875 l 1.8125,-4.96875 c 0,0 3.39269,0.4375 5.65625,0.4375 2.26357,0 3.625,-2.02447 3.625,-3.15625 0,-1.13178 -1.79051,-2.95354 -3.375,-3.40625 -0.19806,-0.0566 -0.53165,-0.07 -0.9375,-0.0625 z"
         style="fill:#000000;fill-opacity:0.5;stroke:none"
         inkscape:connector-curvature="0" />
      <path
         id="path3910"
         d="m 150.0625,680.14269 -7.6875,1.8125 c 0,0 3.17229,3.42311 3.625,4.78125 0.45272,1.35814 -2.71792,30.07936 -1.8125,31.4375 0.90543,1.35814 5.21875,3.875 5.21875,3.875 0,0 -7.26008,5.43155 -9.75,7.46875 -2.48992,2.03721 -11.75,6.5625 -11.75,6.5625 0,0 -4.55572,8.2e-4 -5.6875,0.90625 -1.13178,0.90542 1.37747,3.38343 4.09375,4.0625 2.71627,0.67907 16.06662,-0.9079 20.59375,-2.71875 4.52712,-1.81085 17.43832,-9.26686 18.34375,-10.625 0.90542,-1.35814 -0.90625,-4.09375 -0.90625,-4.09375 0,0 11.30654,-0.67989 13.34375,-0.90625 2.03721,-0.22635 3.40625,-0.90625 3.40625,-0.90625 0,0 2.93997,2.94593 5.65625,3.625 2.71627,0.67907 5.20436,-0.22801 6.5625,-1.8125 1.35814,-1.58449 0.68585,-40.95436 -1.125,-42.3125 -1.81085,-1.35814 -36.4628,1.79646 -38.5,1.34375 -2.03721,-0.45272 -3.625,-2.5 -3.625,-2.5 z m 11.0625,6.90625 c 7.63952,-0.0637 21.78125,0.59375 21.78125,0.59375 0,0 1.125,14.23644 1.125,16.5 0,2.26356 -1.36822,14.04729 -2.5,14.5 -1.13179,0.45271 -4.96875,-2.03125 -4.96875,-2.03125 0,0 -19.02447,0.67907 -20.15625,0 -1.13178,-0.67906 -0.90542,-4.54729 0,-5 0.90543,-0.45272 15.17394,-0.4375 17.4375,-0.4375 2.26357,0 4.75082,-0.46958 5.65625,-1.375 0.90542,-0.90543 -0.4375,-5.1875 -0.4375,-5.1875 0,0 -20.85301,1.14021 -22.4375,0.6875 -1.5845,-0.45271 -0.88178,-4.55572 0.25,-5.6875 1.13179,-1.13179 9.05736,-0.65625 12,-0.65625 2.94263,0 9.71957,0.89782 10.625,0.21875 0.90542,-0.67907 0.21793,-4.53207 -0.6875,-5.4375 -0.90542,-0.90542 -24,0.6875 -24,0.6875 0,0 0.23561,-6.12583 1.59375,-7.03125 0.33954,-0.22636 2.17224,-0.32253 4.71875,-0.34375 z"
         style="fill:#000000;fill-opacity:0.5;stroke:none"
         inkscape:connector-curvature="0" />
      <path
         id="path3906"
         d="m 187.5,728.92394 c -5.55905,0.11638 -11.13067,1.25 -12.53125,1.25 -2.48992,0 -4.28208,-1.35896 -5.1875,-0.90625 -0.90543,0.45271 24.65625,17.65625 24.65625,17.65625 0,0 9.29133,3.62335 11.78125,1.8125 2.48991,-1.81085 -2.2862,-12.20766 -7.71875,-17.1875 -2.37674,-2.17868 -6.6763,-2.71552 -11,-2.625 z"
         style="fill:#000000;fill-opacity:0.5;stroke:none"
         inkscape:connector-curvature="0" />
      <path
         id="path3904"
         d="m 296.3125,739.17394 c -0.52406,-0.0156 -0.94404,0.069 -1.15625,0.28125 -1.13178,1.13178 0.91386,4.77447 0.6875,5.90625 -0.22635,1.13178 -1.125,3.84375 -1.125,3.84375 0,0 -7.03207,-0.45271 -7.9375,0 -0.90542,0.45271 0.91551,4.75 2.5,4.75 l 6.125,0 -0.46875,4.0625 c 0,0 -9.50843,0.68832 -10.1875,1.59375 -0.67906,0.90542 1.60301,4.0625 3.1875,4.0625 l 5.875,0 0.21875,4.75 c 0,0 -8.14946,0.0169 -9.28125,1.375 -1.13178,1.35813 0.91551,4.28208 2.5,5.1875 1.5845,0.90543 7,0.6875 7,0.6875 0,0 -0.22718,4.76604 -0.90625,5.21875 -0.67907,0.45272 -11.3125,-0.21875 -11.3125,-0.21875 0,0 -1.58531,-28.30654 -0.90625,-30.34375 0.67907,-2.03721 0.9046,-7.93072 -0.90625,-9.0625 -1.81085,-1.13178 -9.25843,-3.1546 -9.9375,-1.34375 -0.67906,1.81085 2.71875,2.93154 2.71875,4.96875 0,2.03721 1.35136,11.3158 1.125,14.9375 -0.22636,3.6217 -0.21958,19.92311 -1.125,21.28125 -0.90543,1.35814 -9.07936,1.8125 -10.4375,1.8125 -1.35814,0 -2.47553,-3.63343 -1.34375,-4.3125 1.13179,-0.67907 8.13343,-0.43832 8.8125,-1.34375 0.67907,-0.90542 1.82689,-4.96875 0.46875,-4.96875 -1.35814,0 -5.89947,0.67906 -7.03125,0 -1.13178,-0.67907 -2.71793,-4.54729 -1.8125,-5 0.90542,-0.45271 7.24322,-0.23479 8.375,-0.6875 1.13178,-0.45271 5.45106,-4.74322 3.1875,-5.875 -2.26357,-1.13178 -12.90625,0.21875 -12.90625,0.21875 l -0.6875,-7.46875 c 0,0 8.14187,1.14782 9.5,0.46875 1.35814,-0.67907 4.31845,-2.71197 2.28125,-3.84375 -2.03721,-1.13178 -12.6875,-1.15625 -12.6875,-1.15625 0,0 2.73314,-2.4628 1.375,-4.5 -1.35813,-2.03721 -4.31498,-4.7576 -7.03125,-4.53125 -2.71628,0.22636 -4.3125,1.33779 -4.3125,3.375 0,2.0372 1.375,5.65625 1.375,5.65625 0,0 -11.55572,-0.67825 -12.6875,0.90625 -1.13178,1.58449 -0.45106,5.68832 1.8125,6.59375 2.26356,0.90542 12.21875,-0.90625 12.21875,-0.90625 l 0,6.09375 c 0,0 -10.84457,0.68072 -11.75,1.8125 -0.90542,1.13178 1.36061,4.97718 2.71875,5.65625 1.35813,0.67907 9.28125,-1.8125 9.28125,-1.8125 l -0.46875,5.65625 c 0,0 -7.22718,0.46197 -7.90625,1.59375 -0.67907,1.13178 -0.022,5.89104 1.5625,6.34375 1.5845,0.45272 7.25,-0.46875 7.25,-0.46875 l 0,5 -12.21875,0.90625 c 0,0 -0.21279,-17.67476 -2.25,-20.84375 -2.0372,-3.16899 -9.96279,-8.36739 -12,-8.59375 -2.0372,-0.22636 -3.39021,-0.2171 -2.9375,1.59375 0.45271,1.81085 5.20354,7.46362 5.65625,10.40625 0.45271,2.94263 1.57771,11.32259 1.125,13.8125 -0.45271,2.48992 -3.16981,6.54134 -0.90625,9.03125 2.26357,2.48992 5.66633,4.75761 8.15625,4.53125 2.48992,-0.22636 23.53868,-6.56332 31.6875,-7.46875 8.14883,-0.90542 30.10548,-2.71032 34.40625,-2.03125 4.30076,0.67907 12.4375,0.6875 12.4375,0.6875 0,0 -2.7171,4.28207 -0.90625,5.1875 1.81085,0.90542 5.65029,0.68668 7.6875,-0.21875 2.0372,-0.90542 6.33697,-7.69758 7.46875,-10.1875 1.13178,-2.48992 7.47636,-15.83019 7.25,-18.09375 -0.22635,-2.26356 -4.73644,-7.25926 -7,-8.84375 -2.26356,-1.5845 -7.70436,-4.06085 -9.0625,-2.25 -1.35814,1.81085 0.90707,4.28372 1.8125,7 0.90542,2.71627 -1.375,7.25165 -1.375,9.0625 0,1.81085 0.90543,5.19675 0,6.78125 -0.90542,1.58449 -2.25165,5.21114 -4.0625,5.4375 -1.81085,0.22635 -14.71875,-0.4375 -14.71875,-0.4375 0,0 -1.57606,-4.75926 0.6875,-6.34375 2.26356,-1.5845 9.73561,1.57689 11.09375,0.21875 1.35814,-1.35813 2.25596,-4.73479 0.21875,-5.1875 -2.0372,-0.45271 -11.3125,-0.6875 -11.3125,-0.6875 L 304,762.76769 c 0,0 7.69676,0.46032 9.28125,-0.21875 1.5845,-0.67907 0.897,-4.96875 -0.6875,-4.96875 -1.58449,0 -7.46875,-0.25 -7.46875,-0.25 l 0.46875,-5.875 c 0,0 8.81332,0.90543 9.71875,0 0.90542,-0.90542 -1.14269,-4.96875 -3.40625,-4.96875 -2.26357,0 -8.375,0.90625 -8.375,0.90625 0,0 2.04564,-2.49404 0.6875,-4.53125 -1.10348,-1.65522 -5.63534,-3.61997 -7.90625,-3.6875 z"
         style="fill:#000000;fill-opacity:0.5;stroke:none"
         inkscape:connector-curvature="0" />
      <path
         id="path3902"
         d="m 292.75,793.61144 c -4.01782,0.0566 -8.56159,0.28546 -11.84375,0.625 -6.56433,0.67907 -19.68998,2.5 -22.40625,2.5 -2.71628,0 -5.21114,0.68832 -5.4375,1.59375 -0.22636,0.90542 2.93237,4.07011 5.875,3.84375 2.94263,-0.22635 22.65625,-1.8125 22.65625,-1.8125 0,0 17.20518,-0.21957 19.46875,-1.125 2.26356,-0.90542 2.92742,-4.53968 0.4375,-5.21875 -1.24496,-0.33954 -4.73218,-0.46284 -8.75,-0.40625 z"
         style="fill:#000000;fill-opacity:0.5;stroke:none"
         inkscape:connector-curvature="0" />
      <path
         id="path3900"
         d="m 301.96875,804.64269 c 0,0 -18.80819,1.14864 -22.65625,1.375 -3.84805,0.22635 -18.99404,0.45354 -21.03125,0.90625 -2.0372,0.45272 -7.46875,-0.24074 -7.46875,1.34375 0,1.58449 2.26769,5 4.53125,5 2.26356,0 5.40625,0.21875 5.40625,0.21875 l 0.25,5.4375 c 0,0 -3.63343,-1.36574 -4.3125,0.21875 -0.67907,1.58449 -1.57606,3.85218 0.6875,4.53125 2.26356,0.67906 14.46875,1.59375 14.46875,1.59375 l 19.46875,-2.0625 c 0,0 3.18071,1.38096 4.3125,-0.65625 1.13178,-2.0372 -1.14022,-2.73561 -0.6875,-4.09375 0.45271,-1.35814 5.43915,-5.20436 7.25,-6.5625 1.81085,-1.35814 7.00596,-4.74322 4.96875,-5.875 -2.0372,-1.13178 -5.1875,-1.375 -5.1875,-1.375 z m -25.9375,6.375 c 5.02891,-0.0774 11.21875,0.1875 11.21875,0.1875 0,0 1.58367,4.0954 -0.90625,5.90625 -2.48992,1.81085 -12.6875,3.15625 -12.6875,3.15625 0,0 -4.05571,-0.45436 -5.1875,-1.8125 -1.13178,-1.35814 -0.24074,-5.64946 1.34375,-6.78125 0.59419,-0.42442 3.2014,-0.60983 6.21875,-0.65625 z"
         style="fill:#000000;fill-opacity:0.5;stroke:none"
         inkscape:connector-curvature="0" />
      <path
         id="path3894"
         d="m 285.21875,824.79894 c -2.48992,0.22635 -3.625,-0.0144 -3.625,1.34375 0,1.35814 4.28886,3.18832 4.0625,4.09375 -0.22636,0.90542 -3.83697,4.29051 -4.96875,5.875 -1.13178,1.58449 -4.07258,3.40625 -6.5625,3.40625 -2.48992,0 -5.90625,-0.009 -5.90625,-1.59375 0,-1.58449 3.4155,-6.11822 5,-7.25 1.58449,-1.13178 4.28125,-2.70437 4.28125,-4.0625 0,0 -8.35383,2.4924 -10.84375,2.71875 -2.48991,0.22636 -9.50926,-2.49835 -11.09375,-0.6875 -1.5845,1.81085 0.89186,5.66468 2.25,6.34375 1.35814,0.67907 5.20188,3.40707 3.84375,4.3125 -1.35814,0.90542 -12.22205,1.79729 -15.84375,2.25 -3.6217,0.45271 -12.66551,0.23562 -14.25,1.59375 -1.5845,1.35814 -0.46032,5.18833 0.21875,6.09375 0.67907,0.90543 6.78373,-0.22635 9.5,0 2.71628,0.22636 28.32424,-1.8125 32.625,-1.8125 4.30077,0 27.82423,-1.78803 32.125,-0.65625 4.30077,1.13178 12.90112,3.84293 15.84375,2.9375 2.94263,-0.90542 4.99157,-4.07258 4.3125,-6.5625 -0.67907,-2.48992 -4.08101,-5.4375 -7.25,-5.4375 -3.16899,0 -26.71875,-0.21875 -26.71875,-0.21875 0,0 6.35218,-2.7128 7.03125,-4.75 0.67906,-2.03721 0.45024,-4.08697 -2.71875,-5.21875 -3.16899,-1.13178 -8.82258,-2.94511 -11.3125,-2.71875 z"
         style="fill:#000000;fill-opacity:0.5;stroke:none"
         inkscape:connector-curvature="0" />
      <path
         id="path3940"
         d="m 281.6875,442.98644 c -128.07614,0 -231.90625,103.83011 -231.90625,231.90625 0,128.07614 103.83011,231.90625 231.90625,231.90625 128.07614,0 231.90625,-103.83011 231.90625,-231.90625 0,-128.07614 -103.83011,-231.90625 -231.90625,-231.90625 z"
         style="fill:none;stroke:#000000;stroke-width:1px;stroke-linecap:butt;stroke-linejoin:miter;stroke-opacity:1"
         inkscape:connector-curvature="0" />
      <path
         transform="translate(0,308.26769)"
         id="path3992"
         d="m 281.6875,186.28125 c -99.59884,0 -180.34375,80.74491 -180.34375,180.34375 0,0.66847 0.024,1.33325 0.0312,2 1.07381,-98.67622 81.38213,-178.34375 180.3125,-178.34375 98.93037,0 179.23869,79.66753 180.3125,178.34375 0.007,-0.66675 0.0312,-1.33153 0.0312,-2 0,-99.59884 -80.74491,-180.34375 -180.34375,-180.34375 z"
         style="fill:#000000;fill-opacity:0.5;stroke:none"
         inkscape:connector-curvature="0" />
      <path
         id="path3936"
         d="m 283.15625,507.01769 c -4.05717,-0.1207 -10.01012,1.87456 -10.40625,2.46875 -0.45271,0.67907 4.77446,5.43998 5.90625,8.15625 1.13178,2.71628 4.75,17.65625 4.75,17.65625 0,0 -12.01338,1.57936 -18.125,2.9375 -6.11162,1.35814 -10.62748,4.76521 -13.34375,4.3125 -2.71628,-0.45271 -6.79976,-3.39864 -9.96875,-3.625 -3.16898,-0.22636 -7.00843,-1.60053 -7.6875,-0.46875 -0.67907,1.13178 3.16468,5.21279 3.84375,7.25 0.67907,2.0372 1.14782,25.11391 0.46875,30.09375 -0.67907,4.97984 -5.21196,25.80654 -6.34375,27.84375 -1.13178,2.0372 -4.53125,5.68071 -4.53125,6.8125 0,1.13178 1.5954,3.60054 3.40625,2.46875 1.81085,-1.13178 8.57936,-8.80737 9.9375,-11.75 1.35814,-2.94263 5.90707,-15.85466 6.8125,-19.25 0.90542,-3.39535 2.92229,-13.36309 3.375,-17.4375 0.45271,-4.07442 -0.68668,-13.13344 0.21875,-13.8125 0.90542,-0.67907 13.58184,-3.83614 17.65625,-4.0625 l 16.3125,-0.90625 c 0,0 1.82175,16.5109 3.40625,19.90625 1.58449,3.39534 8.59375,17.4375 8.59375,17.4375 0,0 -12.01687,18.3454 -13.375,20.15625 -1.35814,1.81085 -6.76521,8.14947 -6.3125,9.28125 0.45271,1.13178 6.76851,-0.0101 9.9375,-2.5 3.16898,-2.48992 13.375,-14.25 13.375,-14.25 0,0 9.72965,12.21362 13.125,15.15625 3.39534,2.94263 10.6359,6.10979 14.03125,6.5625 3.39534,0.45271 9.94593,1.13939 10.625,-0.21875 0.67907,-1.35813 -2.71115,-8.14269 -2.9375,-10.40625 -0.22636,-2.26357 0.9046,-9.29729 -0.90625,-9.75 -1.81085,-0.45272 -3.40029,1.14947 -5.4375,2.28125 -2.0372,1.13178 -4.96875,3.375 -4.96875,3.375 0,0 -6.79894,-6.09623 -9.0625,-8.8125 -2.26357,-2.71628 -6.78125,-12.21875 -6.78125,-12.21875 0,0 12.43667,-13.14434 11.53125,-17.21875 -0.90543,-4.07442 -7.91633,-10.40707 -10.40625,-11.3125 -2.48992,-0.90542 -4.29811,-2.48313 -5.65625,-1.125 -1.35813,1.35814 3.1875,5.43915 3.1875,7.25 0,1.81085 -1.83697,10.15625 -2.96875,10.15625 -1.13178,0 -6.31333,-8.12069 -7.21875,-11.96875 -0.90543,-3.84805 -2.28125,-12.6875 -2.28125,-12.6875 0,0 14.47966,-0.007 17.875,1.125 3.39534,1.13179 10.6655,0.9046 12.25,-0.90625 1.58449,-1.81085 3.61657,-4.98561 2.9375,-6.34375 -0.67907,-1.35813 -7.25926,-5.65625 -8.84375,-5.65625 -1.5845,0 -25.5625,1.125 -25.5625,1.125 0,0 -2.05407,-6.54298 -1.375,-10.84375 0.67907,-4.30077 2.28125,-9.5 2.28125,-9.5 0,0 -5.90194,-5.65708 -9.75,-6.5625 -0.48101,-0.11318 -1.01415,-0.20151 -1.59375,-0.21875 z"
         style="fill:#000000;fill-opacity:0.5;stroke:none"
         inkscape:connector-curvature="0" />
      <path
         inkscape:connector-curvature="0"
         id="path3007"
         d="m 281.6875,442.98644 c -128.07614,0 -231.90625,103.83011 -231.90625,231.90625 0,128.07614 103.83011,231.90625 231.90625,231.90625 128.07614,0 231.90625,-103.83011 231.90625,-231.90625 0,-128.07614 -103.83011,-231.90625 -231.90625,-231.90625 z m 0,51.5625 c 99.59884,0 180.34375,80.74491 180.34375,180.34375 0,99.59884 -80.74491,180.34375 -180.34375,180.34375 -99.59884,0 -180.34375,-80.74491 -180.34375,-180.34375 0,-99.59884 80.74491,-180.34375 180.34375,-180.34375 z m 1.46875,8.46875 c -4.05717,-0.1207 -10.01012,1.87456 -10.40625,2.46875 -0.45271,0.67907 4.77446,5.43998 5.90625,8.15625 1.13178,2.71628 4.75,17.65625 4.75,17.65625 0,0 -12.01338,1.57936 -18.125,2.9375 -6.11162,1.35814 -10.62748,4.76521 -13.34375,4.3125 -2.71628,-0.45271 -6.79976,-3.39864 -9.96875,-3.625 -3.16898,-0.22636 -7.00843,-1.60053 -7.6875,-0.46875 -0.67907,1.13178 3.16468,5.21279 3.84375,7.25 0.67907,2.0372 1.14782,25.11391 0.46875,30.09375 -0.67907,4.97984 -5.21196,25.80654 -6.34375,27.84375 -1.13178,2.0372 -4.53125,5.68071 -4.53125,6.8125 0,1.13178 1.5954,3.60054 3.40625,2.46875 1.81085,-1.13178 8.57936,-8.80737 9.9375,-11.75 1.35814,-2.94263 5.90707,-15.85466 6.8125,-19.25 0.90542,-3.39535 2.92229,-13.36309 3.375,-17.4375 0.45271,-4.07442 -0.68668,-13.13344 0.21875,-13.8125 0.90542,-0.67907 13.58184,-3.83614 17.65625,-4.0625 l 16.3125,-0.90625 c 0,0 1.82175,16.5109 3.40625,19.90625 1.58449,3.39534 8.59375,17.4375 8.59375,17.4375 0,0 -12.01687,18.3454 -13.375,20.15625 -1.35814,1.81085 -6.76521,8.14947 -6.3125,9.28125 0.45271,1.13178 6.76851,-0.0101 9.9375,-2.5 3.16898,-2.48992 13.375,-14.25 13.375,-14.25 0,0 9.72965,12.21362 13.125,15.15625 3.39534,2.94263 10.6359,6.10979 14.03125,6.5625 3.39534,0.45271 9.94593,1.13939 10.625,-0.21875 0.67907,-1.35813 -2.71115,-8.14269 -2.9375,-10.40625 -0.22636,-2.26357 0.9046,-9.29729 -0.90625,-9.75 -1.81085,-0.45272 -3.40029,1.14947 -5.4375,2.28125 -2.0372,1.13178 -4.96875,3.375 -4.96875,3.375 0,0 -6.79894,-6.09623 -9.0625,-8.8125 -2.26357,-2.71628 -6.78125,-12.21875 -6.78125,-12.21875 0,0 12.43667,-13.14434 11.53125,-17.21875 -0.90543,-4.07442 -7.91633,-10.40707 -10.40625,-11.3125 -2.48992,-0.90542 -4.29811,-2.48313 -5.65625,-1.125 -1.35813,1.35814 3.1875,5.43915 3.1875,7.25 0,1.81085 -1.83697,10.15625 -2.96875,10.15625 -1.13178,0 -6.31333,-8.12069 -7.21875,-11.96875 -0.90543,-3.84805 -2.28125,-12.6875 -2.28125,-12.6875 0,0 14.47966,-0.007 17.875,1.125 3.39534,1.13179 10.6655,0.9046 12.25,-0.90625 1.58449,-1.81085 3.61657,-4.98561 2.9375,-6.34375 -0.67907,-1.35813 -7.25926,-5.65625 -8.84375,-5.65625 -1.5845,0 -25.5625,1.125 -25.5625,1.125 0,0 -2.05407,-6.54298 -1.375,-10.84375 0.67907,-4.30077 2.28125,-9.5 2.28125,-9.5 0,0 -5.90194,-5.65708 -9.75,-6.5625 -0.48101,-0.11318 -1.01415,-0.20151 -1.59375,-0.21875 z m 18.5625,7.6875 c -1.81085,0 -4.7424,2.25925 -4.96875,3.84375 -0.22636,1.58449 2.25248,3.6174 4.96875,3.84375 2.71628,0.22636 12.91633,4.07093 15.40625,4.75 2.48992,0.67906 2.93915,1.35053 4.75,0.21875 1.81085,-1.13178 4.75,-2.92394 4.75,-5.1875 0,0 -6.09705,-4.97718 -9.71875,-5.65625 -3.6217,-0.67907 -13.37665,-1.8125 -15.1875,-1.8125 z m -20.65625,38.6875 c -3.07607,0.21637 -9.77543,2.63045 -12.375,3.1875 -3.16899,0.67907 -12.89947,0.21196 -14.03125,1.34375 -1.13178,1.13178 -0.45106,6.35218 1.8125,7.03125 2.26357,0.67907 9.05819,-1.375 12.90625,-1.375 3.84806,0 13.34458,-0.9079 14.25,-2.71875 0,0 0.23314,-6.11822 -1.125,-7.25 -0.16977,-0.14147 -0.48507,-0.2046 -0.875,-0.21875 -0.1706,-0.006 -0.35743,-0.0144 -0.5625,0 z m -1.5,17.15625 c -0.3864,0.0102 -0.78842,0.0342 -1.15625,0.0625 -2.94263,0.22635 -13.79215,3.625 -17.1875,3.625 -3.39534,0 -5.43915,-1.83531 -7.25,-1.15625 -1.81085,0.67907 -2.71032,3.16633 -2.03125,5.65625 0.67907,2.48992 2.5,9.75248 2.5,12.46875 0,2.71628 -0.022,9.71279 1.5625,11.75 1.58449,2.03721 5.2204,5.43668 7.03125,4.53125 1.81085,-0.90542 1.12665,-5.18072 2.9375,-6.3125 1.81085,-1.13178 11.32176,-1.59375 12.90625,-1.59375 1.5845,0 4.51687,-1.57936 5.875,-2.9375 1.35814,-1.35813 -1.36657,-6.35383 -0.6875,-8.84375 0.67906,-2.48992 4.53125,-7.00165 4.53125,-8.8125 0,-1.81085 -0.65625,-5.65625 -0.65625,-5.65625 -2.5748,-2.37674 -5.67022,-2.85243 -8.375,-2.78125 z m -3.78125,8.9375 c 0.55528,-0.0495 0.99831,0.0667 1.28125,0.40625 1.13178,1.35814 -1.82093,5.63426 -2.5,7.21875 -0.67907,1.5845 -0.67312,4.32854 -2.03125,4.78125 -1.35814,0.45272 -6.55571,0.65542 -7.6875,-0.25 -1.13178,-0.90543 -1.125,-5.20437 -1.125,-6.5625 0,-1.35814 0.4375,-3.625 0.4375,-3.625 0,0 3.39269,0.45271 5.65625,0 1.69767,-0.33954 4.30291,-1.8202 5.96875,-1.96875 z m -116.84375,30.5625 c -1.39793,0.0119 -2.44637,0.1516 -2.53125,0.40625 -0.22635,0.67907 1.14947,5.87665 2.28125,7.6875 1.13179,1.81085 3.15542,4.97718 2.25,5.65625 -0.90543,0.67907 -6.10383,2.92989 -8.59375,3.15625 -2.48992,0.22635 -20.15873,1.59375 -22.875,1.59375 -2.71628,0 -6.103,-2.03125 -7.6875,-2.03125 -1.58449,0 -4.08697,8.5954 -5.21875,10.40625 -1.13178,1.81085 -3.60136,7.91633 -3.375,10.40625 0.22635,2.48992 0.6579,4.30489 2.46875,4.53125 1.81085,0.22635 3.40625,-0.6875 3.40625,-0.6875 0,0 5.22205,-13.55655 8.84375,-15.59375 3.6217,-2.03721 23.97123,-3.85896 26.6875,-3.40625 2.71628,0.45271 5.66038,1.79646 10.1875,1.34375 4.52713,-0.45271 10.65625,-3.375 10.65625,-3.375 0,0 28.05572,-0.91303 29.1875,0.21875 1.13179,1.13178 -0.45189,8.81333 0.90625,9.71875 1.35814,0.90543 9.7204,-4.51686 11.53125,-5.875 1.81085,-1.35814 6.5625,-5.20437 6.5625,-6.5625 0,-1.35814 -6.08697,-7.6799 -7.21875,-7.90625 -1.13178,-0.22636 -7.02446,-0.0152 -8.15625,0.4375 -1.13178,0.45271 -3.61062,2.27364 -4.96875,2.5 -1.35814,0.22636 -13.14352,1.34375 -16.3125,1.34375 -3.16899,0 -13.125,0.90625 -13.125,0.90625 0,0 3.40543,-3.85383 2.5,-6.34375 -0.90542,-2.48992 -7.69758,-6.78207 -10.1875,-7.6875 -1.5562,-0.56589 -4.88887,-0.86364 -7.21875,-0.84375 z m 66.03125,12.75 0,112.8125 113.4375,0 0,-112.8125 -113.4375,0 z m 195.65625,3.46875 c -0.26441,-10e-4 -0.53592,0.0159 -0.84375,0.0312 -5.33568,0.26581 -16.6675,2.67418 -23.65625,3.59375 -8.60154,1.13178 -35.78125,3.1875 -35.78125,3.1875 0.67907,1.13178 9.53373,9.0405 12.25,10.625 2.71628,1.58449 9.02777,-0.68072 13.78125,-1.8125 4.75348,-1.13179 27.87069,-4.07772 31.71875,-3.625 3.84805,0.45271 8.58861,1.13096 11.53125,-0.90625 2.94263,-2.03721 -4.76009,-9.71197 -7.25,-10.84375 -0.35014,-0.15916 -0.95678,-0.24684 -1.75,-0.25 z m -185.59375,6.53125 93.3125,0 0,92.8125 -93.3125,0 0,-92.8125 z m -56.875,3.96875 c -1.72597,0 -3.62583,0.27786 -4.53125,0.84375 -1.81085,1.13178 -6.13178,12.67229 -5,13.125 1.13178,0.45272 4.76851,-2.27447 7.9375,-3.40625 3.16899,-1.13178 9.0625,0.46875 9.0625,0.46875 0,0 -0.70436,4.9704 -2.0625,6.78125 -1.35814,1.81085 -16.05572,2.02365 -17.1875,2.25 -1.13178,0.22636 0.21875,5 0.21875,5 l 17.875,-2.5 1.59375,8.375 -7,0.21875 c 0,0 -0.22718,-3.39864 -0.90625,-3.625 -0.67907,-0.22636 -8.61822,-0.43667 -9.75,0.46875 -1.13178,0.90543 -0.20949,9.27447 1.375,10.40625 1.58449,1.13178 21.03968,-2.02447 21.71875,-3.15625 0.003,-0.006 -0.003,-0.0251 0,-0.0312 2.04944,-0.23087 4.99764,-0.51121 5.875,-0.21875 1.35814,0.45271 -0.67907,7.25083 0,8.15625 0.67907,0.90543 5.67311,1.13178 7.03125,0 1.35814,-1.13178 4.06167,-13.79051 3.15625,-15.375 -0.90543,-1.5845 -6.57258,-6.11657 -9.0625,-5.4375 -2.48991,0.67907 0.6875,7.6875 0.6875,7.6875 l -7.3125,0.40625 c 0.0821,-3.49744 0.1478,-7.62838 0.96875,-8.3125 1.35814,-1.13178 5.00248,-2.50761 7.71875,-2.28125 2.71628,0.22635 12.21279,1.58532 14.25,0.90625 2.0372,-0.67907 4.07771,-4.2829 3.625,-6.09375 -0.45272,-1.81085 -6.80737,-1.14865 -9.75,-1.375 -2.94263,-0.22641 -14.6875,2.7187 -14.6875,2.7187 l -0.25,-7.25 c 0,0 9.50843,-0.68072 10.1875,-1.8125 0.67906,-1.13178 -2.03372,-3.85301 -4.75,-5.4375 -2.71627,-1.58449 -16.96875,2.28125 -16.96875,2.28125 0,0 -0.46115,-1.80572 -0.6875,-2.9375 -0.11318,-0.56589 -1.64903,-0.84375 -3.375,-0.84375 z m -21.3125,4.15625 c -2.84095,0.0526 -10.12282,1.53081 -13.09375,2.125 -3.39534,0.67907 -14.5,0.4375 -14.5,0.4375 0,0 -1.59292,6.57854 -0.6875,7.03125 0.90543,0.45271 7.92394,-1.59375 10.1875,-1.59375 2.26357,0 5.22718,1.353 5.90625,2.9375 0.67907,1.58449 -2.05654,3.17311 -4.09375,4.53125 -2.0372,1.35814 -8.5954,1.125 -10.40625,1.125 -1.81085,0 -4.52447,-1.35813 -5.65625,0 -1.13178,1.35814 3.38425,4.3125 4.96875,4.3125 1.58449,0 6.58019,-0.90625 8.84375,-0.90625 2.26356,0 5.66386,3.17311 5.4375,4.53125 -0.22635,1.35814 -3.39351,4.50843 -6.5625,5.1875 -3.16899,0.67906 -12.00165,1.60136 -13.8125,1.375 -1.81085,-0.22635 -4.30572,-3.17146 -5.4375,-2.71875 -1.13178,0.45271 2.01686,5.42311 3.375,6.78125 1.35814,1.35813 7.92476,3.60979 11.09375,4.0625 3.16899,0.45271 24.44758,-8.36061 26.9375,-9.71875 2.48992,-1.35814 5.21875,-7.25 5.21875,-7.25 0,0 -2.72883,2.50083 -5.21875,3.40625 -2.48992,0.90543 -7.44675,0.67064 -9.03125,-0.6875 -1.58449,-1.35813 0,-6.34375 0,-6.34375 0,0 10.63426,0.90625 12.21875,0.90625 1.58449,0 0.45271,-2.7204 0,-4.53125 -0.45271,-1.81085 -5.00248,-1.10896 -7.71875,-0.65625 -2.71628,0.45271 -4.75,-3.1875 -4.75,-3.1875 l 1.8125,-4.96875 c 0,0 3.39269,0.4375 5.65625,0.4375 2.26357,0 3.625,-2.02447 3.625,-3.15625 0,-1.13178 -1.79051,-2.95354 -3.375,-3.40625 -0.19806,-0.0566 -0.53165,-0.07 -0.9375,-0.0625 z m 274.46875,6.75 c -2.30247,0.0849 -5.64012,1.30741 -9.375,2.15625 -4.97983,1.13179 -19.48973,2.50082 -25.375,3.40625 -5.88526,0.90542 -31.91716,4.04729 -35.3125,4.5 -3.39535,0.45272 -13.34375,-1.125 -13.34375,-1.125 -0.90543,1.13178 7.70436,11.78208 9.0625,12.6875 1.35814,0.90543 10.19162,-0.45436 14.71875,-1.8125 4.52712,-1.35814 11.32176,-2.48397 12.90625,-2.03125 1.5845,0.45271 -0.69593,2.93072 -1.375,4.0625 -0.67906,1.13178 -9.4957,12.22288 -13.34375,16.75 -3.84806,4.52713 -17.89434,15.61144 -21.96875,17.875 -4.07441,2.26357 -6.5625,2.04051 -6.5625,3.625 0,1.5845 2.25412,2.49157 6.78125,1.8125 4.52712,-0.67906 13.81067,-5.43402 20.375,-10.1875 6.56433,-4.75348 16.5438,-15.82505 21.75,-21.03125 5.20619,-5.20619 18.5625,-17.65625 18.5625,-17.65625 0,0 8.80223,-0.90625 14.6875,-0.90625 5.88526,0 14.04894,0.67064 16.3125,-0.6875 2.26356,-1.35814 -4.5253,-9.96196 -6.5625,-11.09375 -0.5093,-0.28294 -1.17001,-0.37204 -1.9375,-0.34375 z m -26.78125,19.625 c -0.71842,0.0442 -1.15625,0.40625 -1.15625,0.40625 -1.58449,1.13178 -7.46958,19.46445 -8.375,23.3125 -0.90543,3.84806 2.71279,18.33101 4.75,21.5 2.03721,3.16898 18.32671,6.35218 25.34375,7.03125 7.01704,0.67907 20.82258,-3.4155 23.3125,-5 2.48991,-1.58449 2.03042,-6.55654 1.125,-8.59375 -0.90543,-2.0372 -2.25083,-10.17477 -3.15625,-13.34375 -0.90543,-3.16899 -0.46279,-13.8125 -2.5,-13.8125 -2.03721,0 -0.90625,2.26769 -0.90625,4.53125 0,2.26356 -0.20436,16.29894 -1.5625,18.5625 -1.35814,2.26356 -13.83266,4.28207 -18.8125,5.1875 -4.97984,0.90542 -12.90029,-2.47122 -14.9375,-5.1875 -2.03721,-2.71627 4.9924,-24.45436 5.21875,-25.8125 0.22636,-1.35814 -5.19676,-7.46958 -6.78125,-8.375 -0.59419,-0.33954 -1.13145,-0.43278 -1.5625,-0.40625 z m -254.46875,12.84375 -7.6875,1.8125 c 0,0 3.17229,3.42311 3.625,4.78125 0.45272,1.35814 -2.71792,30.07936 -1.8125,31.4375 0.90543,1.35814 5.21875,3.875 5.21875,3.875 0,0 -7.26008,5.43155 -9.75,7.46875 -2.48992,2.03721 -11.75,6.5625 -11.75,6.5625 0,0 -4.55572,8.2e-4 -5.6875,0.90625 -1.13178,0.90542 1.37747,3.38343 4.09375,4.0625 2.71627,0.67907 16.06662,-0.9079 20.59375,-2.71875 4.52712,-1.81085 17.43832,-9.26686 18.34375,-10.625 0.90542,-1.35814 -0.90625,-4.09375 -0.90625,-4.09375 0,0 11.30654,-0.67989 13.34375,-0.90625 2.03721,-0.22635 3.40625,-0.90625 3.40625,-0.90625 0,0 2.93997,2.94593 5.65625,3.625 2.71627,0.67907 5.20436,-0.22801 6.5625,-1.8125 1.35814,-1.58449 0.68585,-40.95436 -1.125,-42.3125 -1.81085,-1.35814 -36.4628,1.79646 -38.5,1.34375 -2.03721,-0.45272 -3.625,-2.5 -3.625,-2.5 z m 11.0625,6.90625 c 7.63952,-0.0637 21.78125,0.59375 21.78125,0.59375 0,0 1.125,14.23644 1.125,16.5 0,2.26356 -1.36822,14.04729 -2.5,14.5 -1.13179,0.45271 -4.96875,-2.03125 -4.96875,-2.03125 0,0 -19.02447,0.67907 -20.15625,0 -1.13178,-0.67906 -0.90542,-4.54729 0,-5 0.90543,-0.45272 15.17394,-0.4375 17.4375,-0.4375 2.26357,0 4.75082,-0.46958 5.65625,-1.375 0.90542,-0.90543 -0.4375,-5.1875 -0.4375,-5.1875 0,0 -20.85301,1.14021 -22.4375,0.6875 -1.5845,-0.45271 -0.88178,-4.55572 0.25,-5.6875 1.13179,-1.13179 9.05736,-0.65625 12,-0.65625 2.94263,0 9.71957,0.89782 10.625,0.21875 0.90542,-0.67907 0.21793,-4.53207 -0.6875,-5.4375 -0.90542,-0.90542 -24,0.6875 -24,0.6875 0,0 0.23561,-6.12583 1.59375,-7.03125 0.33954,-0.22636 2.17224,-0.32253 4.71875,-0.34375 z m 26.375,41.875 c -5.55905,0.11638 -11.13067,1.25 -12.53125,1.25 -2.48992,0 -4.28208,-1.35896 -5.1875,-0.90625 -0.90543,0.45271 24.65625,17.65625 24.65625,17.65625 0,0 9.29133,3.62335 11.78125,1.8125 2.48991,-1.81085 -2.2862,-12.20766 -7.71875,-17.1875 -2.37674,-2.17868 -6.6763,-2.71552 -11,-2.625 z m 108.8125,10.25 c -0.52406,-0.0156 -0.94404,0.069 -1.15625,0.28125 -1.13178,1.13178 0.91386,4.77447 0.6875,5.90625 -0.22635,1.13178 -1.125,3.84375 -1.125,3.84375 0,0 -7.03207,-0.45271 -7.9375,0 -0.90542,0.45271 0.91551,4.75 2.5,4.75 l 6.125,0 -0.46875,4.0625 c 0,0 -9.50843,0.68832 -10.1875,1.59375 -0.67906,0.90542 1.60301,4.0625 3.1875,4.0625 l 5.875,0 0.21875,4.75 c 0,0 -8.14946,0.0169 -9.28125,1.375 -1.13178,1.35813 0.91551,4.28208 2.5,5.1875 1.5845,0.90543 7,0.6875 7,0.6875 0,0 -0.22718,4.76604 -0.90625,5.21875 -0.67907,0.45272 -11.3125,-0.21875 -11.3125,-0.21875 0,0 -1.58531,-28.30654 -0.90625,-30.34375 0.67907,-2.03721 0.9046,-7.93072 -0.90625,-9.0625 -1.81085,-1.13178 -9.25843,-3.1546 -9.9375,-1.34375 -0.67906,1.81085 2.71875,2.93154 2.71875,4.96875 0,2.03721 1.35136,11.3158 1.125,14.9375 -0.22636,3.6217 -0.21958,19.92311 -1.125,21.28125 -0.90543,1.35814 -9.07936,1.8125 -10.4375,1.8125 -1.35814,0 -2.47553,-3.63343 -1.34375,-4.3125 1.13179,-0.67907 8.13343,-0.43832 8.8125,-1.34375 0.67907,-0.90542 1.82689,-4.96875 0.46875,-4.96875 -1.35814,0 -5.89947,0.67906 -7.03125,0 -1.13178,-0.67907 -2.71793,-4.54729 -1.8125,-5 0.90542,-0.45271 7.24322,-0.23479 8.375,-0.6875 1.13178,-0.45271 5.45106,-4.74322 3.1875,-5.875 -2.26357,-1.13178 -12.90625,0.21875 -12.90625,0.21875 l -0.6875,-7.46875 c 0,0 8.14187,1.14782 9.5,0.46875 1.35814,-0.67907 4.31845,-2.71197 2.28125,-3.84375 -2.03721,-1.13178 -12.6875,-1.15625 -12.6875,-1.15625 0,0 2.73314,-2.4628 1.375,-4.5 -1.35813,-2.03721 -4.31498,-4.7576 -7.03125,-4.53125 -2.71628,0.22636 -4.3125,1.33779 -4.3125,3.375 0,2.0372 1.375,5.65625 1.375,5.65625 0,0 -11.55572,-0.67825 -12.6875,0.90625 -1.13178,1.58449 -0.45106,5.68832 1.8125,6.59375 2.26356,0.90542 12.21875,-0.90625 12.21875,-0.90625 l 0,6.09375 c 0,0 -10.84457,0.68072 -11.75,1.8125 -0.90542,1.13178 1.36061,4.97718 2.71875,5.65625 1.35813,0.67907 9.28125,-1.8125 9.28125,-1.8125 l -0.46875,5.65625 c 0,0 -7.22718,0.46197 -7.90625,1.59375 -0.67907,1.13178 -0.022,5.89104 1.5625,6.34375 1.5845,0.45272 7.25,-0.46875 7.25,-0.46875 l 0,5 -12.21875,0.90625 c 0,0 -0.21279,-17.67476 -2.25,-20.84375 -2.0372,-3.16899 -9.96279,-8.36739 -12,-8.59375 -2.0372,-0.22636 -3.39021,-0.2171 -2.9375,1.59375 0.45271,1.81085 5.20354,7.46362 5.65625,10.40625 0.45271,2.94263 1.57771,11.32259 1.125,13.8125 -0.45271,2.48992 -3.16981,6.54134 -0.90625,9.03125 2.26357,2.48992 5.66633,4.75761 8.15625,4.53125 2.48992,-0.22636 23.53868,-6.56332 31.6875,-7.46875 8.14883,-0.90542 30.10548,-2.71032 34.40625,-2.03125 4.30076,0.67907 12.4375,0.6875 12.4375,0.6875 0,0 -2.7171,4.28207 -0.90625,5.1875 1.81085,0.90542 5.65029,0.68668 7.6875,-0.21875 2.0372,-0.90542 6.33697,-7.69758 7.46875,-10.1875 1.13178,-2.48992 7.47636,-15.83019 7.25,-18.09375 -0.22635,-2.26356 -4.73644,-7.25926 -7,-8.84375 -2.26356,-1.5845 -7.70436,-4.06085 -9.0625,-2.25 -1.35814,1.81085 0.90707,4.28372 1.8125,7 0.90542,2.71627 -1.375,7.25165 -1.375,9.0625 0,1.81085 0.90543,5.19675 0,6.78125 -0.90542,1.58449 -2.25165,5.21114 -4.0625,5.4375 -1.81085,0.22635 -14.71875,-0.4375 -14.71875,-0.4375 0,0 -1.57606,-4.75926 0.6875,-6.34375 2.26356,-1.5845 9.73561,1.57689 11.09375,0.21875 1.35814,-1.35813 2.25596,-4.73479 0.21875,-5.1875 -2.0372,-0.45271 -11.3125,-0.6875 -11.3125,-0.6875 L 304,758.76769 c 0,0 7.69676,0.46032 9.28125,-0.21875 1.5845,-0.67907 0.897,-4.96875 -0.6875,-4.96875 -1.58449,0 -7.46875,-0.25 -7.46875,-0.25 l 0.46875,-5.875 c 0,0 8.81332,0.90543 9.71875,0 0.90542,-0.90542 -1.14269,-4.96875 -3.40625,-4.96875 -2.26357,0 -8.375,0.90625 -8.375,0.90625 0,0 2.04564,-2.49404 0.6875,-4.53125 -1.10348,-1.65522 -5.63534,-3.61997 -7.90625,-3.6875 z m -3.5625,54.4375 c -4.01782,0.0566 -8.56159,0.28546 -11.84375,0.625 -6.56433,0.67907 -19.68998,2.5 -22.40625,2.5 -2.71628,0 -5.21114,0.68832 -5.4375,1.59375 -0.22636,0.90542 2.93237,4.07011 5.875,3.84375 2.94263,-0.22635 22.65625,-1.8125 22.65625,-1.8125 0,0 17.20518,-0.21957 19.46875,-1.125 2.26356,-0.90542 2.92742,-4.53968 0.4375,-5.21875 -1.24496,-0.33954 -4.73218,-0.46284 -8.75,-0.40625 z m 9.21875,11.03125 c 0,0 -18.80819,1.14864 -22.65625,1.375 -3.84805,0.22635 -18.99404,0.45354 -21.03125,0.90625 -2.0372,0.45272 -7.46875,-0.24074 -7.46875,1.34375 0,1.58449 2.26769,5 4.53125,5 2.26356,0 5.40625,0.21875 5.40625,0.21875 l 0.25,5.4375 c 0,0 -3.63343,-1.36574 -4.3125,0.21875 -0.67907,1.58449 -1.57606,3.85218 0.6875,4.53125 2.26356,0.67906 14.46875,1.59375 14.46875,1.59375 l 19.46875,-2.0625 c 0,0 3.18071,1.38096 4.3125,-0.65625 1.13178,-2.0372 -1.14022,-2.73561 -0.6875,-4.09375 0.45271,-1.35814 5.43915,-5.20436 7.25,-6.5625 1.81085,-1.35814 7.00596,-4.74322 4.96875,-5.875 -2.0372,-1.13178 -5.1875,-1.375 -5.1875,-1.375 z m -25.9375,6.375 c 5.02891,-0.0774 11.21875,0.1875 11.21875,0.1875 0,0 1.58367,4.0954 -0.90625,5.90625 -2.48992,1.81085 -12.6875,3.15625 -12.6875,3.15625 0,0 -4.05571,-0.45436 -5.1875,-1.8125 -1.13178,-1.35814 -0.24074,-5.64946 1.34375,-6.78125 0.59419,-0.42442 3.2014,-0.60983 6.21875,-0.65625 z m 9.1875,13.78125 c -2.48992,0.22635 -3.625,-0.0144 -3.625,1.34375 0,1.35814 4.28886,3.18832 4.0625,4.09375 -0.22636,0.90542 -3.83697,4.29051 -4.96875,5.875 -1.13178,1.58449 -4.07258,3.40625 -6.5625,3.40625 -2.48992,0 -5.90625,-0.009 -5.90625,-1.59375 0,-1.58449 3.4155,-6.11822 5,-7.25 1.58449,-1.13178 4.28125,-2.70437 4.28125,-4.0625 0,0 -8.35383,2.4924 -10.84375,2.71875 -2.48991,0.22636 -9.50926,-2.49835 -11.09375,-0.6875 -1.5845,1.81085 0.89186,5.66468 2.25,6.34375 1.35814,0.67907 5.20188,3.40707 3.84375,4.3125 -1.35814,0.90542 -12.22205,1.79729 -15.84375,2.25 -3.6217,0.45271 -12.66551,0.23562 -14.25,1.59375 -1.5845,1.35814 -0.46032,5.18833 0.21875,6.09375 0.67907,0.90543 6.78373,-0.22635 9.5,0 2.71628,0.22636 28.32424,-1.8125 32.625,-1.8125 4.30077,0 27.82423,-1.78803 32.125,-0.65625 4.30077,1.13178 12.90112,3.84293 15.84375,2.9375 2.94263,-0.90542 4.99157,-4.07258 4.3125,-6.5625 -0.67907,-2.48992 -4.08101,-5.4375 -7.25,-5.4375 -3.16899,0 -26.71875,-0.21875 -26.71875,-0.21875 0,0 6.35218,-2.7128 7.03125,-4.75 0.67906,-2.03721 0.45024,-4.08697 -2.71875,-5.21875 -3.16899,-1.13178 -8.82258,-2.94511 -11.3125,-2.71875 z"
         style="fill:url(#linearGradient4061);stroke:none" />
    </g>
  </g>
</svg>
