<?xml version="1.0" encoding="UTF-8" standalone="no"?>
<!-- Created with Inkscape (http://www.inkscape.org/) -->

<svg
   xmlns:dc="http://purl.org/dc/elements/1.1/"
   xmlns:cc="http://creativecommons.org/ns#"
   xmlns:rdf="http://www.w3.org/1999/02/22-rdf-syntax-ns#"
   xmlns:svg="http://www.w3.org/2000/svg"
   xmlns="http://www.w3.org/2000/svg"
   xmlns:sodipodi="http://sodipodi.sourceforge.net/DTD/sodipodi-0.dtd"
   xmlns:inkscape="http://www.inkscape.org/namespaces/inkscape"
   width="89.453125"
   height="137.5"
   viewBox="0 0 89.453129 137.5"
   id="svg3372"
   version="1.1"
   inkscape:version="0.48.5 r10040"
   sodipodi:docname="для изображения без линий.svg">
  <defs
     id="defs3374" />
  <sodipodi:namedview
     id="base"
     pagecolor="#ffffff"
     bordercolor="#666666"
     borderopacity="1.0"
     inkscape:pageopacity="0.0"
     inkscape:pageshadow="2"
     inkscape:zoom="2.61"
     inkscape:cx="131.74949"
     inkscape:cy="42.819086"
     inkscape:document-units="px"
     inkscape:current-layer="layer3"
     showgrid="false"
     showguides="true"
     inkscape:guide-bbox="true"
     inkscape:snap-intersection-paths="true"
     inkscape:object-nodes="true"
     units="px"
     inkscape:snap-to-guides="true"
     inkscape:window-width="1400"
     inkscape:window-height="1003"
     inkscape:window-x="-4"
     inkscape:window-y="-4"
     inkscape:window-maximized="1"
     inkscape:snap-bbox="false"
     inkscape:object-paths="false"
     inkscape:snap-center="true"
     inkscape:snap-object-midpoints="false"
     inkscape:snap-text-baseline="true"
     fit-margin-top="0"
     fit-margin-left="0"
     fit-margin-right="0"
     fit-margin-bottom="0">
    <inkscape:grid
       type="xygrid"
       id="grid4557"
       empspacing="5"
       visible="true"
       enabled="true"
       snapvisiblegridlinesonly="true"
       originx="-180.95707px"
       originy="-87.656253px" />
  </sodipodi:namedview>
  <metadata
     id="metadata3377">
    <rdf:RDF>
      <cc:Work
         rdf:about="">
        <dc:format>image/svg+xml</dc:format>
        <dc:type
           rdf:resource="http://purl.org/dc/dcmitype/StillImage" />
        <dc:title></dc:title>
      </cc:Work>
    </rdf:RDF>
  </metadata>
  <g
     inkscape:groupmode="layer"
     id="layer3"
     inkscape:label="Text letter"
     style="display:inline"
     transform="translate(-180.95708,-74.843743)">
    <g
       style="font-size:80px;font-style:normal;font-weight:normal;text-align:center;line-height:125%;letter-spacing:0px;word-spacing:0px;text-anchor:middle;fill:#000000;fill-opacity:1;stroke:none;display:inline;font-family:Universalia;-inkscape-font-specification:Universalia"
       id="text3393">
      <path
         d="m 245.60549,145.64453 -25.19532,0 c 0.0651,2.99485 0.0976,5.20839 0.0977,6.64062 -5e-5,6.11985 -0.4395,11.7839 -1.31836,16.99219 -0.87895,5.20837 -2.45773,11.19795 -4.73633,17.96875 12.76036,4.10158 20.05202,6.34768 21.875,6.73828 3.38535,0.78127 6.70566,1.17189 9.96094,1.17188 5.40357,1e-5 9.7981,-1.25324 13.18359,-3.75977 3.38533,-2.50649 5.85929,-6.46156 7.42188,-11.86523 l 3.51562,0.8789 c -1.36728,10.48179 -4.73641,18.4245 -10.10742,23.82813 -5.37117,5.40365 -11.34447,8.10547 -17.91992,8.10547 -4.42715,0 -8.43105,-0.79753 -12.01172,-2.39258 -3.58078,-1.59505 -10.18885,-6.00585 -19.82422,-13.23242 -2.6042,5.20834 -5.41995,9.11459 -8.44727,11.71875 -3.02737,2.60417 -6.26629,3.90625 -9.71679,3.90625 -3.25523,0 -5.97332,-1.12305 -8.1543,-3.36914 -2.181,-2.24609 -3.27149,-5.32226 -3.27149,-9.22852 0,-4.36196 1.49739,-7.99152 4.49219,-10.88867 2.99478,-2.89711 6.83592,-4.34568 11.52344,-4.3457 1.10675,2e-5 2.34373,0.0651 3.71094,0.19531 1.36716,0.13023 2.8971,0.32555 4.58984,0.58594 0.13018,-1.69269 0.21156,-3.15753 0.24414,-4.39453 0.0325,-1.23695 0.0488,-2.27862 0.0488,-3.125 -3e-5,-5.72913 -0.68362,-16.43876 -2.05078,-32.12891 l -18.94532,0 0,-9.27735 18.94532,0 c -0.84638,-9.70044 -1.26956,-16.17829 -1.26953,-19.43359 -3e-5,-7.94261 1.59502,-15.20172 4.78515,-21.777349 3.19007,-6.5754 7.60088,-11.604692 13.23243,-15.087892 5.63146,-3.482939 11.66986,-5.224474 18.11523,-5.224609 8.20306,1.35e-4 14.37167,2.213674 18.50586,6.640625 4.13403,4.427208 6.20109,8.854287 6.20118,13.281251 -9e-5,2.083447 -0.79762,3.938914 -2.39258,5.566404 -1.59514,1.62772 -3.33667,2.44152 -5.22461,2.44141 -2.47404,1.1e-4 -4.52482,-1.23687 -6.15235,-3.710938 -0.71622,-1.171763 -1.2045,-3.694548 -1.46484,-7.56836 -0.26049,-3.873576 -1.36726,-6.721881 -3.32031,-8.544923 -2.0183,-1.822788 -4.85033,-2.734245 -8.4961,-2.734375 -5.14328,1.3e-4 -9.39133,2.018357 -12.74414,6.054688 -3.35291,4.036578 -5.02934,11.132926 -5.0293,21.289068 -4e-5,4.7527 0.39058,10.83993 1.17188,18.26172 0.45568,4.88289 0.7812,8.39851 0.97656,10.54687 l 25.19532,0 z m -41.50391,47.55859 c -1.43232,-0.91144 -2.83206,-1.59503 -4.19922,-2.05078 -1.36721,-0.45571 -2.7344,-0.68357 -4.10157,-0.68359 -2.9297,2e-5 -5.20835,0.79754 -6.83593,2.39258 -1.62762,1.59506 -2.44142,3.66212 -2.44141,6.20117 -1e-5,2.34376 0.63475,4.19922 1.9043,5.56641 1.26951,1.36719 2.75063,2.05078 4.44336,2.05078 2.14841,0 4.24802,-1.00911 6.29883,-3.02735 2.05075,-2.01822 3.69463,-5.50129 4.93164,-10.44922 z"
         style="font-size:200.00001526px;font-variant:normal;font-stretch:normal;word-spacing:-70px;font-family:Times New Roman;-inkscape-font-specification:Times New Roman"
         id="path2986"
         inkscape:connector-curvature="0" />
    </g>
  </g>
</svg>
