<?xml version="1.0" encoding="UTF-8" standalone="no"?>
<svg
   xmlns:dc="http://purl.org/dc/elements/1.1/"
   xmlns:cc="http://creativecommons.org/ns#"
   xmlns:rdf="http://www.w3.org/1999/02/22-rdf-syntax-ns#"
   xmlns:svg="http://www.w3.org/2000/svg"
   xmlns="http://www.w3.org/2000/svg"
   xmlns:xlink="http://www.w3.org/1999/xlink"
   id="svg2"
   version="1.1"
   xml:space="preserve"
   width="100%"
   viewBox="0 0 1052.5 745"><metadata
     id="metadata8"><rdf:RDF><cc:Work
         rdf:about=""><dc:format>image/svg+xml</dc:format><dc:type
           rdf:resource="http://purl.org/dc/dcmitype/StillImage" /><dc:title></dc:title></cc:Work></rdf:RDF></metadata><defs
     id="defs6"><linearGradient
       id="linearGradient3870"><stop
         style="stop-color:#958355;stop-opacity:1;"
         offset="0"
         id="stop3872" /><stop
         id="stop3878"
         offset="0.33000001"
         style="stop-color:#7f6934;stop-opacity:1;" /><stop
         style="stop-color:#ceb572;stop-opacity:1;"
         offset="0.66000003"
         id="stop3880" /><stop
         style="stop-color:#a78b43;stop-opacity:1;"
         offset="1"
         id="stop3874" /></linearGradient><linearGradient
       xlink:href="#linearGradient3870"
       id="linearGradient3876"
       x1="49.911419"
       y1="133.46228"
       x2="512.83344"
       y2="597.89722"
       gradientUnits="userSpaceOnUse" /><linearGradient
       xlink:href="#linearGradient3870"
       id="linearGradient3883"
       x1="49.911419"
       y1="134.09245"
       x2="514.72394"
       y2="598.5274"
       gradientUnits="userSpaceOnUse" /><linearGradient
       xlink:href="#linearGradient3870"
       id="linearGradient3886"
       x1="50.541588"
       y1="134.09245"
       x2="514.09375"
       y2="366.625"
       gradientUnits="userSpaceOnUse" /><linearGradient
       xlink:href="#linearGradient3870"
       id="linearGradient3889"
       gradientUnits="userSpaceOnUse"
       x1="50.541588"
       y1="134.09245"
       x2="514.09375"
       y2="597.89722" /><linearGradient
       xlink:href="#linearGradient3870"
       id="linearGradient4004"
       gradientUnits="userSpaceOnUse"
       x1="50.541588"
       y1="134.09245"
       x2="514.09375"
       y2="597.89722"
       gradientTransform="translate(497.09077,308.1489)" /><linearGradient
       xlink:href="#linearGradient3870"
       id="linearGradient4052"
       gradientUnits="userSpaceOnUse"
       gradientTransform="translate(392.56376,183.84651)"
       x1="50.541588"
       y1="134.09245"
       x2="514.09375"
       y2="597.89722" /><linearGradient
       xlink:href="#linearGradient3870"
       id="linearGradient4061"
       gradientUnits="userSpaceOnUse"
       x1="50.541588"
       y1="134.09245"
       x2="514.09375"
       y2="597.89722"
       gradientTransform="translate(0,308.26769)" /><linearGradient
       xlink:href="#linearGradient3870"
       id="linearGradient4065"
       gradientUnits="userSpaceOnUse"
       gradientTransform="translate(497.20956,1.29374)"
       x1="50.541588"
       y1="134.09245"
       x2="514.09375"
       y2="597.89722" /><linearGradient
       xlink:href="#linearGradient3870"
       id="linearGradient4247"
       x1="545.79376"
       y1="134.83926"
       x2="1010.6063"
       y2="600.26697"
       gradientUnits="userSpaceOnUse" /></defs><path
     d="m 2.6943942,740.95841 1052.3625058,0 0,-744.095 -1052.3625058,0 0,744.095 z"
     style="fill:#212e3a;fill-opacity:1;fill-rule:evenodd;stroke:none"
     id="path14" /><g
     id="text3456"
     style="font-style:normal;font-weight:normal;font-size:169.17663574px;line-height:125%;font-family:sans-serif;letter-spacing:0px;word-spacing:0px;fill:#ffffff;fill-opacity:1;stroke:none;stroke-width:1px;stroke-linecap:butt;stroke-linejoin:miter;stroke-opacity:1"><path
       id="path4541"
       style=""
       d="m 199.38125,369.23171 -8.17797,0 q -6.60846,13.96038 -22.13835,19.66017 -8.75621,3.22163 -21.89053,3.22163 l -16.35595,0 0,45.84621 -16.35594,0 0,-68.72801 -10.57354,0 0,-9.91269 10.57354,0 0,-11.56481 -10.57354,0 0,-9.9127 10.57354,0 0,-22.8818 33.37273,0 q 20.89927,0 32.38147,7.68234 9.08663,6.03022 12.47347,15.19946 l 6.69107,0 0,9.9127 -4.62592,0 q 0.16521,1.98253 0.16521,4.3781 0,3.79987 -0.57824,7.18671 l 5.03895,0 0,9.91269 z m -25.93821,-31.3902 q -4.62593,-5.7824 -13.54735,-7.76494 -4.87374,-1.07388 -12.8865,-1.07388 l -16.19074,0 0,8.83882 42.62459,0 z m 4.46071,14.70383 q 0,-2.64338 -0.33043,-4.79113 l -46.75487,0 0,11.56481 46.34185,0 q 0.74345,-3.30424 0.74345,-6.77368 z m -5.6998,16.68637 -41.3855,0 0,8.92142 13.79517,0 q 19.90799,0 27.59033,-8.92142 z" /></g><g
     id="text3464"
     style="font-style:normal;font-weight:normal;font-size:129.16607666px;line-height:125%;font-family:sans-serif;letter-spacing:0px;word-spacing:0px;fill:#ffffff;fill-opacity:1;stroke:none;stroke-width:1px;stroke-linecap:butt;stroke-linejoin:miter;stroke-opacity:1"><path
       id="path4538"
       style=""
       d="m 438.36914,379.05292 0,-10.59565 65.78135,0 0,10.59565 -27.30903,0 0,58.9068 -11.22635,0 0,-58.9068 -27.24597,0 z m 0,-20.56061 0,-10.53259 65.78135,0 0,10.53259 -65.78135,0 z" /></g><g
     id="text3468"
     style="font-style:normal;font-weight:normal;font-size:127.91403961px;line-height:125%;font-family:sans-serif;letter-spacing:0px;word-spacing:0px;fill:#ec711e;fill-opacity:1;stroke:none;stroke-width:1px;stroke-linecap:butt;stroke-linejoin:miter;stroke-opacity:1"><path
       id="path4535"
       style=""
       d="m 789.25721,437.95972 -13.17864,0 -9.11888,-25.92008 -40.22297,0 -9.11887,25.92008 -12.55406,0 9.43116,-25.92008 -9.43116,0 0,-10.61787 13.30356,0 3.8724,-10.61786 -17.17596,0 0,-10.61787 21.04835,0 12.8039,-35.22633 16.48892,0 12.80389,35.22633 21.04836,0 0,10.61787 -17.17596,0 3.8724,10.61786 13.30356,0 0,10.61787 -9.43116,0 9.43116,25.92008 z m -33.66488,-57.77368 -8.74412,-24.42109 -8.74412,24.42109 17.48824,0 z m 7.55742,21.23573 -3.80994,-10.61786 -25.04566,0 -3.80994,10.61786 32.66554,0 z" /></g><path
     style="fill:#ffffff"
     d="m 250.28532,353.71426 15.26935,0 5.84783,-8.78961 -57.32542,0 -5.84784,8.78961 9.95069,0 c 10.07983,0 19.38262,0.77852 23.10292,9.20789 l -27.20577,0 -5.84784,8.78999 34.15105,0 c 0,0.0197 0,0.038 0,0.0577 0,6.31673 -5.24943,16.0058 -22.5834,16.0058 l -8.38696,-0.01 0.009,8.21242 33.58912,41.98166 14.95823,0 -34.76545,-43.43227 c 14.31106,-0.77182 27.7331,-8.76877 29.66786,-22.81563 l 10.68641,0 5.84784,-8.78998 -16.68683,0 c -0.67358,-3.38687 -2.13684,-6.66282 -4.43035,-9.2079 z"
     id="path3551" /><g
     transform="matrix(0.2293779,0,0,0.2293779,338.52753,331.62895)"
     id="g3712"
     style="fill:none;stroke:#ffffff"><path
       style="stroke:#ffffff;stroke-width:45"
       d="m 119,312 c 4,70 58,111 130,110 78,1 129,-34 125,-101 -11,-61 -78,-69 -122,-79 -48,-16 -118,-16 -117,-89 -1,-53 59,-84 117,-78 60,1 111,32 112,96"
       id="path3702" /><path
       style="stroke:#ffffff;stroke-width:35"
       d="m 221,17 0,464 m 63,0 0,-464"
       id="path3704" /></g><g
     id="layer3"
     style="display:inline;fill:#ec711e;fill-opacity:1"
     transform="matrix(0.88727266,0,0,0.88727266,456.2882,249.55292)"><g
       style="font-style:normal;font-weight:normal;font-size:80px;line-height:125%;font-family:Universalia;-inkscape-font-specification:Universalia;text-align:center;letter-spacing:0px;word-spacing:0px;text-anchor:middle;display:inline;fill:#ec711e;fill-opacity:1;stroke:none"
       id="text3393"><path
         d="m 245.60549,145.64453 -25.19532,0 c 0.0651,2.99485 0.0976,5.20839 0.0977,6.64062 -5e-5,6.11985 -0.4395,11.7839 -1.31836,16.99219 -0.87895,5.20837 -2.45773,11.19795 -4.73633,17.96875 12.76036,4.10158 20.05202,6.34768 21.875,6.73828 3.38535,0.78127 6.70566,1.17189 9.96094,1.17188 5.40357,1e-5 9.7981,-1.25324 13.18359,-3.75977 3.38533,-2.50649 5.85929,-6.46156 7.42188,-11.86523 l 3.51562,0.8789 c -1.36728,10.48179 -4.73641,18.4245 -10.10742,23.82813 -5.37117,5.40365 -11.34447,8.10547 -17.91992,8.10547 -4.42715,0 -8.43105,-0.79753 -12.01172,-2.39258 -3.58078,-1.59505 -10.18885,-6.00585 -19.82422,-13.23242 -2.6042,5.20834 -5.41995,9.11459 -8.44727,11.71875 -3.02737,2.60417 -6.26629,3.90625 -9.71679,3.90625 -3.25523,0 -5.97332,-1.12305 -8.1543,-3.36914 -2.181,-2.24609 -3.27149,-5.32226 -3.27149,-9.22852 0,-4.36196 1.49739,-7.99152 4.49219,-10.88867 2.99478,-2.89711 6.83592,-4.34568 11.52344,-4.3457 1.10675,2e-5 2.34373,0.0651 3.71094,0.19531 1.36716,0.13023 2.8971,0.32555 4.58984,0.58594 0.13018,-1.69269 0.21156,-3.15753 0.24414,-4.39453 0.0325,-1.23695 0.0488,-2.27862 0.0488,-3.125 -3e-5,-5.72913 -0.68362,-16.43876 -2.05078,-32.12891 l -18.94532,0 0,-9.27735 18.94532,0 c -0.84638,-9.70044 -1.26956,-16.17829 -1.26953,-19.43359 -3e-5,-7.94261 1.59502,-15.20172 4.78515,-21.777349 3.19007,-6.5754 7.60088,-11.604692 13.23243,-15.087892 5.63146,-3.482939 11.66986,-5.224474 18.11523,-5.224609 8.20306,1.35e-4 14.37167,2.213674 18.50586,6.640625 4.13403,4.427208 6.20109,8.854287 6.20118,13.281251 -9e-5,2.083447 -0.79762,3.938914 -2.39258,5.566404 -1.59514,1.62772 -3.33667,2.44152 -5.22461,2.44141 -2.47404,1.1e-4 -4.52482,-1.23687 -6.15235,-3.710938 -0.71622,-1.171763 -1.2045,-3.694548 -1.46484,-7.56836 -0.26049,-3.873576 -1.36726,-6.721881 -3.32031,-8.544923 -2.0183,-1.822788 -4.85033,-2.734245 -8.4961,-2.734375 -5.14328,1.3e-4 -9.39133,2.018357 -12.74414,6.054688 -3.35291,4.036578 -5.02934,11.132926 -5.0293,21.289068 -4e-5,4.7527 0.39058,10.83993 1.17188,18.26172 0.45568,4.88289 0.7812,8.39851 0.97656,10.54687 l 25.19532,0 z m -41.50391,47.55859 c -1.43232,-0.91144 -2.83206,-1.59503 -4.19922,-2.05078 -1.36721,-0.45571 -2.7344,-0.68357 -4.10157,-0.68359 -2.9297,2e-5 -5.20835,0.79754 -6.83593,2.39258 -1.62762,1.59506 -2.44142,3.66212 -2.44141,6.20117 -1e-5,2.34376 0.63475,4.19922 1.9043,5.56641 1.26951,1.36719 2.75063,2.05078 4.44336,2.05078 2.14841,0 4.24802,-1.00911 6.29883,-3.02735 2.05075,-2.01822 3.69463,-5.50129 4.93164,-10.44922 z"
         style="font-variant:normal;font-stretch:normal;font-size:200.00001526px;font-family:'Times New Roman';-inkscape-font-specification:'Times New Roman';word-spacing:-70px;fill:#ec711e;fill-opacity:1"
         id="path2986" /></g></g><g
     style="fill:#ec711e;fill-opacity:1"
     transform="matrix(0.35040857,0,0,0.35040857,793.95349,329.89581)"
     id="g3804"><g
       style="fill:#ec711e;fill-opacity:1"
       id="g3806"><path
         style="fill:#ec711e;fill-opacity:1"
         d="m 217.021,167.042 c 18.631,-9.483 30.288,-26.184 27.565,-54.007 C 240.919,75.012 208.06,62.262 166.58,58.631 l -0.008,-52.741 -32.139,0 -0.009,51.354 c -8.456,0 -17.076,0.166 -25.657,0.338 L 108.76,5.897 76.65,5.894 76.644,58.622 c -6.959,0.142 -13.793,0.277 -20.466,0.277 l 0,-0.156 -44.33,-0.018 0.006,34.282 c 0,0 23.734,-0.446 23.343,-0.013 13.013,0.009 17.262,7.559 18.484,14.076 l 0.01,60.083 0,84.397 c -0.573,4.09 -2.984,10.625 -12.083,10.637 0.414,0.364 -23.379,-0.004 -23.379,-0.004 l -6.375,38.335 41.817,0 c 7.792,0.009 15.448,0.13 22.959,0.19 l 0.028,53.338 32.102,0.009 -0.009,-52.779 c 8.832,0.18 17.357,0.258 25.684,0.247 l -0.009,52.532 32.138,0 0.018,-53.249 c 54.022,-3.1 91.842,-16.697 96.544,-67.385 3.79,-40.809 -15.434,-59.025 -46.105,-66.379 z M 109.535,95.321 c 18.126,0 75.132,-5.767 75.14,32.064 -0.008,36.269 -56.996,32.032 -75.14,32.032 l 0,-64.096 z m -0.014,167.126 0.014,-70.672 c 21.778,-0.006 90.085,-6.261 90.094,35.32 0.009,39.876 -68.316,35.336 -90.108,35.352 z"
         id="path3808" /></g></g><g
     transform="matrix(0.20438349,0,0,0.20438349,502.9262,252.5228)"
     id="g4386"><path
       style="fill:#736445;fill-opacity:1;stroke:none"
       d="m 281.6875,186.28125 c -99.59884,0 -180.34375,80.74491 -180.34375,180.34375 0,99.59884 80.74491,180.34375 180.34375,180.34375 99.59884,0 180.34375,-80.74491 180.34375,-180.34375 0,-99.59884 -80.74491,-180.34375 -180.34375,-180.34375 z M 230,316.21875 l 102.71875,0 0,102.71875 -102.71875,0 0,-102.71875 z"
       id="path3860"
       transform="translate(0,308.26769)" /><path
       style="fill:#000000;fill-opacity:0.5;stroke:none"
       d="m 224.96875,622.79894 0,112.8125 113.4375,0 0,-112.8125 -113.4375,0 z m 10.0625,10 93.3125,0 0,92.8125 -93.3125,0 0,-92.8125 z"
       id="path3924" /><path
       style="fill:#000000;fill-opacity:0.5;stroke:none"
       d="m 301.71875,514.70519 c -1.81085,0 -4.7424,2.25925 -4.96875,3.84375 -0.22636,1.58449 2.25248,3.6174 4.96875,3.84375 2.71628,0.22636 12.91633,4.07093 15.40625,4.75 2.48992,0.67906 2.93915,1.35053 4.75,0.21875 1.81085,-1.13178 4.75,-2.92394 4.75,-5.1875 0,0 -6.09705,-4.97718 -9.71875,-5.65625 -3.6217,-0.67907 -13.37665,-1.8125 -15.1875,-1.8125 z"
       id="path3934" /><path
       style="fill:#000000;fill-opacity:0.5;stroke:none"
       d="m 281.0625,553.39269 c -3.07607,0.21637 -9.77543,2.63045 -12.375,3.1875 -3.16899,0.67907 -12.89947,0.21196 -14.03125,1.34375 -1.13178,1.13178 -0.45106,6.35218 1.8125,7.03125 2.26357,0.67907 9.05819,-1.375 12.90625,-1.375 3.84806,0 13.34458,-0.9079 14.25,-2.71875 0,0 0.23314,-6.11822 -1.125,-7.25 -0.16977,-0.14147 -0.48507,-0.2046 -0.875,-0.21875 -0.1706,-0.006 -0.35743,-0.0144 -0.5625,0 z"
       id="path3932" /><path
       style="fill:#000000;fill-opacity:0.5;stroke:none"
       d="m 279.5625,570.54894 c -0.3864,0.0102 -0.78842,0.0342 -1.15625,0.0625 -2.94263,0.22635 -13.79215,3.625 -17.1875,3.625 -3.39534,0 -5.43915,-1.83531 -7.25,-1.15625 -1.81085,0.67907 -2.71032,3.16633 -2.03125,5.65625 0.67907,2.48992 2.5,9.75248 2.5,12.46875 0,2.71628 -0.022,9.71279 1.5625,11.75 1.58449,2.03721 5.2204,5.43668 7.03125,4.53125 1.81085,-0.90542 1.12665,-5.18072 2.9375,-6.3125 1.81085,-1.13178 11.32176,-1.59375 12.90625,-1.59375 1.5845,0 4.51687,-1.57936 5.875,-2.9375 1.35814,-1.35813 -1.36657,-6.35383 -0.6875,-8.84375 0.67906,-2.48992 4.53125,-7.00165 4.53125,-8.8125 0,-1.81085 -0.65625,-5.65625 -0.65625,-5.65625 -2.5748,-2.37674 -5.67022,-2.85243 -8.375,-2.78125 z m -3.78125,8.9375 c 0.55528,-0.0495 0.99831,0.0667 1.28125,0.40625 1.13178,1.35814 -1.82093,5.63426 -2.5,7.21875 -0.67907,1.5845 -0.67312,4.32854 -2.03125,4.78125 -1.35814,0.45272 -6.55571,0.65542 -7.6875,-0.25 -1.13178,-0.90543 -1.125,-5.20437 -1.125,-6.5625 0,-1.35814 0.4375,-3.625 0.4375,-3.625 0,0 3.39269,0.45271 5.65625,0 1.69767,-0.33954 4.30291,-1.8202 5.96875,-1.96875 z"
       id="path3930" /><path
       style="fill:#000000;fill-opacity:0.5;stroke:none"
       d="m 420.625,626.26769 c -0.26441,-10e-4 -0.53592,0.0159 -0.84375,0.0312 -5.33568,0.26581 -16.6675,2.67418 -23.65625,3.59375 -8.60154,1.13178 -35.78125,3.1875 -35.78125,3.1875 0.67907,1.13178 9.53373,9.0405 12.25,10.625 2.71628,1.58449 9.02777,-0.68072 13.78125,-1.8125 4.75348,-1.13179 27.87069,-4.07772 31.71875,-3.625 3.84805,0.45271 8.58861,1.13096 11.53125,-0.90625 2.94263,-2.03721 -4.76009,-9.71197 -7.25,-10.84375 -0.35014,-0.15916 -0.95678,-0.24684 -1.75,-0.25 z"
       id="path3922" /><path
       style="fill:#000000;fill-opacity:0.5;stroke:none"
       d="m 431.3125,647.67394 c -2.30247,0.0849 -5.64012,1.30741 -9.375,2.15625 -4.97983,1.13179 -19.48973,2.50082 -25.375,3.40625 -5.88526,0.90542 -31.91716,4.04729 -35.3125,4.5 -3.39535,0.45272 -13.34375,-1.125 -13.34375,-1.125 -0.90543,1.13178 7.70436,11.78208 9.0625,12.6875 1.35814,0.90543 10.19162,-0.45436 14.71875,-1.8125 4.52712,-1.35814 11.32176,-2.48397 12.90625,-2.03125 1.5845,0.45271 -0.69593,2.93072 -1.375,4.0625 -0.67906,1.13178 -9.4957,12.22288 -13.34375,16.75 -3.84806,4.52713 -17.89434,15.61144 -21.96875,17.875 -4.07441,2.26357 -6.5625,2.04051 -6.5625,3.625 0,1.5845 2.25412,2.49157 6.78125,1.8125 4.52712,-0.67906 13.81067,-5.43402 20.375,-10.1875 6.56433,-4.75348 16.5438,-15.82505 21.75,-21.03125 5.20619,-5.20619 18.5625,-17.65625 18.5625,-17.65625 0,0 8.80223,-0.90625 14.6875,-0.90625 5.88526,0 14.04894,0.67064 16.3125,-0.6875 2.26356,-1.35814 -4.5253,-9.96196 -6.5625,-11.09375 -0.5093,-0.28294 -1.17001,-0.37204 -1.9375,-0.34375 z"
       id="path3914" /><path
       style="fill:#000000;fill-opacity:0.5;stroke:none"
       d="m 404.53125,667.29894 c -0.71842,0.0442 -1.15625,0.40625 -1.15625,0.40625 -1.58449,1.13178 -7.46958,19.46445 -8.375,23.3125 -0.90543,3.84806 2.71279,18.33101 4.75,21.5 2.03721,3.16898 18.32671,6.35218 25.34375,7.03125 7.01704,0.67907 20.82258,-3.4155 23.3125,-5 2.48991,-1.58449 2.03042,-6.55654 1.125,-8.59375 -0.90543,-2.0372 -2.25083,-10.17477 -3.15625,-13.34375 -0.90543,-3.16899 -0.46279,-13.8125 -2.5,-13.8125 -2.03721,0 -0.90625,2.26769 -0.90625,4.53125 0,2.26356 -0.20436,16.29894 -1.5625,18.5625 -1.35814,2.26356 -13.83266,4.28207 -18.8125,5.1875 -4.97984,0.90542 -12.90029,-2.47122 -14.9375,-5.1875 -2.03721,-2.71627 4.9924,-24.45436 5.21875,-25.8125 0.22636,-1.35814 -5.19676,-7.46958 -6.78125,-8.375 -0.59419,-0.33954 -1.13145,-0.43278 -1.5625,-0.40625 z"
       id="path3912" /><path
       style="fill:#000000;fill-opacity:0.5;stroke:none"
       d="m 158.9375,610.04894 c -1.39793,0.0119 -2.44637,0.1516 -2.53125,0.40625 -0.22635,0.67907 1.14947,5.87665 2.28125,7.6875 1.13179,1.81085 3.15542,4.97718 2.25,5.65625 -0.90543,0.67907 -6.10383,2.92989 -8.59375,3.15625 -2.48992,0.22635 -20.15873,1.59375 -22.875,1.59375 -2.71628,0 -6.103,-2.03125 -7.6875,-2.03125 -1.58449,0 -4.08697,8.5954 -5.21875,10.40625 -1.13178,1.81085 -3.60136,7.91633 -3.375,10.40625 0.22635,2.48992 0.6579,4.30489 2.46875,4.53125 1.81085,0.22635 3.40625,-0.6875 3.40625,-0.6875 0,0 5.22205,-13.55655 8.84375,-15.59375 3.6217,-2.03721 23.97123,-3.85896 26.6875,-3.40625 2.71628,0.45271 5.66038,1.79646 10.1875,1.34375 4.52713,-0.45271 10.65625,-3.375 10.65625,-3.375 0,0 28.05572,-0.91303 29.1875,0.21875 1.13179,1.13178 -0.45189,8.81333 0.90625,9.71875 1.35814,0.90543 9.7204,-4.51686 11.53125,-5.875 1.81085,-1.35814 6.5625,-5.20437 6.5625,-6.5625 0,-1.35814 -6.08697,-7.6799 -7.21875,-7.90625 -1.13178,-0.22636 -7.02446,-0.0152 -8.15625,0.4375 -1.13178,0.45271 -3.61062,2.27364 -4.96875,2.5 -1.35814,0.22636 -13.14352,1.34375 -16.3125,1.34375 -3.16899,0 -13.125,0.90625 -13.125,0.90625 0,0 3.40543,-3.85383 2.5,-6.34375 -0.90542,-2.48992 -7.69758,-6.78207 -10.1875,-7.6875 -1.5562,-0.56589 -4.88887,-0.86364 -7.21875,-0.84375 z"
       id="path3926" /><path
       style="fill:#000000;fill-opacity:0.5;stroke:none"
       d="m 178.15625,636.76769 c -1.72597,0 -3.62583,0.27786 -4.53125,0.84375 -1.81085,1.13178 -6.13178,12.67229 -5,13.125 1.13178,0.45272 4.76851,-2.27447 7.9375,-3.40625 3.16899,-1.13178 9.0625,0.46875 9.0625,0.46875 0,0 -0.70436,4.9704 -2.0625,6.78125 -1.35814,1.81085 -16.05572,2.02365 -17.1875,2.25 -1.13178,0.22636 0.21875,5 0.21875,5 l 17.875,-2.5 1.59375,8.375 -7,0.21875 c 0,0 -0.22718,-3.39864 -0.90625,-3.625 -0.67907,-0.22636 -8.61822,-0.43667 -9.75,0.46875 -1.13178,0.90543 -0.20949,9.27447 1.375,10.40625 1.58449,1.13178 21.03968,-2.02447 21.71875,-3.15625 0.003,-0.006 -0.003,-0.0251 0,-0.0312 2.04944,-0.23087 4.99764,-0.51121 5.875,-0.21875 1.35814,0.45271 -0.67907,7.25083 0,8.15625 0.67907,0.90543 5.67311,1.13178 7.03125,0 1.35814,-1.13178 4.06167,-13.79051 3.15625,-15.375 -0.90543,-1.5845 -6.57258,-6.11657 -9.0625,-5.4375 -2.48991,0.67907 0.6875,7.6875 0.6875,7.6875 l -7.3125,0.40625 c 0.0821,-3.49744 0.1478,-7.62838 0.96875,-8.3125 1.35814,-1.13178 5.00248,-2.50761 7.71875,-2.28125 2.71628,0.22635 12.21279,1.58532 14.25,0.90625 2.0372,-0.67907 4.07771,-4.2829 3.625,-6.09375 -0.45272,-1.81085 -6.80737,-1.14865 -9.75,-1.375 -2.94263,-0.22641 -14.6875,2.7187 -14.6875,2.7187 l -0.25,-7.25 c 0,0 9.50843,-0.68072 10.1875,-1.8125 0.67906,-1.13178 -2.03372,-3.85301 -4.75,-5.4375 -2.71627,-1.58449 -16.96875,2.28125 -16.96875,2.28125 0,0 -0.46115,-1.80572 -0.6875,-2.9375 -0.11318,-0.56589 -1.64903,-0.84375 -3.375,-0.84375 z"
       id="path3918" /><path
       style="fill:#000000;fill-opacity:0.5;stroke:none"
       d="m 156.84375,640.92394 c -2.84095,0.0526 -10.12282,1.53081 -13.09375,2.125 -3.39534,0.67907 -14.5,0.4375 -14.5,0.4375 0,0 -1.59292,6.57854 -0.6875,7.03125 0.90543,0.45271 7.92394,-1.59375 10.1875,-1.59375 2.26357,0 5.22718,1.353 5.90625,2.9375 0.67907,1.58449 -2.05654,3.17311 -4.09375,4.53125 -2.0372,1.35814 -8.5954,1.125 -10.40625,1.125 -1.81085,0 -4.52447,-1.35813 -5.65625,0 -1.13178,1.35814 3.38425,4.3125 4.96875,4.3125 1.58449,0 6.58019,-0.90625 8.84375,-0.90625 2.26356,0 5.66386,3.17311 5.4375,4.53125 -0.22635,1.35814 -3.39351,4.50843 -6.5625,5.1875 -3.16899,0.67906 -12.00165,1.60136 -13.8125,1.375 -1.81085,-0.22635 -4.30572,-3.17146 -5.4375,-2.71875 -1.13178,0.45271 2.01686,5.42311 3.375,6.78125 1.35814,1.35813 7.92476,3.60979 11.09375,4.0625 3.16899,0.45271 24.44758,-8.36061 26.9375,-9.71875 2.48992,-1.35814 5.21875,-7.25 5.21875,-7.25 0,0 -2.72883,2.50083 -5.21875,3.40625 -2.48992,0.90543 -7.44675,0.67064 -9.03125,-0.6875 -1.58449,-1.35813 0,-6.34375 0,-6.34375 0,0 10.63426,0.90625 12.21875,0.90625 1.58449,0 0.45271,-2.7204 0,-4.53125 -0.45271,-1.81085 -5.00248,-1.10896 -7.71875,-0.65625 -2.71628,0.45271 -4.75,-3.1875 -4.75,-3.1875 l 1.8125,-4.96875 c 0,0 3.39269,0.4375 5.65625,0.4375 2.26357,0 3.625,-2.02447 3.625,-3.15625 0,-1.13178 -1.79051,-2.95354 -3.375,-3.40625 -0.19806,-0.0566 -0.53165,-0.07 -0.9375,-0.0625 z"
       id="path3916" /><path
       style="fill:#000000;fill-opacity:0.5;stroke:none"
       d="m 150.0625,680.14269 -7.6875,1.8125 c 0,0 3.17229,3.42311 3.625,4.78125 0.45272,1.35814 -2.71792,30.07936 -1.8125,31.4375 0.90543,1.35814 5.21875,3.875 5.21875,3.875 0,0 -7.26008,5.43155 -9.75,7.46875 -2.48992,2.03721 -11.75,6.5625 -11.75,6.5625 0,0 -4.55572,8.2e-4 -5.6875,0.90625 -1.13178,0.90542 1.37747,3.38343 4.09375,4.0625 2.71627,0.67907 16.06662,-0.9079 20.59375,-2.71875 4.52712,-1.81085 17.43832,-9.26686 18.34375,-10.625 0.90542,-1.35814 -0.90625,-4.09375 -0.90625,-4.09375 0,0 11.30654,-0.67989 13.34375,-0.90625 2.03721,-0.22635 3.40625,-0.90625 3.40625,-0.90625 0,0 2.93997,2.94593 5.65625,3.625 2.71627,0.67907 5.20436,-0.22801 6.5625,-1.8125 1.35814,-1.58449 0.68585,-40.95436 -1.125,-42.3125 -1.81085,-1.35814 -36.4628,1.79646 -38.5,1.34375 -2.03721,-0.45272 -3.625,-2.5 -3.625,-2.5 z m 11.0625,6.90625 c 7.63952,-0.0637 21.78125,0.59375 21.78125,0.59375 0,0 1.125,14.23644 1.125,16.5 0,2.26356 -1.36822,14.04729 -2.5,14.5 -1.13179,0.45271 -4.96875,-2.03125 -4.96875,-2.03125 0,0 -19.02447,0.67907 -20.15625,0 -1.13178,-0.67906 -0.90542,-4.54729 0,-5 0.90543,-0.45272 15.17394,-0.4375 17.4375,-0.4375 2.26357,0 4.75082,-0.46958 5.65625,-1.375 0.90542,-0.90543 -0.4375,-5.1875 -0.4375,-5.1875 0,0 -20.85301,1.14021 -22.4375,0.6875 -1.5845,-0.45271 -0.88178,-4.55572 0.25,-5.6875 1.13179,-1.13179 9.05736,-0.65625 12,-0.65625 2.94263,0 9.71957,0.89782 10.625,0.21875 0.90542,-0.67907 0.21793,-4.53207 -0.6875,-5.4375 -0.90542,-0.90542 -24,0.6875 -24,0.6875 0,0 0.23561,-6.12583 1.59375,-7.03125 0.33954,-0.22636 2.17224,-0.32253 4.71875,-0.34375 z"
       id="path3910" /><path
       style="fill:#000000;fill-opacity:0.5;stroke:none"
       d="m 187.5,728.92394 c -5.55905,0.11638 -11.13067,1.25 -12.53125,1.25 -2.48992,0 -4.28208,-1.35896 -5.1875,-0.90625 -0.90543,0.45271 24.65625,17.65625 24.65625,17.65625 0,0 9.29133,3.62335 11.78125,1.8125 2.48991,-1.81085 -2.2862,-12.20766 -7.71875,-17.1875 -2.37674,-2.17868 -6.6763,-2.71552 -11,-2.625 z"
       id="path3906" /><path
       style="fill:#000000;fill-opacity:0.5;stroke:none"
       d="m 296.3125,739.17394 c -0.52406,-0.0156 -0.94404,0.069 -1.15625,0.28125 -1.13178,1.13178 0.91386,4.77447 0.6875,5.90625 -0.22635,1.13178 -1.125,3.84375 -1.125,3.84375 0,0 -7.03207,-0.45271 -7.9375,0 -0.90542,0.45271 0.91551,4.75 2.5,4.75 l 6.125,0 -0.46875,4.0625 c 0,0 -9.50843,0.68832 -10.1875,1.59375 -0.67906,0.90542 1.60301,4.0625 3.1875,4.0625 l 5.875,0 0.21875,4.75 c 0,0 -8.14946,0.0169 -9.28125,1.375 -1.13178,1.35813 0.91551,4.28208 2.5,5.1875 1.5845,0.90543 7,0.6875 7,0.6875 0,0 -0.22718,4.76604 -0.90625,5.21875 -0.67907,0.45272 -11.3125,-0.21875 -11.3125,-0.21875 0,0 -1.58531,-28.30654 -0.90625,-30.34375 0.67907,-2.03721 0.9046,-7.93072 -0.90625,-9.0625 -1.81085,-1.13178 -9.25843,-3.1546 -9.9375,-1.34375 -0.67906,1.81085 2.71875,2.93154 2.71875,4.96875 0,2.03721 1.35136,11.3158 1.125,14.9375 -0.22636,3.6217 -0.21958,19.92311 -1.125,21.28125 -0.90543,1.35814 -9.07936,1.8125 -10.4375,1.8125 -1.35814,0 -2.47553,-3.63343 -1.34375,-4.3125 1.13179,-0.67907 8.13343,-0.43832 8.8125,-1.34375 0.67907,-0.90542 1.82689,-4.96875 0.46875,-4.96875 -1.35814,0 -5.89947,0.67906 -7.03125,0 -1.13178,-0.67907 -2.71793,-4.54729 -1.8125,-5 0.90542,-0.45271 7.24322,-0.23479 8.375,-0.6875 1.13178,-0.45271 5.45106,-4.74322 3.1875,-5.875 -2.26357,-1.13178 -12.90625,0.21875 -12.90625,0.21875 l -0.6875,-7.46875 c 0,0 8.14187,1.14782 9.5,0.46875 1.35814,-0.67907 4.31845,-2.71197 2.28125,-3.84375 -2.03721,-1.13178 -12.6875,-1.15625 -12.6875,-1.15625 0,0 2.73314,-2.4628 1.375,-4.5 -1.35813,-2.03721 -4.31498,-4.7576 -7.03125,-4.53125 -2.71628,0.22636 -4.3125,1.33779 -4.3125,3.375 0,2.0372 1.375,5.65625 1.375,5.65625 0,0 -11.55572,-0.67825 -12.6875,0.90625 -1.13178,1.58449 -0.45106,5.68832 1.8125,6.59375 2.26356,0.90542 12.21875,-0.90625 12.21875,-0.90625 l 0,6.09375 c 0,0 -10.84457,0.68072 -11.75,1.8125 -0.90542,1.13178 1.36061,4.97718 2.71875,5.65625 1.35813,0.67907 9.28125,-1.8125 9.28125,-1.8125 l -0.46875,5.65625 c 0,0 -7.22718,0.46197 -7.90625,1.59375 -0.67907,1.13178 -0.022,5.89104 1.5625,6.34375 1.5845,0.45272 7.25,-0.46875 7.25,-0.46875 l 0,5 -12.21875,0.90625 c 0,0 -0.21279,-17.67476 -2.25,-20.84375 -2.0372,-3.16899 -9.96279,-8.36739 -12,-8.59375 -2.0372,-0.22636 -3.39021,-0.2171 -2.9375,1.59375 0.45271,1.81085 5.20354,7.46362 5.65625,10.40625 0.45271,2.94263 1.57771,11.32259 1.125,13.8125 -0.45271,2.48992 -3.16981,6.54134 -0.90625,9.03125 2.26357,2.48992 5.66633,4.75761 8.15625,4.53125 2.48992,-0.22636 23.53868,-6.56332 31.6875,-7.46875 8.14883,-0.90542 30.10548,-2.71032 34.40625,-2.03125 4.30076,0.67907 12.4375,0.6875 12.4375,0.6875 0,0 -2.7171,4.28207 -0.90625,5.1875 1.81085,0.90542 5.65029,0.68668 7.6875,-0.21875 2.0372,-0.90542 6.33697,-7.69758 7.46875,-10.1875 1.13178,-2.48992 7.47636,-15.83019 7.25,-18.09375 -0.22635,-2.26356 -4.73644,-7.25926 -7,-8.84375 -2.26356,-1.5845 -7.70436,-4.06085 -9.0625,-2.25 -1.35814,1.81085 0.90707,4.28372 1.8125,7 0.90542,2.71627 -1.375,7.25165 -1.375,9.0625 0,1.81085 0.90543,5.19675 0,6.78125 -0.90542,1.58449 -2.25165,5.21114 -4.0625,5.4375 -1.81085,0.22635 -14.71875,-0.4375 -14.71875,-0.4375 0,0 -1.57606,-4.75926 0.6875,-6.34375 2.26356,-1.5845 9.73561,1.57689 11.09375,0.21875 1.35814,-1.35813 2.25596,-4.73479 0.21875,-5.1875 -2.0372,-0.45271 -11.3125,-0.6875 -11.3125,-0.6875 L 304,762.76769 c 0,0 7.69676,0.46032 9.28125,-0.21875 1.5845,-0.67907 0.897,-4.96875 -0.6875,-4.96875 -1.58449,0 -7.46875,-0.25 -7.46875,-0.25 l 0.46875,-5.875 c 0,0 8.81332,0.90543 9.71875,0 0.90542,-0.90542 -1.14269,-4.96875 -3.40625,-4.96875 -2.26357,0 -8.375,0.90625 -8.375,0.90625 0,0 2.04564,-2.49404 0.6875,-4.53125 -1.10348,-1.65522 -5.63534,-3.61997 -7.90625,-3.6875 z"
       id="path3904" /><path
       style="fill:#000000;fill-opacity:0.5;stroke:none"
       d="m 292.75,793.61144 c -4.01782,0.0566 -8.56159,0.28546 -11.84375,0.625 -6.56433,0.67907 -19.68998,2.5 -22.40625,2.5 -2.71628,0 -5.21114,0.68832 -5.4375,1.59375 -0.22636,0.90542 2.93237,4.07011 5.875,3.84375 2.94263,-0.22635 22.65625,-1.8125 22.65625,-1.8125 0,0 17.20518,-0.21957 19.46875,-1.125 2.26356,-0.90542 2.92742,-4.53968 0.4375,-5.21875 -1.24496,-0.33954 -4.73218,-0.46284 -8.75,-0.40625 z"
       id="path3902" /><path
       style="fill:#000000;fill-opacity:0.5;stroke:none"
       d="m 301.96875,804.64269 c 0,0 -18.80819,1.14864 -22.65625,1.375 -3.84805,0.22635 -18.99404,0.45354 -21.03125,0.90625 -2.0372,0.45272 -7.46875,-0.24074 -7.46875,1.34375 0,1.58449 2.26769,5 4.53125,5 2.26356,0 5.40625,0.21875 5.40625,0.21875 l 0.25,5.4375 c 0,0 -3.63343,-1.36574 -4.3125,0.21875 -0.67907,1.58449 -1.57606,3.85218 0.6875,4.53125 2.26356,0.67906 14.46875,1.59375 14.46875,1.59375 l 19.46875,-2.0625 c 0,0 3.18071,1.38096 4.3125,-0.65625 1.13178,-2.0372 -1.14022,-2.73561 -0.6875,-4.09375 0.45271,-1.35814 5.43915,-5.20436 7.25,-6.5625 1.81085,-1.35814 7.00596,-4.74322 4.96875,-5.875 -2.0372,-1.13178 -5.1875,-1.375 -5.1875,-1.375 z m -25.9375,6.375 c 5.02891,-0.0774 11.21875,0.1875 11.21875,0.1875 0,0 1.58367,4.0954 -0.90625,5.90625 -2.48992,1.81085 -12.6875,3.15625 -12.6875,3.15625 0,0 -4.05571,-0.45436 -5.1875,-1.8125 -1.13178,-1.35814 -0.24074,-5.64946 1.34375,-6.78125 0.59419,-0.42442 3.2014,-0.60983 6.21875,-0.65625 z"
       id="path3900" /><path
       style="fill:#000000;fill-opacity:0.5;stroke:none"
       d="m 285.21875,824.79894 c -2.48992,0.22635 -3.625,-0.0144 -3.625,1.34375 0,1.35814 4.28886,3.18832 4.0625,4.09375 -0.22636,0.90542 -3.83697,4.29051 -4.96875,5.875 -1.13178,1.58449 -4.07258,3.40625 -6.5625,3.40625 -2.48992,0 -5.90625,-0.009 -5.90625,-1.59375 0,-1.58449 3.4155,-6.11822 5,-7.25 1.58449,-1.13178 4.28125,-2.70437 4.28125,-4.0625 0,0 -8.35383,2.4924 -10.84375,2.71875 -2.48991,0.22636 -9.50926,-2.49835 -11.09375,-0.6875 -1.5845,1.81085 0.89186,5.66468 2.25,6.34375 1.35814,0.67907 5.20188,3.40707 3.84375,4.3125 -1.35814,0.90542 -12.22205,1.79729 -15.84375,2.25 -3.6217,0.45271 -12.66551,0.23562 -14.25,1.59375 -1.5845,1.35814 -0.46032,5.18833 0.21875,6.09375 0.67907,0.90543 6.78373,-0.22635 9.5,0 2.71628,0.22636 28.32424,-1.8125 32.625,-1.8125 4.30077,0 27.82423,-1.78803 32.125,-0.65625 4.30077,1.13178 12.90112,3.84293 15.84375,2.9375 2.94263,-0.90542 4.99157,-4.07258 4.3125,-6.5625 -0.67907,-2.48992 -4.08101,-5.4375 -7.25,-5.4375 -3.16899,0 -26.71875,-0.21875 -26.71875,-0.21875 0,0 6.35218,-2.7128 7.03125,-4.75 0.67906,-2.03721 0.45024,-4.08697 -2.71875,-5.21875 -3.16899,-1.13178 -8.82258,-2.94511 -11.3125,-2.71875 z"
       id="path3894" /><path
       style="fill:none;stroke:#000000;stroke-width:1px;stroke-linecap:butt;stroke-linejoin:miter;stroke-opacity:1"
       d="m 281.6875,442.98644 c -128.07614,0 -231.90625,103.83011 -231.90625,231.90625 0,128.07614 103.83011,231.90625 231.90625,231.90625 128.07614,0 231.90625,-103.83011 231.90625,-231.90625 0,-128.07614 -103.83011,-231.90625 -231.90625,-231.90625 z"
       id="path3940" /><path
       style="fill:#000000;fill-opacity:0.5;stroke:none"
       d="m 281.6875,186.28125 c -99.59884,0 -180.34375,80.74491 -180.34375,180.34375 0,0.66847 0.024,1.33325 0.0312,2 1.07381,-98.67622 81.38213,-178.34375 180.3125,-178.34375 98.93037,0 179.23869,79.66753 180.3125,178.34375 0.007,-0.66675 0.0312,-1.33153 0.0312,-2 0,-99.59884 -80.74491,-180.34375 -180.34375,-180.34375 z"
       id="path3992"
       transform="translate(0,308.26769)" /><path
       style="fill:#000000;fill-opacity:0.5;stroke:none"
       d="m 283.15625,507.01769 c -4.05717,-0.1207 -10.01012,1.87456 -10.40625,2.46875 -0.45271,0.67907 4.77446,5.43998 5.90625,8.15625 1.13178,2.71628 4.75,17.65625 4.75,17.65625 0,0 -12.01338,1.57936 -18.125,2.9375 -6.11162,1.35814 -10.62748,4.76521 -13.34375,4.3125 -2.71628,-0.45271 -6.79976,-3.39864 -9.96875,-3.625 -3.16898,-0.22636 -7.00843,-1.60053 -7.6875,-0.46875 -0.67907,1.13178 3.16468,5.21279 3.84375,7.25 0.67907,2.0372 1.14782,25.11391 0.46875,30.09375 -0.67907,4.97984 -5.21196,25.80654 -6.34375,27.84375 -1.13178,2.0372 -4.53125,5.68071 -4.53125,6.8125 0,1.13178 1.5954,3.60054 3.40625,2.46875 1.81085,-1.13178 8.57936,-8.80737 9.9375,-11.75 1.35814,-2.94263 5.90707,-15.85466 6.8125,-19.25 0.90542,-3.39535 2.92229,-13.36309 3.375,-17.4375 0.45271,-4.07442 -0.68668,-13.13344 0.21875,-13.8125 0.90542,-0.67907 13.58184,-3.83614 17.65625,-4.0625 l 16.3125,-0.90625 c 0,0 1.82175,16.5109 3.40625,19.90625 1.58449,3.39534 8.59375,17.4375 8.59375,17.4375 0,0 -12.01687,18.3454 -13.375,20.15625 -1.35814,1.81085 -6.76521,8.14947 -6.3125,9.28125 0.45271,1.13178 6.76851,-0.0101 9.9375,-2.5 3.16898,-2.48992 13.375,-14.25 13.375,-14.25 0,0 9.72965,12.21362 13.125,15.15625 3.39534,2.94263 10.6359,6.10979 14.03125,6.5625 3.39534,0.45271 9.94593,1.13939 10.625,-0.21875 0.67907,-1.35813 -2.71115,-8.14269 -2.9375,-10.40625 -0.22636,-2.26357 0.9046,-9.29729 -0.90625,-9.75 -1.81085,-0.45272 -3.40029,1.14947 -5.4375,2.28125 -2.0372,1.13178 -4.96875,3.375 -4.96875,3.375 0,0 -6.79894,-6.09623 -9.0625,-8.8125 -2.26357,-2.71628 -6.78125,-12.21875 -6.78125,-12.21875 0,0 12.43667,-13.14434 11.53125,-17.21875 -0.90543,-4.07442 -7.91633,-10.40707 -10.40625,-11.3125 -2.48992,-0.90542 -4.29811,-2.48313 -5.65625,-1.125 -1.35813,1.35814 3.1875,5.43915 3.1875,7.25 0,1.81085 -1.83697,10.15625 -2.96875,10.15625 -1.13178,0 -6.31333,-8.12069 -7.21875,-11.96875 -0.90543,-3.84805 -2.28125,-12.6875 -2.28125,-12.6875 0,0 14.47966,-0.007 17.875,1.125 3.39534,1.13179 10.6655,0.9046 12.25,-0.90625 1.58449,-1.81085 3.61657,-4.98561 2.9375,-6.34375 -0.67907,-1.35813 -7.25926,-5.65625 -8.84375,-5.65625 -1.5845,0 -25.5625,1.125 -25.5625,1.125 0,0 -2.05407,-6.54298 -1.375,-10.84375 0.67907,-4.30077 2.28125,-9.5 2.28125,-9.5 0,0 -5.90194,-5.65708 -9.75,-6.5625 -0.48101,-0.11318 -1.01415,-0.20151 -1.59375,-0.21875 z"
       id="path3936" /><path
       style="fill:url(#linearGradient4061);stroke:none"
       d="m 281.6875,442.98644 c -128.07614,0 -231.90625,103.83011 -231.90625,231.90625 0,128.07614 103.83011,231.90625 231.90625,231.90625 128.07614,0 231.90625,-103.83011 231.90625,-231.90625 0,-128.07614 -103.83011,-231.90625 -231.90625,-231.90625 z m 0,51.5625 c 99.59884,0 180.34375,80.74491 180.34375,180.34375 0,99.59884 -80.74491,180.34375 -180.34375,180.34375 -99.59884,0 -180.34375,-80.74491 -180.34375,-180.34375 0,-99.59884 80.74491,-180.34375 180.34375,-180.34375 z m 1.46875,8.46875 c -4.05717,-0.1207 -10.01012,1.87456 -10.40625,2.46875 -0.45271,0.67907 4.77446,5.43998 5.90625,8.15625 1.13178,2.71628 4.75,17.65625 4.75,17.65625 0,0 -12.01338,1.57936 -18.125,2.9375 -6.11162,1.35814 -10.62748,4.76521 -13.34375,4.3125 -2.71628,-0.45271 -6.79976,-3.39864 -9.96875,-3.625 -3.16898,-0.22636 -7.00843,-1.60053 -7.6875,-0.46875 -0.67907,1.13178 3.16468,5.21279 3.84375,7.25 0.67907,2.0372 1.14782,25.11391 0.46875,30.09375 -0.67907,4.97984 -5.21196,25.80654 -6.34375,27.84375 -1.13178,2.0372 -4.53125,5.68071 -4.53125,6.8125 0,1.13178 1.5954,3.60054 3.40625,2.46875 1.81085,-1.13178 8.57936,-8.80737 9.9375,-11.75 1.35814,-2.94263 5.90707,-15.85466 6.8125,-19.25 0.90542,-3.39535 2.92229,-13.36309 3.375,-17.4375 0.45271,-4.07442 -0.68668,-13.13344 0.21875,-13.8125 0.90542,-0.67907 13.58184,-3.83614 17.65625,-4.0625 l 16.3125,-0.90625 c 0,0 1.82175,16.5109 3.40625,19.90625 1.58449,3.39534 8.59375,17.4375 8.59375,17.4375 0,0 -12.01687,18.3454 -13.375,20.15625 -1.35814,1.81085 -6.76521,8.14947 -6.3125,9.28125 0.45271,1.13178 6.76851,-0.0101 9.9375,-2.5 3.16898,-2.48992 13.375,-14.25 13.375,-14.25 0,0 9.72965,12.21362 13.125,15.15625 3.39534,2.94263 10.6359,6.10979 14.03125,6.5625 3.39534,0.45271 9.94593,1.13939 10.625,-0.21875 0.67907,-1.35813 -2.71115,-8.14269 -2.9375,-10.40625 -0.22636,-2.26357 0.9046,-9.29729 -0.90625,-9.75 -1.81085,-0.45272 -3.40029,1.14947 -5.4375,2.28125 -2.0372,1.13178 -4.96875,3.375 -4.96875,3.375 0,0 -6.79894,-6.09623 -9.0625,-8.8125 -2.26357,-2.71628 -6.78125,-12.21875 -6.78125,-12.21875 0,0 12.43667,-13.14434 11.53125,-17.21875 -0.90543,-4.07442 -7.91633,-10.40707 -10.40625,-11.3125 -2.48992,-0.90542 -4.29811,-2.48313 -5.65625,-1.125 -1.35813,1.35814 3.1875,5.43915 3.1875,7.25 0,1.81085 -1.83697,10.15625 -2.96875,10.15625 -1.13178,0 -6.31333,-8.12069 -7.21875,-11.96875 -0.90543,-3.84805 -2.28125,-12.6875 -2.28125,-12.6875 0,0 14.47966,-0.007 17.875,1.125 3.39534,1.13179 10.6655,0.9046 12.25,-0.90625 1.58449,-1.81085 3.61657,-4.98561 2.9375,-6.34375 -0.67907,-1.35813 -7.25926,-5.65625 -8.84375,-5.65625 -1.5845,0 -25.5625,1.125 -25.5625,1.125 0,0 -2.05407,-6.54298 -1.375,-10.84375 0.67907,-4.30077 2.28125,-9.5 2.28125,-9.5 0,0 -5.90194,-5.65708 -9.75,-6.5625 -0.48101,-0.11318 -1.01415,-0.20151 -1.59375,-0.21875 z m 18.5625,7.6875 c -1.81085,0 -4.7424,2.25925 -4.96875,3.84375 -0.22636,1.58449 2.25248,3.6174 4.96875,3.84375 2.71628,0.22636 12.91633,4.07093 15.40625,4.75 2.48992,0.67906 2.93915,1.35053 4.75,0.21875 1.81085,-1.13178 4.75,-2.92394 4.75,-5.1875 0,0 -6.09705,-4.97718 -9.71875,-5.65625 -3.6217,-0.67907 -13.37665,-1.8125 -15.1875,-1.8125 z m -20.65625,38.6875 c -3.07607,0.21637 -9.77543,2.63045 -12.375,3.1875 -3.16899,0.67907 -12.89947,0.21196 -14.03125,1.34375 -1.13178,1.13178 -0.45106,6.35218 1.8125,7.03125 2.26357,0.67907 9.05819,-1.375 12.90625,-1.375 3.84806,0 13.34458,-0.9079 14.25,-2.71875 0,0 0.23314,-6.11822 -1.125,-7.25 -0.16977,-0.14147 -0.48507,-0.2046 -0.875,-0.21875 -0.1706,-0.006 -0.35743,-0.0144 -0.5625,0 z m -1.5,17.15625 c -0.3864,0.0102 -0.78842,0.0342 -1.15625,0.0625 -2.94263,0.22635 -13.79215,3.625 -17.1875,3.625 -3.39534,0 -5.43915,-1.83531 -7.25,-1.15625 -1.81085,0.67907 -2.71032,3.16633 -2.03125,5.65625 0.67907,2.48992 2.5,9.75248 2.5,12.46875 0,2.71628 -0.022,9.71279 1.5625,11.75 1.58449,2.03721 5.2204,5.43668 7.03125,4.53125 1.81085,-0.90542 1.12665,-5.18072 2.9375,-6.3125 1.81085,-1.13178 11.32176,-1.59375 12.90625,-1.59375 1.5845,0 4.51687,-1.57936 5.875,-2.9375 1.35814,-1.35813 -1.36657,-6.35383 -0.6875,-8.84375 0.67906,-2.48992 4.53125,-7.00165 4.53125,-8.8125 0,-1.81085 -0.65625,-5.65625 -0.65625,-5.65625 -2.5748,-2.37674 -5.67022,-2.85243 -8.375,-2.78125 z m -3.78125,8.9375 c 0.55528,-0.0495 0.99831,0.0667 1.28125,0.40625 1.13178,1.35814 -1.82093,5.63426 -2.5,7.21875 -0.67907,1.5845 -0.67312,4.32854 -2.03125,4.78125 -1.35814,0.45272 -6.55571,0.65542 -7.6875,-0.25 -1.13178,-0.90543 -1.125,-5.20437 -1.125,-6.5625 0,-1.35814 0.4375,-3.625 0.4375,-3.625 0,0 3.39269,0.45271 5.65625,0 1.69767,-0.33954 4.30291,-1.8202 5.96875,-1.96875 z m -116.84375,30.5625 c -1.39793,0.0119 -2.44637,0.1516 -2.53125,0.40625 -0.22635,0.67907 1.14947,5.87665 2.28125,7.6875 1.13179,1.81085 3.15542,4.97718 2.25,5.65625 -0.90543,0.67907 -6.10383,2.92989 -8.59375,3.15625 -2.48992,0.22635 -20.15873,1.59375 -22.875,1.59375 -2.71628,0 -6.103,-2.03125 -7.6875,-2.03125 -1.58449,0 -4.08697,8.5954 -5.21875,10.40625 -1.13178,1.81085 -3.60136,7.91633 -3.375,10.40625 0.22635,2.48992 0.6579,4.30489 2.46875,4.53125 1.81085,0.22635 3.40625,-0.6875 3.40625,-0.6875 0,0 5.22205,-13.55655 8.84375,-15.59375 3.6217,-2.03721 23.97123,-3.85896 26.6875,-3.40625 2.71628,0.45271 5.66038,1.79646 10.1875,1.34375 4.52713,-0.45271 10.65625,-3.375 10.65625,-3.375 0,0 28.05572,-0.91303 29.1875,0.21875 1.13179,1.13178 -0.45189,8.81333 0.90625,9.71875 1.35814,0.90543 9.7204,-4.51686 11.53125,-5.875 1.81085,-1.35814 6.5625,-5.20437 6.5625,-6.5625 0,-1.35814 -6.08697,-7.6799 -7.21875,-7.90625 -1.13178,-0.22636 -7.02446,-0.0152 -8.15625,0.4375 -1.13178,0.45271 -3.61062,2.27364 -4.96875,2.5 -1.35814,0.22636 -13.14352,1.34375 -16.3125,1.34375 -3.16899,0 -13.125,0.90625 -13.125,0.90625 0,0 3.40543,-3.85383 2.5,-6.34375 -0.90542,-2.48992 -7.69758,-6.78207 -10.1875,-7.6875 -1.5562,-0.56589 -4.88887,-0.86364 -7.21875,-0.84375 z m 66.03125,12.75 0,112.8125 113.4375,0 0,-112.8125 -113.4375,0 z m 195.65625,3.46875 c -0.26441,-10e-4 -0.53592,0.0159 -0.84375,0.0312 -5.33568,0.26581 -16.6675,2.67418 -23.65625,3.59375 -8.60154,1.13178 -35.78125,3.1875 -35.78125,3.1875 0.67907,1.13178 9.53373,9.0405 12.25,10.625 2.71628,1.58449 9.02777,-0.68072 13.78125,-1.8125 4.75348,-1.13179 27.87069,-4.07772 31.71875,-3.625 3.84805,0.45271 8.58861,1.13096 11.53125,-0.90625 2.94263,-2.03721 -4.76009,-9.71197 -7.25,-10.84375 -0.35014,-0.15916 -0.95678,-0.24684 -1.75,-0.25 z m -185.59375,6.53125 93.3125,0 0,92.8125 -93.3125,0 0,-92.8125 z m -56.875,3.96875 c -1.72597,0 -3.62583,0.27786 -4.53125,0.84375 -1.81085,1.13178 -6.13178,12.67229 -5,13.125 1.13178,0.45272 4.76851,-2.27447 7.9375,-3.40625 3.16899,-1.13178 9.0625,0.46875 9.0625,0.46875 0,0 -0.70436,4.9704 -2.0625,6.78125 -1.35814,1.81085 -16.05572,2.02365 -17.1875,2.25 -1.13178,0.22636 0.21875,5 0.21875,5 l 17.875,-2.5 1.59375,8.375 -7,0.21875 c 0,0 -0.22718,-3.39864 -0.90625,-3.625 -0.67907,-0.22636 -8.61822,-0.43667 -9.75,0.46875 -1.13178,0.90543 -0.20949,9.27447 1.375,10.40625 1.58449,1.13178 21.03968,-2.02447 21.71875,-3.15625 0.003,-0.006 -0.003,-0.0251 0,-0.0312 2.04944,-0.23087 4.99764,-0.51121 5.875,-0.21875 1.35814,0.45271 -0.67907,7.25083 0,8.15625 0.67907,0.90543 5.67311,1.13178 7.03125,0 1.35814,-1.13178 4.06167,-13.79051 3.15625,-15.375 -0.90543,-1.5845 -6.57258,-6.11657 -9.0625,-5.4375 -2.48991,0.67907 0.6875,7.6875 0.6875,7.6875 l -7.3125,0.40625 c 0.0821,-3.49744 0.1478,-7.62838 0.96875,-8.3125 1.35814,-1.13178 5.00248,-2.50761 7.71875,-2.28125 2.71628,0.22635 12.21279,1.58532 14.25,0.90625 2.0372,-0.67907 4.07771,-4.2829 3.625,-6.09375 -0.45272,-1.81085 -6.80737,-1.14865 -9.75,-1.375 -2.94263,-0.22641 -14.6875,2.7187 -14.6875,2.7187 l -0.25,-7.25 c 0,0 9.50843,-0.68072 10.1875,-1.8125 0.67906,-1.13178 -2.03372,-3.85301 -4.75,-5.4375 -2.71627,-1.58449 -16.96875,2.28125 -16.96875,2.28125 0,0 -0.46115,-1.80572 -0.6875,-2.9375 -0.11318,-0.56589 -1.64903,-0.84375 -3.375,-0.84375 z m -21.3125,4.15625 c -2.84095,0.0526 -10.12282,1.53081 -13.09375,2.125 -3.39534,0.67907 -14.5,0.4375 -14.5,0.4375 0,0 -1.59292,6.57854 -0.6875,7.03125 0.90543,0.45271 7.92394,-1.59375 10.1875,-1.59375 2.26357,0 5.22718,1.353 5.90625,2.9375 0.67907,1.58449 -2.05654,3.17311 -4.09375,4.53125 -2.0372,1.35814 -8.5954,1.125 -10.40625,1.125 -1.81085,0 -4.52447,-1.35813 -5.65625,0 -1.13178,1.35814 3.38425,4.3125 4.96875,4.3125 1.58449,0 6.58019,-0.90625 8.84375,-0.90625 2.26356,0 5.66386,3.17311 5.4375,4.53125 -0.22635,1.35814 -3.39351,4.50843 -6.5625,5.1875 -3.16899,0.67906 -12.00165,1.60136 -13.8125,1.375 -1.81085,-0.22635 -4.30572,-3.17146 -5.4375,-2.71875 -1.13178,0.45271 2.01686,5.42311 3.375,6.78125 1.35814,1.35813 7.92476,3.60979 11.09375,4.0625 3.16899,0.45271 24.44758,-8.36061 26.9375,-9.71875 2.48992,-1.35814 5.21875,-7.25 5.21875,-7.25 0,0 -2.72883,2.50083 -5.21875,3.40625 -2.48992,0.90543 -7.44675,0.67064 -9.03125,-0.6875 -1.58449,-1.35813 0,-6.34375 0,-6.34375 0,0 10.63426,0.90625 12.21875,0.90625 1.58449,0 0.45271,-2.7204 0,-4.53125 -0.45271,-1.81085 -5.00248,-1.10896 -7.71875,-0.65625 -2.71628,0.45271 -4.75,-3.1875 -4.75,-3.1875 l 1.8125,-4.96875 c 0,0 3.39269,0.4375 5.65625,0.4375 2.26357,0 3.625,-2.02447 3.625,-3.15625 0,-1.13178 -1.79051,-2.95354 -3.375,-3.40625 -0.19806,-0.0566 -0.53165,-0.07 -0.9375,-0.0625 z m 274.46875,6.75 c -2.30247,0.0849 -5.64012,1.30741 -9.375,2.15625 -4.97983,1.13179 -19.48973,2.50082 -25.375,3.40625 -5.88526,0.90542 -31.91716,4.04729 -35.3125,4.5 -3.39535,0.45272 -13.34375,-1.125 -13.34375,-1.125 -0.90543,1.13178 7.70436,11.78208 9.0625,12.6875 1.35814,0.90543 10.19162,-0.45436 14.71875,-1.8125 4.52712,-1.35814 11.32176,-2.48397 12.90625,-2.03125 1.5845,0.45271 -0.69593,2.93072 -1.375,4.0625 -0.67906,1.13178 -9.4957,12.22288 -13.34375,16.75 -3.84806,4.52713 -17.89434,15.61144 -21.96875,17.875 -4.07441,2.26357 -6.5625,2.04051 -6.5625,3.625 0,1.5845 2.25412,2.49157 6.78125,1.8125 4.52712,-0.67906 13.81067,-5.43402 20.375,-10.1875 6.56433,-4.75348 16.5438,-15.82505 21.75,-21.03125 5.20619,-5.20619 18.5625,-17.65625 18.5625,-17.65625 0,0 8.80223,-0.90625 14.6875,-0.90625 5.88526,0 14.04894,0.67064 16.3125,-0.6875 2.26356,-1.35814 -4.5253,-9.96196 -6.5625,-11.09375 -0.5093,-0.28294 -1.17001,-0.37204 -1.9375,-0.34375 z m -26.78125,19.625 c -0.71842,0.0442 -1.15625,0.40625 -1.15625,0.40625 -1.58449,1.13178 -7.46958,19.46445 -8.375,23.3125 -0.90543,3.84806 2.71279,18.33101 4.75,21.5 2.03721,3.16898 18.32671,6.35218 25.34375,7.03125 7.01704,0.67907 20.82258,-3.4155 23.3125,-5 2.48991,-1.58449 2.03042,-6.55654 1.125,-8.59375 -0.90543,-2.0372 -2.25083,-10.17477 -3.15625,-13.34375 -0.90543,-3.16899 -0.46279,-13.8125 -2.5,-13.8125 -2.03721,0 -0.90625,2.26769 -0.90625,4.53125 0,2.26356 -0.20436,16.29894 -1.5625,18.5625 -1.35814,2.26356 -13.83266,4.28207 -18.8125,5.1875 -4.97984,0.90542 -12.90029,-2.47122 -14.9375,-5.1875 -2.03721,-2.71627 4.9924,-24.45436 5.21875,-25.8125 0.22636,-1.35814 -5.19676,-7.46958 -6.78125,-8.375 -0.59419,-0.33954 -1.13145,-0.43278 -1.5625,-0.40625 z m -254.46875,12.84375 -7.6875,1.8125 c 0,0 3.17229,3.42311 3.625,4.78125 0.45272,1.35814 -2.71792,30.07936 -1.8125,31.4375 0.90543,1.35814 5.21875,3.875 5.21875,3.875 0,0 -7.26008,5.43155 -9.75,7.46875 -2.48992,2.03721 -11.75,6.5625 -11.75,6.5625 0,0 -4.55572,8.2e-4 -5.6875,0.90625 -1.13178,0.90542 1.37747,3.38343 4.09375,4.0625 2.71627,0.67907 16.06662,-0.9079 20.59375,-2.71875 4.52712,-1.81085 17.43832,-9.26686 18.34375,-10.625 0.90542,-1.35814 -0.90625,-4.09375 -0.90625,-4.09375 0,0 11.30654,-0.67989 13.34375,-0.90625 2.03721,-0.22635 3.40625,-0.90625 3.40625,-0.90625 0,0 2.93997,2.94593 5.65625,3.625 2.71627,0.67907 5.20436,-0.22801 6.5625,-1.8125 1.35814,-1.58449 0.68585,-40.95436 -1.125,-42.3125 -1.81085,-1.35814 -36.4628,1.79646 -38.5,1.34375 -2.03721,-0.45272 -3.625,-2.5 -3.625,-2.5 z m 11.0625,6.90625 c 7.63952,-0.0637 21.78125,0.59375 21.78125,0.59375 0,0 1.125,14.23644 1.125,16.5 0,2.26356 -1.36822,14.04729 -2.5,14.5 -1.13179,0.45271 -4.96875,-2.03125 -4.96875,-2.03125 0,0 -19.02447,0.67907 -20.15625,0 -1.13178,-0.67906 -0.90542,-4.54729 0,-5 0.90543,-0.45272 15.17394,-0.4375 17.4375,-0.4375 2.26357,0 4.75082,-0.46958 5.65625,-1.375 0.90542,-0.90543 -0.4375,-5.1875 -0.4375,-5.1875 0,0 -20.85301,1.14021 -22.4375,0.6875 -1.5845,-0.45271 -0.88178,-4.55572 0.25,-5.6875 1.13179,-1.13179 9.05736,-0.65625 12,-0.65625 2.94263,0 9.71957,0.89782 10.625,0.21875 0.90542,-0.67907 0.21793,-4.53207 -0.6875,-5.4375 -0.90542,-0.90542 -24,0.6875 -24,0.6875 0,0 0.23561,-6.12583 1.59375,-7.03125 0.33954,-0.22636 2.17224,-0.32253 4.71875,-0.34375 z m 26.375,41.875 c -5.55905,0.11638 -11.13067,1.25 -12.53125,1.25 -2.48992,0 -4.28208,-1.35896 -5.1875,-0.90625 -0.90543,0.45271 24.65625,17.65625 24.65625,17.65625 0,0 9.29133,3.62335 11.78125,1.8125 2.48991,-1.81085 -2.2862,-12.20766 -7.71875,-17.1875 -2.37674,-2.17868 -6.6763,-2.71552 -11,-2.625 z m 108.8125,10.25 c -0.52406,-0.0156 -0.94404,0.069 -1.15625,0.28125 -1.13178,1.13178 0.91386,4.77447 0.6875,5.90625 -0.22635,1.13178 -1.125,3.84375 -1.125,3.84375 0,0 -7.03207,-0.45271 -7.9375,0 -0.90542,0.45271 0.91551,4.75 2.5,4.75 l 6.125,0 -0.46875,4.0625 c 0,0 -9.50843,0.68832 -10.1875,1.59375 -0.67906,0.90542 1.60301,4.0625 3.1875,4.0625 l 5.875,0 0.21875,4.75 c 0,0 -8.14946,0.0169 -9.28125,1.375 -1.13178,1.35813 0.91551,4.28208 2.5,5.1875 1.5845,0.90543 7,0.6875 7,0.6875 0,0 -0.22718,4.76604 -0.90625,5.21875 -0.67907,0.45272 -11.3125,-0.21875 -11.3125,-0.21875 0,0 -1.58531,-28.30654 -0.90625,-30.34375 0.67907,-2.03721 0.9046,-7.93072 -0.90625,-9.0625 -1.81085,-1.13178 -9.25843,-3.1546 -9.9375,-1.34375 -0.67906,1.81085 2.71875,2.93154 2.71875,4.96875 0,2.03721 1.35136,11.3158 1.125,14.9375 -0.22636,3.6217 -0.21958,19.92311 -1.125,21.28125 -0.90543,1.35814 -9.07936,1.8125 -10.4375,1.8125 -1.35814,0 -2.47553,-3.63343 -1.34375,-4.3125 1.13179,-0.67907 8.13343,-0.43832 8.8125,-1.34375 0.67907,-0.90542 1.82689,-4.96875 0.46875,-4.96875 -1.35814,0 -5.89947,0.67906 -7.03125,0 -1.13178,-0.67907 -2.71793,-4.54729 -1.8125,-5 0.90542,-0.45271 7.24322,-0.23479 8.375,-0.6875 1.13178,-0.45271 5.45106,-4.74322 3.1875,-5.875 -2.26357,-1.13178 -12.90625,0.21875 -12.90625,0.21875 l -0.6875,-7.46875 c 0,0 8.14187,1.14782 9.5,0.46875 1.35814,-0.67907 4.31845,-2.71197 2.28125,-3.84375 -2.03721,-1.13178 -12.6875,-1.15625 -12.6875,-1.15625 0,0 2.73314,-2.4628 1.375,-4.5 -1.35813,-2.03721 -4.31498,-4.7576 -7.03125,-4.53125 -2.71628,0.22636 -4.3125,1.33779 -4.3125,3.375 0,2.0372 1.375,5.65625 1.375,5.65625 0,0 -11.55572,-0.67825 -12.6875,0.90625 -1.13178,1.58449 -0.45106,5.68832 1.8125,6.59375 2.26356,0.90542 12.21875,-0.90625 12.21875,-0.90625 l 0,6.09375 c 0,0 -10.84457,0.68072 -11.75,1.8125 -0.90542,1.13178 1.36061,4.97718 2.71875,5.65625 1.35813,0.67907 9.28125,-1.8125 9.28125,-1.8125 l -0.46875,5.65625 c 0,0 -7.22718,0.46197 -7.90625,1.59375 -0.67907,1.13178 -0.022,5.89104 1.5625,6.34375 1.5845,0.45272 7.25,-0.46875 7.25,-0.46875 l 0,5 -12.21875,0.90625 c 0,0 -0.21279,-17.67476 -2.25,-20.84375 -2.0372,-3.16899 -9.96279,-8.36739 -12,-8.59375 -2.0372,-0.22636 -3.39021,-0.2171 -2.9375,1.59375 0.45271,1.81085 5.20354,7.46362 5.65625,10.40625 0.45271,2.94263 1.57771,11.32259 1.125,13.8125 -0.45271,2.48992 -3.16981,6.54134 -0.90625,9.03125 2.26357,2.48992 5.66633,4.75761 8.15625,4.53125 2.48992,-0.22636 23.53868,-6.56332 31.6875,-7.46875 8.14883,-0.90542 30.10548,-2.71032 34.40625,-2.03125 4.30076,0.67907 12.4375,0.6875 12.4375,0.6875 0,0 -2.7171,4.28207 -0.90625,5.1875 1.81085,0.90542 5.65029,0.68668 7.6875,-0.21875 2.0372,-0.90542 6.33697,-7.69758 7.46875,-10.1875 1.13178,-2.48992 7.47636,-15.83019 7.25,-18.09375 -0.22635,-2.26356 -4.73644,-7.25926 -7,-8.84375 -2.26356,-1.5845 -7.70436,-4.06085 -9.0625,-2.25 -1.35814,1.81085 0.90707,4.28372 1.8125,7 0.90542,2.71627 -1.375,7.25165 -1.375,9.0625 0,1.81085 0.90543,5.19675 0,6.78125 -0.90542,1.58449 -2.25165,5.21114 -4.0625,5.4375 -1.81085,0.22635 -14.71875,-0.4375 -14.71875,-0.4375 0,0 -1.57606,-4.75926 0.6875,-6.34375 2.26356,-1.5845 9.73561,1.57689 11.09375,0.21875 1.35814,-1.35813 2.25596,-4.73479 0.21875,-5.1875 -2.0372,-0.45271 -11.3125,-0.6875 -11.3125,-0.6875 L 304,758.76769 c 0,0 7.69676,0.46032 9.28125,-0.21875 1.5845,-0.67907 0.897,-4.96875 -0.6875,-4.96875 -1.58449,0 -7.46875,-0.25 -7.46875,-0.25 l 0.46875,-5.875 c 0,0 8.81332,0.90543 9.71875,0 0.90542,-0.90542 -1.14269,-4.96875 -3.40625,-4.96875 -2.26357,0 -8.375,0.90625 -8.375,0.90625 0,0 2.04564,-2.49404 0.6875,-4.53125 -1.10348,-1.65522 -5.63534,-3.61997 -7.90625,-3.6875 z m -3.5625,54.4375 c -4.01782,0.0566 -8.56159,0.28546 -11.84375,0.625 -6.56433,0.67907 -19.68998,2.5 -22.40625,2.5 -2.71628,0 -5.21114,0.68832 -5.4375,1.59375 -0.22636,0.90542 2.93237,4.07011 5.875,3.84375 2.94263,-0.22635 22.65625,-1.8125 22.65625,-1.8125 0,0 17.20518,-0.21957 19.46875,-1.125 2.26356,-0.90542 2.92742,-4.53968 0.4375,-5.21875 -1.24496,-0.33954 -4.73218,-0.46284 -8.75,-0.40625 z m 9.21875,11.03125 c 0,0 -18.80819,1.14864 -22.65625,1.375 -3.84805,0.22635 -18.99404,0.45354 -21.03125,0.90625 -2.0372,0.45272 -7.46875,-0.24074 -7.46875,1.34375 0,1.58449 2.26769,5 4.53125,5 2.26356,0 5.40625,0.21875 5.40625,0.21875 l 0.25,5.4375 c 0,0 -3.63343,-1.36574 -4.3125,0.21875 -0.67907,1.58449 -1.57606,3.85218 0.6875,4.53125 2.26356,0.67906 14.46875,1.59375 14.46875,1.59375 l 19.46875,-2.0625 c 0,0 3.18071,1.38096 4.3125,-0.65625 1.13178,-2.0372 -1.14022,-2.73561 -0.6875,-4.09375 0.45271,-1.35814 5.43915,-5.20436 7.25,-6.5625 1.81085,-1.35814 7.00596,-4.74322 4.96875,-5.875 -2.0372,-1.13178 -5.1875,-1.375 -5.1875,-1.375 z m -25.9375,6.375 c 5.02891,-0.0774 11.21875,0.1875 11.21875,0.1875 0,0 1.58367,4.0954 -0.90625,5.90625 -2.48992,1.81085 -12.6875,3.15625 -12.6875,3.15625 0,0 -4.05571,-0.45436 -5.1875,-1.8125 -1.13178,-1.35814 -0.24074,-5.64946 1.34375,-6.78125 0.59419,-0.42442 3.2014,-0.60983 6.21875,-0.65625 z m 9.1875,13.78125 c -2.48992,0.22635 -3.625,-0.0144 -3.625,1.34375 0,1.35814 4.28886,3.18832 4.0625,4.09375 -0.22636,0.90542 -3.83697,4.29051 -4.96875,5.875 -1.13178,1.58449 -4.07258,3.40625 -6.5625,3.40625 -2.48992,0 -5.90625,-0.009 -5.90625,-1.59375 0,-1.58449 3.4155,-6.11822 5,-7.25 1.58449,-1.13178 4.28125,-2.70437 4.28125,-4.0625 0,0 -8.35383,2.4924 -10.84375,2.71875 -2.48991,0.22636 -9.50926,-2.49835 -11.09375,-0.6875 -1.5845,1.81085 0.89186,5.66468 2.25,6.34375 1.35814,0.67907 5.20188,3.40707 3.84375,4.3125 -1.35814,0.90542 -12.22205,1.79729 -15.84375,2.25 -3.6217,0.45271 -12.66551,0.23562 -14.25,1.59375 -1.5845,1.35814 -0.46032,5.18833 0.21875,6.09375 0.67907,0.90543 6.78373,-0.22635 9.5,0 2.71628,0.22636 28.32424,-1.8125 32.625,-1.8125 4.30077,0 27.82423,-1.78803 32.125,-0.65625 4.30077,1.13178 12.90112,3.84293 15.84375,2.9375 2.94263,-0.90542 4.99157,-4.07258 4.3125,-6.5625 -0.67907,-2.48992 -4.08101,-5.4375 -7.25,-5.4375 -3.16899,0 -26.71875,-0.21875 -26.71875,-0.21875 0,0 6.35218,-2.7128 7.03125,-4.75 0.67906,-2.03721 0.45024,-4.08697 -2.71875,-5.21875 -3.16899,-1.13178 -8.82258,-2.94511 -11.3125,-2.71875 z"
       id="path3007" /></g><g
     id="text4099"
     style="font-style:normal;font-weight:normal;font-size:125.60361481px;line-height:125%;font-family:sans-serif;letter-spacing:0px;word-spacing:0px;fill:#ffffff;fill-opacity:1;stroke:none;stroke-width:1px;stroke-linecap:butt;stroke-linejoin:miter;stroke-opacity:1"><path
       id="path4532"
       style=""
       d="m 351.8229,351.66856 0,13.06327 q -5.58102,-6.43964 -10.79406,-9.19948 -5.15171,-2.75985 -11.40736,-2.75985 -9.6288,0 -15.82311,6.13299 -6.19432,6.13299 -8.15688,17.60168 l 35.38735,0 -3.37315,7.54358 -32.99548,0 q -0.12266,1.47191 -0.18399,2.8825 0,1.41059 0,3.55713 0,1.96256 0,3.37315 0.0613,1.41059 0.18399,2.8825 l 27.35313,0 -3.43447,7.54358 -22.93738,0 q 1.96256,11.46869 8.15688,17.66301 6.19431,6.19432 15.82311,6.19432 6.25565,0 11.40736,-2.75985 5.21304,-2.75984 10.79406,-9.19948 l 0,12.9406 q -5.45836,4.41576 -11.16204,6.62363 -5.64235,2.20788 -11.53002,2.20788 -14.53519,0 -24.04132,-8.89283 -9.4448,-8.89284 -11.898,-24.77728 l -12.9406,0 3.37314,-7.54358 8.52485,0 q 0,-1.41058 -0.0613,-2.82117 0,-1.47192 0,-3.43448 0,-2.14654 0,-3.55713 0.0613,-1.47192 0.0613,-2.8825 l -11.89799,0 3.37314,-7.54358 9.56746,0 q 2.4532,-15.76178 11.95933,-24.65462 9.50613,-8.89283 23.97999,-8.89283 6.01033,0 11.65268,2.20788 5.70368,2.14654 11.03938,6.50096 z" /></g><g
     style="fill:none;stroke:#ec711e;stroke-opacity:1"
     id="g4433"
     transform="matrix(0.24169616,0,0,0.24169616,871.83687,331.70387)"><path
       id="path4435"
       d="m 119,312 c 4,70 58,111 130,110 78,1 129,-34 125,-101 -11,-61 -78,-69 -122,-79 -48,-16 -118,-16 -117,-89 -1,-53 59,-84 117,-78 60,1 111,32 112,96"
       style="stroke:#ec711e;stroke-width:45;stroke-opacity:1" /><path
       id="path4437"
       d="m 221,17 0,464 m 63,0 0,-464"
       style="stroke:#ec711e;stroke-width:35;stroke-opacity:1" /></g><path
     id="path4439"
     style="fill:#ec711e;fill-opacity:1;fill-rule:evenodd;stroke:none"
     d="m 568.16721,264.13514 c 7.87875,0 14.2625,6.3875 14.2625,14.25625 0,7.8775 -6.38375,14.26125 -14.2625,14.26125 -4.04375,0 -7.6925,-1.685 -10.29,-4.39 l -29.0075,18.79375 c 0.86375,2.1 1.3425,4.39625 1.3425,6.80875 0,5.73375 -2.695,10.8375 -6.89625,14.11 l 27.825,42.95125 c 3.205,-1.69 6.8525,-2.6475 10.72125,-2.6475 12.71875,0 23.02375,10.31125 23.02375,23.01875 0,12.71875 -10.305,23.025 -23.02375,23.025 -12.70875,0 -23.01875,-10.30625 -23.01875,-23.025 0,-6.66625 2.8375,-12.66875 7.365,-16.87 l -28.235,-43.585 c -1.77375,0.59125 -3.67375,0.9075 -5.64625,0.9075 -9.87125,0 -17.88125,-8.005 -17.88125,-17.885 0,-9.87125 8.01,-17.88125 17.88125,-17.88125 5.29375,0 10.05125,2.30125 13.32375,5.95375 l 29.06125,-18.82375 c -0.51875,-1.48 -0.80125,-3.0675 -0.80125,-4.7225 0,-7.86875 6.3875,-14.25625 14.25625,-14.25625" /></svg>